<?xml version="1.0" encoding="UTF-8" standalone="no"?>
<!DOCTYPE svg PUBLIC "-//W3C//DTD SVG 1.0//EN" "http://www.w3.org/TR/2001/PR-SVG-20010719/DTD/svg10.dtd">
<svg width="24cm" height="19cm" viewBox="444 149 479 364" xmlns="http://www.w3.org/2000/svg" xmlns:xlink="http://www.w3.org/1999/xlink">
  <g>
    <rect style="fill: #ff8215" x="491" y="151" width="38.7097" height="40"/>
    <rect style="fill: none; fill-opacity:0; stroke-width: 2; stroke: #3c3d3d" x="491" y="151" width="38.7097" height="40"/>
    <rect style="fill: none; fill-opacity:0; stroke-width: 2; stroke: #3c3d3d" x="491" y="151" width="38.7097" height="40"/>
  </g>
  <g>
    <rect style="fill: #ff8215" x="491" y="191" width="38.7097" height="40"/>
    <rect style="fill: none; fill-opacity:0; stroke-width: 2; stroke: #3c3d3d" x="491" y="191" width="38.7097" height="40"/>
    <rect style="fill: none; fill-opacity:0; stroke-width: 2; stroke: #3c3d3d" x="491" y="191" width="38.7097" height="40"/>
  </g>
  <g>
    <rect style="fill: #ff8215" x="491" y="231" width="38.7097" height="40"/>
    <rect style="fill: none; fill-opacity:0; stroke-width: 2; stroke: #3c3d3d" x="491" y="231" width="38.7097" height="40"/>
    <rect style="fill: none; fill-opacity:0; stroke-width: 2; stroke: #3c3d3d" x="491" y="231" width="38.7097" height="40"/>
  </g>
  <g>
    <rect style="fill: #ff8215" x="491" y="271" width="38.7097" height="40"/>
    <rect style="fill: none; fill-opacity:0; stroke-width: 2; stroke: #3c3d3d" x="491" y="271" width="38.7097" height="40"/>
    <rect style="fill: none; fill-opacity:0; stroke-width: 2; stroke: #3c3d3d" x="491" y="271" width="38.7097" height="40"/>
  </g>
  <g>
    <rect style="fill: #ff8215" x="491" y="311" width="38.7097" height="40"/>
    <rect style="fill: none; fill-opacity:0; stroke-width: 2; stroke: #3c3d3d" x="491" y="311" width="38.7097" height="40"/>
    <rect style="fill: none; fill-opacity:0; stroke-width: 2; stroke: #3c3d3d" x="491" y="311" width="38.7097" height="40"/>
  </g>
  <g>
    <rect style="fill: #ff8215" x="491" y="351" width="38.7097" height="40"/>
    <rect style="fill: none; fill-opacity:0; stroke-width: 2; stroke: #3c3d3d" x="491" y="351" width="38.7097" height="40"/>
    <rect style="fill: none; fill-opacity:0; stroke-width: 2; stroke: #3c3d3d" x="491" y="351" width="38.7097" height="40"/>
  </g>
  <g>
    <rect style="fill: #ff8215" x="491" y="391" width="38.7097" height="40"/>
    <rect style="fill: none; fill-opacity:0; stroke-width: 2; stroke: #3c3d3d" x="491" y="391" width="38.7097" height="40"/>
    <rect style="fill: none; fill-opacity:0; stroke-width: 2; stroke: #3c3d3d" x="491" y="391" width="38.7097" height="40"/>
  </g>
  <g>
    <rect style="fill: #ff8215" x="491" y="431" width="38.7097" height="40"/>
    <rect style="fill: none; fill-opacity:0; stroke-width: 2; stroke: #3c3d3d" x="491" y="431" width="38.7097" height="40"/>
    <rect style="fill: none; fill-opacity:0; stroke-width: 2; stroke: #3c3d3d" x="491" y="431" width="38.7097" height="40"/>
  </g>
  <g>
    <rect style="fill: #ff8215" x="491" y="471" width="38.7097" height="40"/>
    <rect style="fill: none; fill-opacity:0; stroke-width: 2; stroke: #3c3d3d" x="491" y="471" width="38.7097" height="40"/>
    <rect style="fill: none; fill-opacity:0; stroke-width: 2; stroke: #3c3d3d" x="491" y="471" width="38.7097" height="40"/>
  </g>
  <text font-size="16.9333" style="fill: #3c3d3d;text-anchor:middle;font-family:sans-serif;font-style:normal;font-weight:normal" x="451" y="176.875">
    <tspan x="451" y="176.875">A</tspan>
  </text>
  <text font-size="16.9333" style="fill: #3c3d3d;text-anchor:middle;font-family:sans-serif;font-style:normal;font-weight:normal" x="451" y="216.875">
    <tspan x="451" y="216.875">B</tspan>
  </text>
  <text font-size="16.9333" style="fill: #3c3d3d;text-anchor:middle;font-family:sans-serif;font-style:normal;font-weight:normal" x="451" y="256.875">
    <tspan x="451" y="256.875">C</tspan>
  </text>
  <text font-size="16.9333" style="fill: #3c3d3d;text-anchor:middle;font-family:sans-serif;font-style:normal;font-weight:normal" x="451" y="296.875">
    <tspan x="451" y="296.875">D</tspan>
  </text>
  <text font-size="16.9333" style="fill: #3c3d3d;text-anchor:middle;font-family:sans-serif;font-style:normal;font-weight:normal" x="451" y="336.875">
    <tspan x="451" y="336.875">E</tspan>
  </text>
  <text font-size="16.9333" style="fill: #3c3d3d;text-anchor:middle;font-family:sans-serif;font-style:normal;font-weight:normal" x="451" y="376.875">
    <tspan x="451" y="376.875">F</tspan>
  </text>
  <text font-size="16.9333" style="fill: #3c3d3d;text-anchor:middle;font-family:sans-serif;font-style:normal;font-weight:normal" x="451" y="416.875">
    <tspan x="451" y="416.875">G</tspan>
  </text>
  <text font-size="16.9333" style="fill: #3c3d3d;text-anchor:middle;font-family:sans-serif;font-style:normal;font-weight:normal" x="451" y="456.875">
    <tspan x="451" y="456.875">H</tspan>
  </text>
  <text font-size="16.9333" style="fill: #3c3d3d;text-anchor:middle;font-family:sans-serif;font-style:normal;font-weight:normal" x="451" y="496.875">
    <tspan x="451" y="496.875">I</tspan>
  </text>
  <text font-size="12.8" style="fill: #3c3d3d;text-anchor:start;font-family:sans-serif;font-style:normal;font-weight:normal" x="451" y="211">
    <tspan x="451" y="211"></tspan>
  </text>
  <g>
    <rect style="fill: #00ff00" x="600" y="160" width="44" height="22"/>
    <rect style="fill: none; fill-opacity:0; stroke-width: 2; stroke: #3c3d3d" x="600" y="160" width="44" height="22"/>
  </g>
  <g>
    <rect style="fill: #ff8215" x="640" y="160" width="20" height="22"/>
    <rect style="fill: none; fill-opacity:0; stroke-width: 2; stroke: #3c3d3d" x="640" y="160" width="20" height="22"/>
  </g>
  <g>
    <rect style="fill: #00ff00" x="720" y="160" width="44" height="22"/>
    <rect style="fill: none; fill-opacity:0; stroke-width: 2; stroke: #3c3d3d" x="720" y="160" width="44" height="22"/>
  </g>
  <g>
    <rect style="fill: #ff8215" x="760" y="160" width="20" height="22"/>
    <rect style="fill: none; fill-opacity:0; stroke-width: 2; stroke: #3c3d3d" x="760" y="160" width="20" height="22"/>
  </g>
  <g>
    <rect style="fill: #00ff00" x="840" y="160" width="44" height="22"/>
    <rect style="fill: none; fill-opacity:0; stroke-width: 2; stroke: #3c3d3d" x="840" y="160" width="44" height="22"/>
  </g>
  <g>
    <rect style="fill: #ff8215" x="880" y="160" width="20" height="22"/>
    <rect style="fill: none; fill-opacity:0; stroke-width: 2; stroke: #3c3d3d" x="880" y="160" width="20" height="22"/>
  </g>
  <g>
    <rect style="fill: #00ff00" x="600" y="200" width="44" height="22"/>
    <rect style="fill: none; fill-opacity:0; stroke-width: 2; stroke: #3c3d3d" x="600" y="200" width="44" height="22"/>
  </g>
  <g>
    <rect style="fill: #ff8215" x="640" y="200" width="20" height="22"/>
    <rect style="fill: none; fill-opacity:0; stroke-width: 2; stroke: #3c3d3d" x="640" y="200" width="20" height="22"/>
  </g>
  <g>
    <rect style="fill: #00ff00" x="720" y="200" width="44" height="22"/>
    <rect style="fill: none; fill-opacity:0; stroke-width: 2; stroke: #3c3d3d" x="720" y="200" width="44" height="22"/>
  </g>
  <g>
    <rect style="fill: #ff8215" x="760" y="200" width="20" height="22"/>
    <rect style="fill: none; fill-opacity:0; stroke-width: 2; stroke: #3c3d3d" x="760" y="200" width="20" height="22"/>
  </g>
  <g>
    <rect style="fill: #00ff00" x="840" y="200" width="44" height="22"/>
    <rect style="fill: none; fill-opacity:0; stroke-width: 2; stroke: #3c3d3d" x="840" y="200" width="44" height="22"/>
  </g>
  <g>
    <rect style="fill: #ff8215" x="880" y="200" width="20" height="22"/>
    <rect style="fill: none; fill-opacity:0; stroke-width: 2; stroke: #3c3d3d" x="880" y="200" width="20" height="22"/>
  </g>
  <g>
    <rect style="fill: #00ff00" x="600" y="240" width="44" height="22"/>
    <rect style="fill: none; fill-opacity:0; stroke-width: 2; stroke: #3c3d3d" x="600" y="240" width="44" height="22"/>
  </g>
  <g>
    <rect style="fill: #ff8215" x="640" y="240" width="20" height="22"/>
    <rect style="fill: none; fill-opacity:0; stroke-width: 2; stroke: #3c3d3d" x="640" y="240" width="20" height="22"/>
  </g>
  <g>
    <rect style="fill: #00ff00" x="720" y="240" width="44" height="22"/>
    <rect style="fill: none; fill-opacity:0; stroke-width: 2; stroke: #3c3d3d" x="720" y="240" width="44" height="22"/>
  </g>
  <g>
    <rect style="fill: #ff8215" x="760" y="240" width="20" height="22"/>
    <rect style="fill: none; fill-opacity:0; stroke-width: 2; stroke: #3c3d3d" x="760" y="240" width="20" height="22"/>
  </g>
  <g>
    <rect style="fill: #00ff00" x="840" y="240" width="44" height="22"/>
    <rect style="fill: none; fill-opacity:0; stroke-width: 2; stroke: #3c3d3d" x="840" y="240" width="44" height="22"/>
  </g>
  <g>
    <rect style="fill: #ff8215" x="880" y="240" width="20" height="22"/>
    <rect style="fill: none; fill-opacity:0; stroke-width: 2; stroke: #3c3d3d" x="880" y="240" width="20" height="22"/>
  </g>
  <g>
    <rect style="fill: #00ff00" x="600" y="280" width="44" height="22"/>
    <rect style="fill: none; fill-opacity:0; stroke-width: 2; stroke: #3c3d3d" x="600" y="280" width="44" height="22"/>
  </g>
  <g>
    <rect style="fill: #ff8215" x="640" y="280" width="20" height="22"/>
    <rect style="fill: none; fill-opacity:0; stroke-width: 2; stroke: #3c3d3d" x="640" y="280" width="20" height="22"/>
  </g>
  <g>
    <rect style="fill: #00ff00" x="720" y="280" width="44" height="22"/>
    <rect style="fill: none; fill-opacity:0; stroke-width: 2; stroke: #3c3d3d" x="720" y="280" width="44" height="22"/>
  </g>
  <g>
    <rect style="fill: #ff8215" x="760" y="280" width="20" height="22"/>
    <rect style="fill: none; fill-opacity:0; stroke-width: 2; stroke: #3c3d3d" x="760" y="280" width="20" height="22"/>
  </g>
  <g>
    <rect style="fill: #00ff00" x="600" y="320" width="44" height="22"/>
    <rect style="fill: none; fill-opacity:0; stroke-width: 2; stroke: #3c3d3d" x="600" y="320" width="44" height="22"/>
  </g>
  <g>
    <rect style="fill: #ff8215" x="640" y="320" width="20" height="22"/>
    <rect style="fill: none; fill-opacity:0; stroke-width: 2; stroke: #3c3d3d" x="640" y="320" width="20" height="22"/>
  </g>
  <g>
    <rect style="fill: #00ff00" x="720" y="320" width="44" height="22"/>
    <rect style="fill: none; fill-opacity:0; stroke-width: 2; stroke: #3c3d3d" x="720" y="320" width="44" height="22"/>
  </g>
  <g>
    <rect style="fill: #ff8215" x="760" y="320" width="20" height="22"/>
    <rect style="fill: none; fill-opacity:0; stroke-width: 2; stroke: #3c3d3d" x="760" y="320" width="20" height="22"/>
  </g>
  <g>
    <rect style="fill: #00ff00" x="840" y="320" width="44" height="22"/>
    <rect style="fill: none; fill-opacity:0; stroke-width: 2; stroke: #3c3d3d" x="840" y="320" width="44" height="22"/>
  </g>
  <g>
    <rect style="fill: #ff8215" x="880" y="320" width="20" height="22"/>
    <rect style="fill: none; fill-opacity:0; stroke-width: 2; stroke: #3c3d3d" x="880" y="320" width="20" height="22"/>
  </g>
  <g>
    <rect style="fill: #00ff00" x="600" y="360" width="44" height="22"/>
    <rect style="fill: none; fill-opacity:0; stroke-width: 2; stroke: #3c3d3d" x="600" y="360" width="44" height="22"/>
  </g>
  <g>
    <rect style="fill: #ff8215" x="640" y="360" width="20" height="22"/>
    <rect style="fill: none; fill-opacity:0; stroke-width: 2; stroke: #3c3d3d" x="640" y="360" width="20" height="22"/>
  </g>
  <g>
    <rect style="fill: #00ff00" x="720" y="360" width="44" height="22"/>
    <rect style="fill: none; fill-opacity:0; stroke-width: 2; stroke: #3c3d3d" x="720" y="360" width="44" height="22"/>
  </g>
  <g>
    <rect style="fill: #ff8215" x="760" y="360" width="20" height="22"/>
    <rect style="fill: none; fill-opacity:0; stroke-width: 2; stroke: #3c3d3d" x="760" y="360" width="20" height="22"/>
  </g>
  <g>
    <rect style="fill: #00ff00" x="840" y="360" width="44" height="22"/>
    <rect style="fill: none; fill-opacity:0; stroke-width: 2; stroke: #3c3d3d" x="840" y="360" width="44" height="22"/>
  </g>
  <g>
    <rect style="fill: #ff8215" x="880" y="360" width="20" height="22"/>
    <rect style="fill: none; fill-opacity:0; stroke-width: 2; stroke: #3c3d3d" x="880" y="360" width="20" height="22"/>
  </g>
  <g>
    <rect style="fill: #00ff00" x="600" y="440" width="44" height="22"/>
    <rect style="fill: none; fill-opacity:0; stroke-width: 2; stroke: #3c3d3d" x="600" y="440" width="44" height="22"/>
  </g>
  <g>
    <rect style="fill: #ff8215" x="640" y="440" width="20" height="22"/>
    <rect style="fill: none; fill-opacity:0; stroke-width: 2; stroke: #3c3d3d" x="640" y="440" width="20" height="22"/>
  </g>
  <g>
    <rect style="fill: #00ff00" x="720" y="440" width="44" height="22"/>
    <rect style="fill: none; fill-opacity:0; stroke-width: 2; stroke: #3c3d3d" x="720" y="440" width="44" height="22"/>
  </g>
  <g>
    <rect style="fill: #ff8215" x="760" y="440" width="20" height="22"/>
    <rect style="fill: none; fill-opacity:0; stroke-width: 2; stroke: #3c3d3d" x="760" y="440" width="20" height="22"/>
  </g>
  <g>
    <rect style="fill: #00ff00" x="840" y="440" width="44" height="22"/>
    <rect style="fill: none; fill-opacity:0; stroke-width: 2; stroke: #3c3d3d" x="840" y="440" width="44" height="22"/>
  </g>
  <g>
    <rect style="fill: #ff8215" x="880" y="440" width="20" height="22"/>
    <rect style="fill: none; fill-opacity:0; stroke-width: 2; stroke: #3c3d3d" x="880" y="440" width="20" height="22"/>
  </g>
  <g>
    <rect style="fill: #00ff00" x="600" y="400" width="44" height="22"/>
    <rect style="fill: none; fill-opacity:0; stroke-width: 2; stroke: #3c3d3d" x="600" y="400" width="44" height="22"/>
  </g>
  <g>
    <rect style="fill: #ff8215" x="640" y="400" width="20" height="22"/>
    <rect style="fill: none; fill-opacity:0; stroke-width: 2; stroke: #3c3d3d" x="640" y="400" width="20" height="22"/>
  </g>
  <g>
    <rect style="fill: #00ff00" x="720" y="400" width="44" height="22"/>
    <rect style="fill: none; fill-opacity:0; stroke-width: 2; stroke: #3c3d3d" x="720" y="400" width="44" height="22"/>
  </g>
  <g>
    <rect style="fill: #ff8215" x="760" y="400" width="20" height="22"/>
    <rect style="fill: none; fill-opacity:0; stroke-width: 2; stroke: #3c3d3d" x="760" y="400" width="20" height="22"/>
  </g>
  <g>
    <rect style="fill: #00ff00" x="600" y="480" width="44" height="22"/>
    <rect style="fill: none; fill-opacity:0; stroke-width: 2; stroke: #3c3d3d" x="600" y="480" width="44" height="22"/>
  </g>
  <g>
    <rect style="fill: #ff8215" x="640" y="480" width="20" height="22"/>
    <rect style="fill: none; fill-opacity:0; stroke-width: 2; stroke: #3c3d3d" x="640" y="480" width="20" height="22"/>
  </g>
  <g>
    <rect style="fill: #00ff00" x="720" y="480" width="44" height="22"/>
    <rect style="fill: none; fill-opacity:0; stroke-width: 2; stroke: #3c3d3d" x="720" y="480" width="44" height="22"/>
  </g>
  <g>
    <rect style="fill: #ff8215" x="760" y="480" width="20" height="22"/>
    <rect style="fill: none; fill-opacity:0; stroke-width: 2; stroke: #3c3d3d" x="760" y="480" width="20" height="22"/>
  </g>
  <text font-size="16.9333" style="fill: #3c3d3d;text-anchor:middle;font-family:sans-serif;font-style:normal;font-weight:normal" x="622" y="216.875">
    <tspan x="622" y="216.875">A</tspan>
  </text>
  <text font-size="16.9333" style="fill: #3c3d3d;text-anchor:middle;font-family:sans-serif;font-style:normal;font-weight:normal" x="622" y="336.875">
    <tspan x="622" y="336.875">A</tspan>
  </text>
  <text font-size="16.9333" style="fill: #3c3d3d;text-anchor:middle;font-family:sans-serif;font-style:normal;font-weight:normal" x="622" y="456.875">
    <tspan x="622" y="456.875">A</tspan>
  </text>
  <text font-size="16.9333" style="fill: #3c3d3d;text-anchor:middle;font-family:sans-serif;font-style:normal;font-weight:normal" x="622" y="176.875">
    <tspan x="622" y="176.875">B</tspan>
  </text>
  <text font-size="16.9333" style="fill: #3c3d3d;text-anchor:middle;font-family:sans-serif;font-style:normal;font-weight:normal" x="622" y="256.875">
    <tspan x="622" y="256.875">B</tspan>
  </text>
  <text font-size="16.9333" style="fill: #3c3d3d;text-anchor:middle;font-family:sans-serif;font-style:normal;font-weight:normal" x="622" y="376.875">
    <tspan x="622" y="376.875">B</tspan>
  </text>
  <text font-size="16.9333" style="fill: #3c3d3d;text-anchor:middle;font-family:sans-serif;font-style:normal;font-weight:normal" x="742" y="216.875">
    <tspan x="742" y="216.875">C</tspan>
  </text>
  <text font-size="16.9333" style="fill: #3c3d3d;text-anchor:middle;font-family:sans-serif;font-style:normal;font-weight:normal" x="622" y="296.875">
    <tspan x="622" y="296.875">C</tspan>
  </text>
  <text font-size="16.9333" style="fill: #3c3d3d;text-anchor:middle;font-family:sans-serif;font-style:normal;font-weight:normal" x="622" y="496.875">
    <tspan x="622" y="496.875">C</tspan>
  </text>
  <text font-size="16.9333" style="fill: #3c3d3d;text-anchor:middle;font-family:sans-serif;font-style:normal;font-weight:normal" x="742" y="256.875">
    <tspan x="742" y="256.875">D</tspan>
  </text>
  <text font-size="16.9333" style="fill: #3c3d3d;text-anchor:middle;font-family:sans-serif;font-style:normal;font-weight:normal" x="622" y="416.875">
    <tspan x="622" y="416.875">D</tspan>
  </text>
  <text font-size="16.9333" style="fill: #3c3d3d;text-anchor:middle;font-family:sans-serif;font-style:normal;font-weight:normal" x="742" y="176.875">
    <tspan x="742" y="176.875">E</tspan>
  </text>
  <text font-size="16.9333" style="fill: #3c3d3d;text-anchor:middle;font-family:sans-serif;font-style:normal;font-weight:normal" x="742" y="376.875">
    <tspan x="742" y="376.875">E</tspan>
  </text>
  <text font-size="16.9333" style="fill: #3c3d3d;text-anchor:middle;font-family:sans-serif;font-style:normal;font-weight:normal" x="742" y="456.875">
    <tspan x="742" y="456.875">E</tspan>
  </text>
  <text font-size="16.9333" style="fill: #3c3d3d;text-anchor:middle;font-family:sans-serif;font-style:normal;font-weight:normal" x="862" y="216.875">
    <tspan x="862" y="216.875">F</tspan>
  </text>
  <text font-size="16.9333" style="fill: #3c3d3d;text-anchor:middle;font-family:sans-serif;font-style:normal;font-weight:normal" x="742" y="336.875">
    <tspan x="742" y="336.875">F</tspan>
  </text>
  <text font-size="16.9333" style="fill: #3c3d3d;text-anchor:middle;font-family:sans-serif;font-style:normal;font-weight:normal" x="742" y="416.875">
    <tspan x="742" y="416.875">F</tspan>
  </text>
  <text font-size="16.9333" style="fill: #3c3d3d;text-anchor:middle;font-family:sans-serif;font-style:normal;font-weight:normal" x="742" y="296.875">
    <tspan x="742" y="296.875">G</tspan>
  </text>
  <text font-size="16.9333" style="fill: #3c3d3d;text-anchor:middle;font-family:sans-serif;font-style:normal;font-weight:normal" x="862" y="376.875">
    <tspan x="862" y="376.875">G</tspan>
  </text>
  <text font-size="16.9333" style="fill: #3c3d3d;text-anchor:middle;font-family:sans-serif;font-style:normal;font-weight:normal" x="862" y="176.875">
    <tspan x="862" y="176.875">H</tspan>
  </text>
  <text font-size="16.9333" style="fill: #3c3d3d;text-anchor:middle;font-family:sans-serif;font-style:normal;font-weight:normal" x="862" y="336.875">
    <tspan x="862" y="336.875">H</tspan>
  </text>
  <text font-size="16.9333" style="fill: #3c3d3d;text-anchor:middle;font-family:sans-serif;font-style:normal;font-weight:normal" x="742" y="496.875">
    <tspan x="742" y="496.875">H</tspan>
  </text>
  <text font-size="16.9333" style="fill: #3c3d3d;text-anchor:middle;font-family:sans-serif;font-style:normal;font-weight:normal" x="862" y="256.875">
    <tspan x="862" y="256.875">I</tspan>
  </text>
  <text font-size="16.9333" style="fill: #3c3d3d;text-anchor:middle;font-family:sans-serif;font-style:normal;font-weight:normal" x="862" y="456.875">
    <tspan x="862" y="456.875">I</tspan>
  </text>
  <g>
    <line style="fill: none; fill-opacity:0; stroke-width: 2; stroke: #3c3d3d" x1="530.714" y1="171" x2="589" y2="171"/>
    <polygon style="fill: #3c3d3d" points="589,176 599,171 589,166 "/>
    <polygon style="fill: none; fill-opacity:0; stroke-width: 2; stroke: #3c3d3d" points="589,176 599,171 589,166 "/>
  </g>
  <g>
    <line style="fill: none; fill-opacity:0; stroke-width: 2; stroke: #3c3d3d" x1="530.702" y1="211" x2="588.05" y2="211"/>
    <polygon style="fill: #3c3d3d" points="588.05,216 598.05,211 588.05,206 "/>
    <polygon style="fill: none; fill-opacity:0; stroke-width: 2; stroke: #3c3d3d" points="588.05,216 598.05,211 588.05,206 "/>
  </g>
  <g>
    <line style="fill: none; fill-opacity:0; stroke-width: 2; stroke: #3c3d3d" x1="530.702" y1="251" x2="588.05" y2="251"/>
    <polygon style="fill: #3c3d3d" points="588.05,256 598.05,251 588.05,246 "/>
    <polygon style="fill: none; fill-opacity:0; stroke-width: 2; stroke: #3c3d3d" points="588.05,256 598.05,251 588.05,246 "/>
  </g>
  <g>
    <line style="fill: none; fill-opacity:0; stroke-width: 2; stroke: #3c3d3d" x1="530.702" y1="291" x2="588.05" y2="291"/>
    <polygon style="fill: #3c3d3d" points="588.05,296 598.05,291 588.05,286 "/>
    <polygon style="fill: none; fill-opacity:0; stroke-width: 2; stroke: #3c3d3d" points="588.05,296 598.05,291 588.05,286 "/>
  </g>
  <g>
    <line style="fill: none; fill-opacity:0; stroke-width: 2; stroke: #3c3d3d" x1="530.702" y1="331" x2="588.05" y2="331"/>
    <polygon style="fill: #3c3d3d" points="588.05,336 598.05,331 588.05,326 "/>
    <polygon style="fill: none; fill-opacity:0; stroke-width: 2; stroke: #3c3d3d" points="588.05,336 598.05,331 588.05,326 "/>
  </g>
  <g>
    <line style="fill: none; fill-opacity:0; stroke-width: 2; stroke: #3c3d3d" x1="530.702" y1="371" x2="588.05" y2="371"/>
    <polygon style="fill: #3c3d3d" points="588.05,376 598.05,371 588.05,366 "/>
    <polygon style="fill: none; fill-opacity:0; stroke-width: 2; stroke: #3c3d3d" points="588.05,376 598.05,371 588.05,366 "/>
  </g>
  <g>
    <line style="fill: none; fill-opacity:0; stroke-width: 2; stroke: #3c3d3d" x1="530.702" y1="411" x2="588.05" y2="411"/>
    <polygon style="fill: #3c3d3d" points="588.05,416 598.05,411 588.05,406 "/>
    <polygon style="fill: none; fill-opacity:0; stroke-width: 2; stroke: #3c3d3d" points="588.05,416 598.05,411 588.05,406 "/>
  </g>
  <g>
    <line style="fill: none; fill-opacity:0; stroke-width: 2; stroke: #3c3d3d" x1="530.702" y1="451" x2="588.05" y2="451"/>
    <polygon style="fill: #3c3d3d" points="588.05,456 598.05,451 588.05,446 "/>
    <polygon style="fill: none; fill-opacity:0; stroke-width: 2; stroke: #3c3d3d" points="588.05,456 598.05,451 588.05,446 "/>
  </g>
  <g>
    <line style="fill: none; fill-opacity:0; stroke-width: 2; stroke: #3c3d3d" x1="530.702" y1="491" x2="588.05" y2="491"/>
    <polygon style="fill: #3c3d3d" points="588.05,496 598.05,491 588.05,486 "/>
    <polygon style="fill: none; fill-opacity:0; stroke-width: 2; stroke: #3c3d3d" points="588.05,496 598.05,491 588.05,486 "/>
  </g>
  <g>
    <line style="fill: none; fill-opacity:0; stroke-width: 2; stroke: #3c3d3d" x1="660.983" y1="171" x2="707.994" y2="171"/>
    <polygon style="fill: #3c3d3d" points="707.994,176 717.994,171 707.994,166 "/>
    <polygon style="fill: none; fill-opacity:0; stroke-width: 2; stroke: #3c3d3d" points="707.994,176 717.994,171 707.994,166 "/>
  </g>
  <g>
    <line style="fill: none; fill-opacity:0; stroke-width: 2; stroke: #3c3d3d" x1="660.972" y1="211" x2="709" y2="211"/>
    <polygon style="fill: #3c3d3d" points="709,216 719,211 709,206 "/>
    <polygon style="fill: none; fill-opacity:0; stroke-width: 2; stroke: #3c3d3d" points="709,216 719,211 709,206 "/>
  </g>
  <g>
    <line style="fill: none; fill-opacity:0; stroke-width: 2; stroke: #3c3d3d" x1="660.983" y1="251" x2="707.994" y2="251"/>
    <polygon style="fill: #3c3d3d" points="707.994,256 717.994,251 707.994,246 "/>
    <polygon style="fill: none; fill-opacity:0; stroke-width: 2; stroke: #3c3d3d" points="707.994,256 717.994,251 707.994,246 "/>
  </g>
  <g>
    <line style="fill: none; fill-opacity:0; stroke-width: 2; stroke: #3c3d3d" x1="660.983" y1="291" x2="707.994" y2="291"/>
    <polygon style="fill: #3c3d3d" points="707.994,296 717.994,291 707.994,286 "/>
    <polygon style="fill: none; fill-opacity:0; stroke-width: 2; stroke: #3c3d3d" points="707.994,296 717.994,291 707.994,286 "/>
  </g>
  <g>
    <line style="fill: none; fill-opacity:0; stroke-width: 2; stroke: #3c3d3d" x1="660.983" y1="331" x2="707.994" y2="331"/>
    <polygon style="fill: #3c3d3d" points="707.994,336 717.994,331 707.994,326 "/>
    <polygon style="fill: none; fill-opacity:0; stroke-width: 2; stroke: #3c3d3d" points="707.994,336 717.994,331 707.994,326 "/>
  </g>
  <g>
    <line style="fill: none; fill-opacity:0; stroke-width: 2; stroke: #3c3d3d" x1="660.983" y1="371" x2="707.994" y2="371"/>
    <polygon style="fill: #3c3d3d" points="707.994,376 717.994,371 707.994,366 "/>
    <polygon style="fill: none; fill-opacity:0; stroke-width: 2; stroke: #3c3d3d" points="707.994,376 717.994,371 707.994,366 "/>
  </g>
  <g>
    <line style="fill: none; fill-opacity:0; stroke-width: 2; stroke: #3c3d3d" x1="660.983" y1="411" x2="707.994" y2="411"/>
    <polygon style="fill: #3c3d3d" points="707.994,416 717.994,411 707.994,406 "/>
    <polygon style="fill: none; fill-opacity:0; stroke-width: 2; stroke: #3c3d3d" points="707.994,416 717.994,411 707.994,406 "/>
  </g>
  <g>
    <line style="fill: none; fill-opacity:0; stroke-width: 2; stroke: #3c3d3d" x1="660.983" y1="451" x2="707.994" y2="451"/>
    <polygon style="fill: #3c3d3d" points="707.994,456 717.994,451 707.994,446 "/>
    <polygon style="fill: none; fill-opacity:0; stroke-width: 2; stroke: #3c3d3d" points="707.994,456 717.994,451 707.994,446 "/>
  </g>
  <g>
    <line style="fill: none; fill-opacity:0; stroke-width: 2; stroke: #3c3d3d" x1="660.983" y1="491" x2="707.994" y2="491"/>
    <polygon style="fill: #3c3d3d" points="707.994,496 717.994,491 707.994,486 "/>
    <polygon style="fill: none; fill-opacity:0; stroke-width: 2; stroke: #3c3d3d" points="707.994,496 717.994,491 707.994,486 "/>
  </g>
  <g>
    <line style="fill: none; fill-opacity:0; stroke-width: 2; stroke: #3c3d3d" x1="780.983" y1="171" x2="827.994" y2="171"/>
    <polygon style="fill: #3c3d3d" points="827.994,176 837.994,171 827.994,166 "/>
    <polygon style="fill: none; fill-opacity:0; stroke-width: 2; stroke: #3c3d3d" points="827.994,176 837.994,171 827.994,166 "/>
  </g>
  <g>
    <line style="fill: none; fill-opacity:0; stroke-width: 2; stroke: #3c3d3d" x1="780.983" y1="211" x2="827.994" y2="211"/>
    <polygon style="fill: #3c3d3d" points="827.994,216 837.994,211 827.994,206 "/>
    <polygon style="fill: none; fill-opacity:0; stroke-width: 2; stroke: #3c3d3d" points="827.994,216 837.994,211 827.994,206 "/>
  </g>
  <g>
    <line style="fill: none; fill-opacity:0; stroke-width: 2; stroke: #3c3d3d" x1="780.983" y1="251" x2="827.994" y2="251"/>
    <polygon style="fill: #3c3d3d" points="827.994,256 837.994,251 827.994,246 "/>
    <polygon style="fill: none; fill-opacity:0; stroke-width: 2; stroke: #3c3d3d" points="827.994,256 837.994,251 827.994,246 "/>
  </g>
  <g>
    <line style="fill: none; fill-opacity:0; stroke-width: 2; stroke: #3c3d3d" x1="780.983" y1="331" x2="827.994" y2="331"/>
    <polygon style="fill: #3c3d3d" points="827.994,336 837.994,331 827.994,326 "/>
    <polygon style="fill: none; fill-opacity:0; stroke-width: 2; stroke: #3c3d3d" points="827.994,336 837.994,331 827.994,326 "/>
  </g>
  <g>
    <line style="fill: none; fill-opacity:0; stroke-width: 2; stroke: #3c3d3d" x1="780.983" y1="371" x2="827.994" y2="371"/>
    <polygon style="fill: #3c3d3d" points="827.994,376 837.994,371 827.994,366 "/>
    <polygon style="fill: none; fill-opacity:0; stroke-width: 2; stroke: #3c3d3d" points="827.994,376 837.994,371 827.994,366 "/>
  </g>
  <g>
    <line style="fill: none; fill-opacity:0; stroke-width: 2; stroke: #3c3d3d" x1="780.983" y1="451" x2="827.994" y2="451"/>
    <polygon style="fill: #3c3d3d" points="827.994,456 837.994,451 827.994,446 "/>
    <polygon style="fill: none; fill-opacity:0; stroke-width: 2; stroke: #3c3d3d" points="827.994,456 837.994,451 827.994,446 "/>
  </g>
  <g>
    <polyline style="fill: none; fill-opacity:0; stroke-width: 2; stroke: #3c3d3d" points="900,171 900,171.093 915.895,171.093 915.895,180.904 "/>
    <polygon style="fill: #3c3d3d" points="910.895,180.904 915.895,190.904 920.895,180.904 "/>
    <polygon style="fill: none; fill-opacity:0; stroke-width: 2; stroke: #3c3d3d" points="910.895,180.904 915.895,190.904 920.895,180.904 "/>
  </g>
  <g>
    <polyline style="fill: none; fill-opacity:0; stroke-width: 2; stroke: #3c3d3d" points="900,211 900,211.163 916.38,211.163 916.38,220.974 "/>
    <polygon style="fill: #3c3d3d" points="911.38,220.974 916.38,230.974 921.38,220.974 "/>
    <polygon style="fill: none; fill-opacity:0; stroke-width: 2; stroke: #3c3d3d" points="911.38,220.974 916.38,230.974 921.38,220.974 "/>
  </g>
  <g>
    <polyline style="fill: none; fill-opacity:0; stroke-width: 2; stroke: #3c3d3d" points="900,251 900,250.733 916.023,250.733 916.023,260.544 "/>
    <polygon style="fill: #3c3d3d" points="911.023,260.544 916.023,270.544 921.023,260.544 "/>
    <polygon style="fill: none; fill-opacity:0; stroke-width: 2; stroke: #3c3d3d" points="911.023,260.544 916.023,270.544 921.023,260.544 "/>
  </g>
  <g>
    <polyline style="fill: none; fill-opacity:0; stroke-width: 2; stroke: #3c3d3d" points="780,291 780,290.899 795.557,290.899 795.557,300.71 "/>
    <polygon style="fill: #3c3d3d" points="790.557,300.71 795.557,310.71 800.557,300.71 "/>
    <polygon style="fill: none; fill-opacity:0; stroke-width: 2; stroke: #3c3d3d" points="790.557,300.71 795.557,310.71 800.557,300.71 "/>
  </g>
  <g>
    <polyline style="fill: none; fill-opacity:0; stroke-width: 2; stroke: #3c3d3d" points="900,331 900,331.064 916.202,331.064 916.202,340.875 "/>
    <polygon style="fill: #3c3d3d" points="911.202,340.875 916.202,350.875 921.202,340.875 "/>
    <polygon style="fill: none; fill-opacity:0; stroke-width: 2; stroke: #3c3d3d" points="911.202,340.875 916.202,350.875 921.202,340.875 "/>
  </g>
  <g>
    <polyline style="fill: none; fill-opacity:0; stroke-width: 2; stroke: #3c3d3d" points="900,371 900,371.006 916.142,371.006 916.142,380.817 "/>
    <polygon style="fill: #3c3d3d" points="911.142,380.817 916.142,390.817 921.142,380.817 "/>
    <polygon style="fill: none; fill-opacity:0; stroke-width: 2; stroke: #3c3d3d" points="911.142,380.817 916.142,390.817 921.142,380.817 "/>
  </g>
  <g>
    <polyline style="fill: none; fill-opacity:0; stroke-width: 2; stroke: #3c3d3d" points="780,411 780,411.469 795.973,411.469 795.973,421.28 "/>
    <polygon style="fill: #3c3d3d" points="790.973,421.28 795.973,431.28 800.973,421.28 "/>
    <polygon style="fill: none; fill-opacity:0; stroke-width: 2; stroke: #3c3d3d" points="790.973,421.28 795.973,431.28 800.973,421.28 "/>
  </g>
  <g>
    <polyline style="fill: none; fill-opacity:0; stroke-width: 2; stroke: #3c3d3d" points="900,451 900,451.04 916.321,451.04 916.321,460.851 "/>
    <polygon style="fill: #3c3d3d" points="911.321,460.851 916.321,470.851 921.321,460.851 "/>
    <polygon style="fill: none; fill-opacity:0; stroke-width: 2; stroke: #3c3d3d" points="911.321,460.851 916.321,470.851 921.321,460.851 "/>
  </g>
  <g>
    <polyline style="fill: none; fill-opacity:0; stroke-width: 2; stroke: #3c3d3d" points="780,491 780,490.61 796.152,490.61 796.152,500.421 "/>
    <polygon style="fill: #3c3d3d" points="791.152,500.421 796.152,510.421 801.152,500.421 "/>
    <polygon style="fill: none; fill-opacity:0; stroke-width: 2; stroke: #3c3d3d" points="791.152,500.421 796.152,510.421 801.152,500.421 "/>
  </g>
</svg>
