<?xml version="1.0" encoding="UTF-8" standalone="no"?>
<!DOCTYPE svg PUBLIC "-//W3C//DTD SVG 1.0//EN" "http://www.w3.org/TR/2001/PR-SVG-20010719/DTD/svg10.dtd">
<svg width="33cm" height="17cm" viewBox="316 -122 647 325" xmlns="http://www.w3.org/2000/svg" xmlns:xlink="http://www.w3.org/1999/xlink">
  <g>
    <ellipse style="fill: #00ff00" cx="351" cy="-89" rx="31" ry="31"/>
    <ellipse style="fill: none; fill-opacity:0; stroke-width: 2; stroke: #3c3d3d" cx="351" cy="-89" rx="31" ry="31"/>
    <ellipse style="fill: none; fill-opacity:0; stroke-width: 2; stroke: #3c3d3d" cx="351" cy="-89" rx="31" ry="31"/>
  </g>
  <text font-size="22.5778" style="fill: #3c3d3d;text-anchor:middle;font-family:sans-serif;font-style:normal;font-weight:normal" x="351" y="-81.5044">
    <tspan x="351" y="-81.5044">0</tspan>
  </text>
  <g>
    <ellipse style="fill: #00ff00" cx="351" cy="31" rx="31" ry="31"/>
    <ellipse style="fill: none; fill-opacity:0; stroke-width: 2; stroke: #3c3d3d" cx="351" cy="31" rx="31" ry="31"/>
    <ellipse style="fill: none; fill-opacity:0; stroke-width: 2; stroke: #3c3d3d" cx="351" cy="31" rx="31" ry="31"/>
  </g>
  <text font-size="22.5778" style="fill: #3c3d3d;text-anchor:middle;font-family:sans-serif;font-style:normal;font-weight:normal" x="351" y="38.4956">
    <tspan x="351" y="38.4956">1</tspan>
  </text>
  <g>
    <ellipse style="fill: #00ff00" cx="731" cy="31" rx="31" ry="31"/>
    <ellipse style="fill: none; fill-opacity:0; stroke-width: 2; stroke: #3c3d3d" cx="731" cy="31" rx="31" ry="31"/>
    <ellipse style="fill: none; fill-opacity:0; stroke-width: 2; stroke: #3c3d3d" cx="731" cy="31" rx="31" ry="31"/>
  </g>
  <text font-size="22.5778" style="fill: #3c3d3d;text-anchor:middle;font-family:sans-serif;font-style:normal;font-weight:normal" x="731" y="38.4956">
    <tspan x="731" y="38.4956">7</tspan>
  </text>
  <g>
    <ellipse style="fill: #00ff00" cx="349" cy="168" rx="31" ry="31"/>
    <ellipse style="fill: none; fill-opacity:0; stroke-width: 2; stroke: #3c3d3d" cx="349" cy="168" rx="31" ry="31"/>
    <ellipse style="fill: none; fill-opacity:0; stroke-width: 2; stroke: #3c3d3d" cx="349" cy="168" rx="31" ry="31"/>
  </g>
  <text font-size="22.5778" style="fill: #3c3d3d;text-anchor:middle;font-family:sans-serif;font-style:normal;font-weight:normal" x="349" y="175.496">
    <tspan x="349" y="175.496">2</tspan>
  </text>
  <g>
    <ellipse style="fill: #00ff00" cx="551" cy="31" rx="31" ry="31"/>
    <ellipse style="fill: none; fill-opacity:0; stroke-width: 2; stroke: #3c3d3d" cx="551" cy="31" rx="31" ry="31"/>
    <ellipse style="fill: none; fill-opacity:0; stroke-width: 2; stroke: #3c3d3d" cx="551" cy="31" rx="31" ry="31"/>
  </g>
  <text font-size="22.5778" style="fill: #3c3d3d;text-anchor:middle;font-family:sans-serif;font-style:normal;font-weight:normal" x="551" y="38.4956">
    <tspan x="551" y="38.4956">4</tspan>
  </text>
  <g>
    <ellipse style="fill: #00ff00" cx="731" cy="-89" rx="31" ry="31"/>
    <ellipse style="fill: none; fill-opacity:0; stroke-width: 2; stroke: #3c3d3d" cx="731" cy="-89" rx="31" ry="31"/>
    <ellipse style="fill: none; fill-opacity:0; stroke-width: 2; stroke: #3c3d3d" cx="731" cy="-89" rx="31" ry="31"/>
  </g>
  <text font-size="22.5778" style="fill: #3c3d3d;text-anchor:middle;font-family:sans-serif;font-style:normal;font-weight:normal" x="731" y="-81.5044">
    <tspan x="731" y="-81.5044">6</tspan>
  </text>
  <g>
    <ellipse style="fill: #00ff00" cx="931" cy="31" rx="31" ry="31"/>
    <ellipse style="fill: none; fill-opacity:0; stroke-width: 2; stroke: #3c3d3d" cx="931" cy="31" rx="31" ry="31"/>
    <ellipse style="fill: none; fill-opacity:0; stroke-width: 2; stroke: #3c3d3d" cx="931" cy="31" rx="31" ry="31"/>
  </g>
  <text font-size="22.5778" style="fill: #3c3d3d;text-anchor:middle;font-family:sans-serif;font-style:normal;font-weight:normal" x="931" y="38.4956">
    <tspan x="931" y="38.4956">9</tspan>
  </text>
  <g>
    <ellipse style="fill: #00ff00" cx="731" cy="171" rx="31" ry="31"/>
    <ellipse style="fill: none; fill-opacity:0; stroke-width: 2; stroke: #3c3d3d" cx="731" cy="171" rx="31" ry="31"/>
    <ellipse style="fill: none; fill-opacity:0; stroke-width: 2; stroke: #3c3d3d" cx="731" cy="171" rx="31" ry="31"/>
  </g>
  <text font-size="22.5778" style="fill: #3c3d3d;text-anchor:middle;font-family:sans-serif;font-style:normal;font-weight:normal" x="731" y="178.496">
    <tspan x="731" y="178.496">8</tspan>
  </text>
  <g>
    <ellipse style="fill: #00ff00" cx="551" cy="171" rx="31" ry="31"/>
    <ellipse style="fill: none; fill-opacity:0; stroke-width: 2; stroke: #3c3d3d" cx="551" cy="171" rx="31" ry="31"/>
    <ellipse style="fill: none; fill-opacity:0; stroke-width: 2; stroke: #3c3d3d" cx="551" cy="171" rx="31" ry="31"/>
  </g>
  <text font-size="22.5778" style="fill: #3c3d3d;text-anchor:middle;font-family:sans-serif;font-style:normal;font-weight:normal" x="551" y="178.496">
    <tspan x="551" y="178.496">5</tspan>
  </text>
  <g>
    <line style="fill: none; fill-opacity:0; stroke-width: 2; stroke: #3c3d3d" x1="351" y1="-57.0005" x2="351" y2="-11.9995"/>
    <polygon style="fill: #3c3d3d" points="346,-11.9995 351,-1.99951 356,-11.9995 "/>
    <polygon style="fill: none; fill-opacity:0; stroke-width: 2; stroke: #3c3d3d" points="346,-11.9995 351,-1.99951 356,-11.9995 "/>
  </g>
  <g>
    <line style="fill: none; fill-opacity:0; stroke-width: 2; stroke: #3c3d3d" x1="899.005" y1="31" x2="773.995" y2="31"/>
    <polygon style="fill: #3c3d3d" points="773.995,26 763.995,31 773.995,36 "/>
    <polygon style="fill: none; fill-opacity:0; stroke-width: 2; stroke: #3c3d3d" points="773.995,26 763.995,31 773.995,36 "/>
  </g>
  <g>
    <line style="fill: none; fill-opacity:0; stroke-width: 2; stroke: #3c3d3d" x1="380.982" y1="168.475" x2="508.02" y2="170.362"/>
    <polygon style="fill: #3c3d3d" points="507.945,175.361 518.018,170.51 508.094,165.362 "/>
    <polygon style="fill: none; fill-opacity:0; stroke-width: 2; stroke: #3c3d3d" points="507.945,175.361 518.018,170.51 508.094,165.362 "/>
  </g>
  <g>
    <line style="fill: none; fill-opacity:0; stroke-width: 2; stroke: #3c3d3d" x1="382.995" y1="31" x2="508.005" y2="31"/>
    <polygon style="fill: #3c3d3d" points="508.005,36 518.005,31 508.005,26 "/>
    <polygon style="fill: none; fill-opacity:0; stroke-width: 2; stroke: #3c3d3d" points="508.005,36 518.005,31 508.005,26 "/>
  </g>
  <g>
    <line style="fill: none; fill-opacity:0; stroke-width: 2; stroke: #3c3d3d" x1="382.995" y1="-89" x2="508.005" y2="-89"/>
    <polygon style="fill: #3c3d3d" points="508.005,-84 518.005,-89 508.005,-94 "/>
    <polygon style="fill: none; fill-opacity:0; stroke-width: 2; stroke: #3c3d3d" points="508.005,-84 518.005,-89 508.005,-94 "/>
  </g>
  <g>
    <line style="fill: none; fill-opacity:0; stroke-width: 2; stroke: #3c3d3d" x1="704.413" y1="-71.2754" x2="586.739" y2="7.17369"/>
    <polygon style="fill: #3c3d3d" points="583.966,3.01344 578.419,12.7207 589.513,11.3339 "/>
    <polygon style="fill: none; fill-opacity:0; stroke-width: 2; stroke: #3c3d3d" points="583.966,3.01344 578.419,12.7207 589.513,11.3339 "/>
  </g>
  <text font-size="12.8" style="fill: #3c3d3d;text-anchor:start;font-family:sans-serif;font-style:normal;font-weight:normal" x="351" y="31">
    <tspan x="351" y="31"></tspan>
  </text>
  <text font-size="12.8" style="fill: #3c3d3d;text-anchor:start;font-family:sans-serif;font-style:normal;font-weight:normal" x="347.6" y="171.95">
    <tspan x="347.6" y="171.95"></tspan>
  </text>
  <text font-size="12.8" style="fill: #3c3d3d;text-anchor:start;font-family:sans-serif;font-style:normal;font-weight:normal" x="924.4" y="50.55">
    <tspan x="924.4" y="50.55"></tspan>
  </text>
  <text font-size="12.8" style="fill: #3c3d3d;text-anchor:start;font-family:sans-serif;font-style:normal;font-weight:normal" x="731" y="171">
    <tspan x="731" y="171"></tspan>
  </text>
  <text font-size="12.8" style="fill: #3c3d3d;text-anchor:start;font-family:sans-serif;font-style:normal;font-weight:normal" x="584" y="335.25">
    <tspan x="584" y="335.25"></tspan>
  </text>
  <text font-size="12.8" style="fill: #3c3d3d;text-anchor:start;font-family:sans-serif;font-style:normal;font-weight:normal" x="576.8" y="332.35">
    <tspan x="576.8" y="332.35"></tspan>
  </text>
  <g>
    <ellipse style="fill: #00ff00" cx="551" cy="-89" rx="31" ry="31"/>
    <ellipse style="fill: none; fill-opacity:0; stroke-width: 2; stroke: #3c3d3d" cx="551" cy="-89" rx="31" ry="31"/>
    <ellipse style="fill: none; fill-opacity:0; stroke-width: 2; stroke: #3c3d3d" cx="551" cy="-89" rx="31" ry="31"/>
  </g>
  <text font-size="22.5778" style="fill: #3c3d3d;text-anchor:middle;font-family:sans-serif;font-style:normal;font-weight:normal" x="551" y="-81.5044">
    <tspan x="551" y="-81.5044">3</tspan>
  </text>
  <text font-size="12.8" style="fill: #3c3d3d;text-anchor:start;font-family:sans-serif;font-style:normal;font-weight:normal" x="725.702" y="334.25">
    <tspan x="725.702" y="334.25"></tspan>
  </text>
  <text font-size="12.8" style="fill: #3c3d3d;text-anchor:start;font-family:sans-serif;font-style:normal;font-weight:normal" x="551" y="-89">
    <tspan x="551" y="-89"></tspan>
  </text>
  <text font-size="12.8" style="fill: #3c3d3d;text-anchor:start;font-family:sans-serif;font-style:normal;font-weight:normal" x="551" y="-89">
    <tspan x="551" y="-89"></tspan>
  </text>
  <g>
    <line style="fill: none; fill-opacity:0; stroke-width: 2; stroke: #3c3d3d" x1="531.249" y1="-63.871" x2="375.549" y2="134.223"/>
    <polygon style="fill: #3c3d3d" points="371.618,131.133 369.369,142.085 379.48,137.312 "/>
    <polygon style="fill: none; fill-opacity:0; stroke-width: 2; stroke: #3c3d3d" points="371.618,131.133 369.369,142.085 379.48,137.312 "/>
  </g>
  <text font-size="12.8" style="fill: #3c3d3d;text-anchor:start;font-family:sans-serif;font-style:normal;font-weight:normal" x="579.702" y="339.25">
    <tspan x="579.702" y="339.25"></tspan>
  </text>
  <text font-size="12.8" style="fill: #3c3d3d;text-anchor:start;font-family:sans-serif;font-style:normal;font-weight:normal" x="348.702" y="-82.75">
    <tspan x="348.702" y="-82.75"></tspan>
  </text>
  <text font-size="12.8" style="fill: #3c3d3d;text-anchor:start;font-family:sans-serif;font-style:normal;font-weight:normal" x="343.902" y="33.15">
    <tspan x="343.902" y="33.15"></tspan>
  </text>
  <text font-size="12.8" style="fill: #3c3d3d;text-anchor:start;font-family:sans-serif;font-style:normal;font-weight:normal" x="351" y="31">
    <tspan x="351" y="31"></tspan>
  </text>
  <text font-size="12.8" style="fill: #3c3d3d;text-anchor:start;font-family:sans-serif;font-style:normal;font-weight:normal" x="548.502" y="35.85">
    <tspan x="548.502" y="35.85"></tspan>
  </text>
  <text font-size="12.8" style="fill: #3c3d3d;text-anchor:start;font-family:sans-serif;font-style:normal;font-weight:normal" x="351" y="31">
    <tspan x="351" y="31"></tspan>
  </text>
  <text font-size="12.8" style="fill: #3c3d3d;text-anchor:start;font-family:sans-serif;font-style:normal;font-weight:normal" x="557.502" y="172.35">
    <tspan x="557.502" y="172.35"></tspan>
  </text>
  <g>
    <line style="fill: none; fill-opacity:0; stroke-width: 2; stroke: #3c3d3d" x1="576.247" y1="151.364" x2="697.071" y2="57.3896"/>
    <polygon style="fill: #3c3d3d" points="700.14,61.3363 704.964,51.2502 694.001,53.4428 "/>
    <polygon style="fill: none; fill-opacity:0; stroke-width: 2; stroke: #3c3d3d" points="700.14,61.3363 704.964,51.2502 694.001,53.4428 "/>
  </g>
  <g>
    <line style="fill: none; fill-opacity:0; stroke-width: 2; stroke: #3c3d3d" x1="583.003" y1="171" x2="687.997" y2="171"/>
    <polygon style="fill: #3c3d3d" points="687.997,176 697.997,171 687.997,166 "/>
    <polygon style="fill: none; fill-opacity:0; stroke-width: 2; stroke: #3c3d3d" points="687.997,176 697.997,171 687.997,166 "/>
  </g>
  <g>
    <line style="fill: none; fill-opacity:0; stroke-width: 2; stroke: #3c3d3d" x1="904.804" y1="49.3374" x2="766.208" y2="146.355"/>
    <polygon style="fill: #3c3d3d" points="763.341,142.258 758.016,152.089 769.075,150.451 "/>
    <polygon style="fill: none; fill-opacity:0; stroke-width: 2; stroke: #3c3d3d" points="763.341,142.258 758.016,152.089 769.075,150.451 "/>
  </g>
  <g>
    <line style="fill: none; fill-opacity:0; stroke-width: 2; stroke: #3c3d3d" x1="731" y1="-57.0005" x2="731" y2="-11.9995"/>
    <polygon style="fill: #3c3d3d" points="726,-11.9995 731,-1.99951 736,-11.9995 "/>
    <polygon style="fill: none; fill-opacity:0; stroke-width: 2; stroke: #3c3d3d" points="726,-11.9995 731,-1.99951 736,-11.9995 "/>
  </g>
  <text font-size="12.7998" style="fill: #3c3d3d;text-anchor:start;font-family:sans-serif;font-style:normal;font-weight:normal" x="340" y="-80">
    <tspan x="340" y="-80"></tspan>
  </text>
</svg>
