<?xml version="1.0" encoding="UTF-8" standalone="no"?>
<!DOCTYPE svg PUBLIC "-//W3C//DTD SVG 1.0//EN" "http://www.w3.org/TR/2001/PR-SVG-20010719/DTD/svg10.dtd">
<svg width="30cm" height="22cm" viewBox="198 -442 585 425" xmlns="http://www.w3.org/2000/svg" xmlns:xlink="http://www.w3.org/1999/xlink">
  <g>
    <ellipse style="fill: #00ff00" cx="231" cy="-229" rx="31" ry="31"/>
    <ellipse style="fill: none; fill-opacity:0; stroke-width: 2; stroke: #3c3d3d" cx="231" cy="-229" rx="31" ry="31"/>
    <ellipse style="fill: none; fill-opacity:0; stroke-width: 2; stroke: #3c3d3d" cx="231" cy="-229" rx="31" ry="31"/>
  </g>
  <text font-size="22.5778" style="fill: #3c3d3d;text-anchor:middle;font-family:sans-serif;font-style:normal;font-weight:normal" x="231" y="-221.504">
    <tspan x="231" y="-221.504">1</tspan>
  </text>
  <text font-size="12.8" style="fill: #3c3d3d;text-anchor:start;font-family:sans-serif;font-style:normal;font-weight:normal" x="228.702" y="-222.75">
    <tspan x="228.702" y="-222.75"></tspan>
  </text>
  <g>
    <ellipse style="fill: #00ff00" cx="431" cy="-409" rx="31" ry="31"/>
    <ellipse style="fill: none; fill-opacity:0; stroke-width: 2; stroke: #3c3d3d" cx="431" cy="-409" rx="31" ry="31"/>
    <ellipse style="fill: none; fill-opacity:0; stroke-width: 2; stroke: #3c3d3d" cx="431" cy="-409" rx="31" ry="31"/>
  </g>
  <text font-size="22.5778" style="fill: #3c3d3d;text-anchor:middle;font-family:sans-serif;font-style:normal;font-weight:normal" x="431" y="-401.504">
    <tspan x="431" y="-401.504">2</tspan>
  </text>
  <text font-size="12.8" style="fill: #3c3d3d;text-anchor:start;font-family:sans-serif;font-style:normal;font-weight:normal" x="428.702" y="-402.75">
    <tspan x="428.702" y="-402.75"></tspan>
  </text>
  <g>
    <ellipse style="fill: #00ff00" cx="431" cy="-289" rx="31" ry="31"/>
    <ellipse style="fill: none; fill-opacity:0; stroke-width: 2; stroke: #3c3d3d" cx="431" cy="-289" rx="31" ry="31"/>
    <ellipse style="fill: none; fill-opacity:0; stroke-width: 2; stroke: #3c3d3d" cx="431" cy="-289" rx="31" ry="31"/>
  </g>
  <text font-size="22.5778" style="fill: #3c3d3d;text-anchor:middle;font-family:sans-serif;font-style:normal;font-weight:normal" x="431" y="-281.504">
    <tspan x="431" y="-281.504">3</tspan>
  </text>
  <text font-size="12.8" style="fill: #3c3d3d;text-anchor:start;font-family:sans-serif;font-style:normal;font-weight:normal" x="428.702" y="-282.75">
    <tspan x="428.702" y="-282.75"></tspan>
  </text>
  <g>
    <ellipse style="fill: #00ff00" cx="431" cy="-169" rx="31" ry="31"/>
    <ellipse style="fill: none; fill-opacity:0; stroke-width: 2; stroke: #3c3d3d" cx="431" cy="-169" rx="31" ry="31"/>
    <ellipse style="fill: none; fill-opacity:0; stroke-width: 2; stroke: #3c3d3d" cx="431" cy="-169" rx="31" ry="31"/>
  </g>
  <text font-size="22.5778" style="fill: #3c3d3d;text-anchor:middle;font-family:sans-serif;font-style:normal;font-weight:normal" x="431" y="-161.504">
    <tspan x="431" y="-161.504">4</tspan>
  </text>
  <text font-size="12.8" style="fill: #3c3d3d;text-anchor:start;font-family:sans-serif;font-style:normal;font-weight:normal" x="428.702" y="-162.75">
    <tspan x="428.702" y="-162.75"></tspan>
  </text>
  <g>
    <ellipse style="fill: #00ff00" cx="431" cy="-49" rx="31" ry="31"/>
    <ellipse style="fill: none; fill-opacity:0; stroke-width: 2; stroke: #3c3d3d" cx="431" cy="-49" rx="31" ry="31"/>
    <ellipse style="fill: none; fill-opacity:0; stroke-width: 2; stroke: #3c3d3d" cx="431" cy="-49" rx="31" ry="31"/>
  </g>
  <text font-size="22.5778" style="fill: #3c3d3d;text-anchor:middle;font-family:sans-serif;font-style:normal;font-weight:normal" x="431" y="-41.5044">
    <tspan x="431" y="-41.5044">5</tspan>
  </text>
  <text font-size="12.8" style="fill: #3c3d3d;text-anchor:start;font-family:sans-serif;font-style:normal;font-weight:normal" x="428.702" y="-42.75">
    <tspan x="428.702" y="-42.75"></tspan>
  </text>
  <g>
    <ellipse style="fill: #00ff00" cx="591" cy="-409" rx="31" ry="31"/>
    <ellipse style="fill: none; fill-opacity:0; stroke-width: 2; stroke: #3c3d3d" cx="591" cy="-409" rx="31" ry="31"/>
    <ellipse style="fill: none; fill-opacity:0; stroke-width: 2; stroke: #3c3d3d" cx="591" cy="-409" rx="31" ry="31"/>
  </g>
  <text font-size="22.5778" style="fill: #3c3d3d;text-anchor:middle;font-family:sans-serif;font-style:normal;font-weight:normal" x="591" y="-401.504">
    <tspan x="591" y="-401.504">6</tspan>
  </text>
  <text font-size="12.8" style="fill: #3c3d3d;text-anchor:start;font-family:sans-serif;font-style:normal;font-weight:normal" x="588.702" y="-402.75">
    <tspan x="588.702" y="-402.75"></tspan>
  </text>
  <g>
    <ellipse style="fill: #00ff00" cx="751" cy="-409" rx="31" ry="31"/>
    <ellipse style="fill: none; fill-opacity:0; stroke-width: 2; stroke: #3c3d3d" cx="751" cy="-409" rx="31" ry="31"/>
    <ellipse style="fill: none; fill-opacity:0; stroke-width: 2; stroke: #3c3d3d" cx="751" cy="-409" rx="31" ry="31"/>
  </g>
  <text font-size="22.5778" style="fill: #3c3d3d;text-anchor:middle;font-family:sans-serif;font-style:normal;font-weight:normal" x="751" y="-401.504">
    <tspan x="751" y="-401.504">8</tspan>
  </text>
  <text font-size="12.8" style="fill: #3c3d3d;text-anchor:start;font-family:sans-serif;font-style:normal;font-weight:normal" x="748.702" y="-402.75">
    <tspan x="748.702" y="-402.75"></tspan>
  </text>
  <g>
    <ellipse style="fill: #00ff00" cx="591" cy="-169" rx="31" ry="31"/>
    <ellipse style="fill: none; fill-opacity:0; stroke-width: 2; stroke: #3c3d3d" cx="591" cy="-169" rx="31" ry="31"/>
    <ellipse style="fill: none; fill-opacity:0; stroke-width: 2; stroke: #3c3d3d" cx="591" cy="-169" rx="31" ry="31"/>
  </g>
  <text font-size="22.5778" style="fill: #3c3d3d;text-anchor:middle;font-family:sans-serif;font-style:normal;font-weight:normal" x="591" y="-161.504">
    <tspan x="591" y="-161.504">7</tspan>
  </text>
  <text font-size="12.8" style="fill: #3c3d3d;text-anchor:start;font-family:sans-serif;font-style:normal;font-weight:normal" x="588.702" y="-162.75">
    <tspan x="588.702" y="-162.75"></tspan>
  </text>
  <g>
    <ellipse style="fill: #00ff00" cx="751" cy="-169" rx="31" ry="31"/>
    <ellipse style="fill: none; fill-opacity:0; stroke-width: 2; stroke: #3c3d3d" cx="751" cy="-169" rx="31" ry="31"/>
    <ellipse style="fill: none; fill-opacity:0; stroke-width: 2; stroke: #3c3d3d" cx="751" cy="-169" rx="31" ry="31"/>
  </g>
  <text font-size="22.5778" style="fill: #3c3d3d;text-anchor:middle;font-family:sans-serif;font-style:normal;font-weight:normal" x="751" y="-161.504">
    <tspan x="751" y="-161.504">9</tspan>
  </text>
  <text font-size="12.8" style="fill: #3c3d3d;text-anchor:start;font-family:sans-serif;font-style:normal;font-weight:normal" x="748.702" y="-162.75">
    <tspan x="748.702" y="-162.75"></tspan>
  </text>
  <line style="fill: none; fill-opacity:0; stroke-width: 2; stroke: #3c3d3d" x1="254.785" y1="-250.407" x2="407.215" y2="-387.593"/>
  <line style="fill: none; fill-opacity:0; stroke-width: 2; stroke: #3c3d3d" x1="261.566" y1="-238.17" x2="400.434" y2="-279.83"/>
  <line style="fill: none; fill-opacity:0; stroke-width: 2; stroke: #3c3d3d" x1="261.566" y1="-219.83" x2="400.434" y2="-178.17"/>
  <line style="fill: none; fill-opacity:0; stroke-width: 2; stroke: #3c3d3d" x1="254.785" y1="-207.593" x2="407.215" y2="-70.4069"/>
  <line style="fill: none; fill-opacity:0; stroke-width: 2; stroke: #3c3d3d" x1="463.002" y1="-409" x2="558.998" y2="-409"/>
  <line style="fill: none; fill-opacity:0; stroke-width: 2; stroke: #3c3d3d" x1="623.002" y1="-409" x2="718.998" y2="-409"/>
  <line style="fill: none; fill-opacity:0; stroke-width: 2; stroke: #3c3d3d" x1="463.002" y1="-169" x2="558.998" y2="-169"/>
  <line style="fill: none; fill-opacity:0; stroke-width: 2; stroke: #3c3d3d" x1="623.002" y1="-169" x2="718.998" y2="-169"/>
  <text font-size="12.7998" style="fill: #3c3d3d;text-anchor:start;font-family:sans-serif;font-style:normal;font-weight:normal" x="240" y="-220">
    <tspan x="240" y="-220"></tspan>
  </text>
</svg>
