<?xml version="1.0" encoding="UTF-8" standalone="no"?>
<!DOCTYPE svg PUBLIC "-//W3C//DTD SVG 1.0//EN" "http://www.w3.org/TR/2001/PR-SVG-20010719/DTD/svg10.dtd">
<svg width="43cm" height="22cm" viewBox="181 -31 847 429" xmlns="http://www.w3.org/2000/svg" xmlns:xlink="http://www.w3.org/1999/xlink">
  <g>
    <ellipse style="fill: #00ff00" cx="660" cy="2" rx="31" ry="31"/>
    <ellipse style="fill: none; fill-opacity:0; stroke-width: 2; stroke: #3c3d3d" cx="660" cy="2" rx="31" ry="31"/>
    <ellipse style="fill: none; fill-opacity:0; stroke-width: 2; stroke: #3c3d3d" cx="660" cy="2" rx="31" ry="31"/>
  </g>
  <text font-size="22.5778" style="fill: #3c3d3d;text-anchor:middle;font-family:sans-serif;font-style:normal;font-weight:normal" x="660" y="9.49562">
    <tspan x="660" y="9.49562">13</tspan>
  </text>
  <g>
    <ellipse style="fill: #00ff00" cx="416.8" cy="99.1" rx="31" ry="31"/>
    <ellipse style="fill: none; fill-opacity:0; stroke-width: 2; stroke: #3c3d3d" cx="416.8" cy="99.1" rx="31" ry="31"/>
    <ellipse style="fill: none; fill-opacity:0; stroke-width: 2; stroke: #3c3d3d" cx="416.8" cy="99.1" rx="31" ry="31"/>
  </g>
  <text font-size="22.5778" style="fill: #3c3d3d;text-anchor:middle;font-family:sans-serif;font-style:normal;font-weight:normal" x="416.8" y="106.596">
    <tspan x="416.8" y="106.596">12</tspan>
  </text>
  <g>
    <ellipse style="fill: #00ff00" cx="891.6" cy="101.2" rx="31" ry="31"/>
    <ellipse style="fill: none; fill-opacity:0; stroke-width: 2; stroke: #3c3d3d" cx="891.6" cy="101.2" rx="31" ry="31"/>
    <ellipse style="fill: none; fill-opacity:0; stroke-width: 2; stroke: #3c3d3d" cx="891.6" cy="101.2" rx="31" ry="31"/>
  </g>
  <text font-size="22.5778" style="fill: #3c3d3d;text-anchor:middle;font-family:sans-serif;font-style:normal;font-weight:normal" x="891.6" y="108.696">
    <tspan x="891.6" y="108.696">5</tspan>
  </text>
  <g>
    <ellipse style="fill: #00ff00" cx="301.4" cy="209.3" rx="31" ry="31"/>
    <ellipse style="fill: none; fill-opacity:0; stroke-width: 2; stroke: #3c3d3d" cx="301.4" cy="209.3" rx="31" ry="31"/>
    <ellipse style="fill: none; fill-opacity:0; stroke-width: 2; stroke: #3c3d3d" cx="301.4" cy="209.3" rx="31" ry="31"/>
  </g>
  <text font-size="22.5778" style="fill: #3c3d3d;text-anchor:middle;font-family:sans-serif;font-style:normal;font-weight:normal" x="301.4" y="216.796">
    <tspan x="301.4" y="216.796">7</tspan>
  </text>
  <g>
    <ellipse style="fill: #00ff00" cx="517.2" cy="211.4" rx="31" ry="31"/>
    <ellipse style="fill: none; fill-opacity:0; stroke-width: 2; stroke: #3c3d3d" cx="517.2" cy="211.4" rx="31" ry="31"/>
    <ellipse style="fill: none; fill-opacity:0; stroke-width: 2; stroke: #3c3d3d" cx="517.2" cy="211.4" rx="31" ry="31"/>
  </g>
  <text font-size="22.5778" style="fill: #3c3d3d;text-anchor:middle;font-family:sans-serif;font-style:normal;font-weight:normal" x="517.2" y="218.896">
    <tspan x="517.2" y="218.896">9</tspan>
  </text>
  <g>
    <ellipse style="fill: #00ff00" cx="787" cy="205.5" rx="31" ry="31"/>
    <ellipse style="fill: none; fill-opacity:0; stroke-width: 2; stroke: #3c3d3d" cx="787" cy="205.5" rx="31" ry="31"/>
    <ellipse style="fill: none; fill-opacity:0; stroke-width: 2; stroke: #3c3d3d" cx="787" cy="205.5" rx="31" ry="31"/>
  </g>
  <text font-size="22.5778" style="fill: #3c3d3d;text-anchor:middle;font-family:sans-serif;font-style:normal;font-weight:normal" x="787" y="212.996">
    <tspan x="787" y="212.996">2</tspan>
  </text>
  <g>
    <ellipse style="fill: #00ff00" cx="995.8" cy="199.6" rx="31" ry="31"/>
    <ellipse style="fill: none; fill-opacity:0; stroke-width: 2; stroke: #3c3d3d" cx="995.8" cy="199.6" rx="31" ry="31"/>
    <ellipse style="fill: none; fill-opacity:0; stroke-width: 2; stroke: #3c3d3d" cx="995.8" cy="199.6" rx="31" ry="31"/>
  </g>
  <text font-size="22.5778" style="fill: #3c3d3d;text-anchor:middle;font-family:sans-serif;font-style:normal;font-weight:normal" x="995.8" y="207.096">
    <tspan x="995.8" y="207.096">3</tspan>
  </text>
  <g>
    <ellipse style="fill: #00ff00" cx="213.6" cy="326.7" rx="31" ry="31"/>
    <ellipse style="fill: none; fill-opacity:0; stroke-width: 2; stroke: #3c3d3d" cx="213.6" cy="326.7" rx="31" ry="31"/>
    <ellipse style="fill: none; fill-opacity:0; stroke-width: 2; stroke: #3c3d3d" cx="213.6" cy="326.7" rx="31" ry="31"/>
  </g>
  <text font-size="22.5778" style="fill: #3c3d3d;text-anchor:middle;font-family:sans-serif;font-style:normal;font-weight:normal" x="213.6" y="334.196">
    <tspan x="213.6" y="334.196">1</tspan>
  </text>
  <g>
    <ellipse style="fill: #00ff00" cx="349.4" cy="328.8" rx="31" ry="31"/>
    <ellipse style="fill: none; fill-opacity:0; stroke-width: 2; stroke: #3c3d3d" cx="349.4" cy="328.8" rx="31" ry="31"/>
    <ellipse style="fill: none; fill-opacity:0; stroke-width: 2; stroke: #3c3d3d" cx="349.4" cy="328.8" rx="31" ry="31"/>
  </g>
  <text font-size="22.5778" style="fill: #3c3d3d;text-anchor:middle;font-family:sans-serif;font-style:normal;font-weight:normal" x="349.4" y="336.296">
    <tspan x="349.4" y="336.296">6</tspan>
  </text>
  <g>
    <ellipse style="fill: #00ff00" cx="961.2" cy="366.9" rx="31" ry="31"/>
    <ellipse style="fill: none; fill-opacity:0; stroke-width: 2; stroke: #3c3d3d" cx="961.2" cy="366.9" rx="31" ry="31"/>
    <ellipse style="fill: none; fill-opacity:0; stroke-width: 2; stroke: #3c3d3d" cx="961.2" cy="366.9" rx="31" ry="31"/>
  </g>
  <text font-size="22.5778" style="fill: #3c3d3d;text-anchor:middle;font-family:sans-serif;font-style:normal;font-weight:normal" x="961.2" y="374.725">
    <tspan x="961.2" y="374.725">14</tspan>
  </text>
  <g>
    <line style="fill: none; fill-opacity:0; stroke-width: 2; stroke: #3c3d3d" x1="630.275" y1="13.8678" x2="456.74" y2="83.1534"/>
    <polygon style="fill: #3c3d3d" points="454.886,78.5098 447.453,86.8614 458.594,87.7969 "/>
    <polygon style="fill: none; fill-opacity:0; stroke-width: 2; stroke: #3c3d3d" points="454.886,78.5098 447.453,86.8614 458.594,87.7969 "/>
  </g>
  <g>
    <line style="fill: none; fill-opacity:0; stroke-width: 2; stroke: #3c3d3d" x1="393.662" y1="121.195" x2="332.493" y2="179.608"/>
    <polygon style="fill: #3c3d3d" points="329.04,175.992 325.261,186.514 335.946,183.224 "/>
    <polygon style="fill: none; fill-opacity:0; stroke-width: 2; stroke: #3c3d3d" points="329.04,175.992 325.261,186.514 335.946,183.224 "/>
  </g>
  <g>
    <line style="fill: none; fill-opacity:0; stroke-width: 2; stroke: #3c3d3d" x1="282.231" y1="234.931" x2="239.357" y2="292.26"/>
    <polygon style="fill: #3c3d3d" points="235.353,289.265 233.368,300.268 243.361,295.254 "/>
    <polygon style="fill: none; fill-opacity:0; stroke-width: 2; stroke: #3c3d3d" points="235.353,289.265 233.368,300.268 243.361,295.254 "/>
  </g>
  <g>
    <line style="fill: none; fill-opacity:0; stroke-width: 2; stroke: #3c3d3d" x1="313.318" y1="238.971" x2="333.382" y2="288.922"/>
    <polygon style="fill: #3c3d3d" points="328.742,290.786 337.109,298.201 338.022,287.058 "/>
    <polygon style="fill: none; fill-opacity:0; stroke-width: 2; stroke: #3c3d3d" points="328.742,290.786 337.109,298.201 338.022,287.058 "/>
  </g>
  <g>
    <line style="fill: none; fill-opacity:0; stroke-width: 2; stroke: #3c3d3d" x1="438.131" y1="122.96" x2="488.537" y2="179.34"/>
    <polygon style="fill: #3c3d3d" points="484.81,182.672 495.202,186.795 492.265,176.007 "/>
    <polygon style="fill: none; fill-opacity:0; stroke-width: 2; stroke: #3c3d3d" points="484.81,182.672 495.202,186.795 492.265,176.007 "/>
  </g>
  <g>
    <line style="fill: none; fill-opacity:0; stroke-width: 2; stroke: #3c3d3d" x1="689.416" y1="14.5998" x2="852.072" y2="84.2692"/>
    <polygon style="fill: #3c3d3d" points="850.103,88.8653 861.264,88.2065 854.041,79.6731 "/>
    <polygon style="fill: none; fill-opacity:0; stroke-width: 2; stroke: #3c3d3d" points="850.103,88.8653 861.264,88.2065 854.041,79.6731 "/>
  </g>
  <g>
    <line style="fill: none; fill-opacity:0; stroke-width: 2; stroke: #3c3d3d" x1="914.864" y1="123.169" x2="964.538" y2="170.078"/>
    <polygon style="fill: #3c3d3d" points="961.105,173.713 971.809,176.944 967.971,166.443 "/>
    <polygon style="fill: none; fill-opacity:0; stroke-width: 2; stroke: #3c3d3d" points="961.105,173.713 971.809,176.944 967.971,166.443 "/>
  </g>
  <g>
    <line style="fill: none; fill-opacity:0; stroke-width: 2; stroke: #3c3d3d" x1="868.942" y1="123.793" x2="817.447" y2="175.14"/>
    <polygon style="fill: #3c3d3d" points="813.917,171.6 810.366,182.201 820.978,178.681 "/>
    <polygon style="fill: none; fill-opacity:0; stroke-width: 2; stroke: #3c3d3d" points="813.917,171.6 810.366,182.201 820.978,178.681 "/>
  </g>
  <text font-size="12.8" style="fill: #3c3d3d;text-anchor:start;font-family:sans-serif;font-style:normal;font-weight:normal" x="416.8" y="99.1">
    <tspan x="416.8" y="99.1"></tspan>
  </text>
  <text font-size="12.8" style="fill: #3c3d3d;text-anchor:start;font-family:sans-serif;font-style:normal;font-weight:normal" x="300" y="213.25">
    <tspan x="300" y="213.25"></tspan>
  </text>
  <text font-size="12.8" style="fill: #3c3d3d;text-anchor:start;font-family:sans-serif;font-style:normal;font-weight:normal" x="207" y="326.25">
    <tspan x="207" y="326.25"></tspan>
  </text>
  <text font-size="12.8" style="fill: #3c3d3d;text-anchor:start;font-family:sans-serif;font-style:normal;font-weight:normal" x="349.4" y="328.8">
    <tspan x="349.4" y="328.8"></tspan>
  </text>
  <text font-size="12.8" style="fill: #3c3d3d;text-anchor:start;font-family:sans-serif;font-style:normal;font-weight:normal" x="584" y="335.25">
    <tspan x="584" y="335.25"></tspan>
  </text>
  <text font-size="12.8" style="fill: #3c3d3d;text-anchor:start;font-family:sans-serif;font-style:normal;font-weight:normal" x="576.8" y="332.35">
    <tspan x="576.8" y="332.35"></tspan>
  </text>
  <text font-size="12.8" style="fill: #3c3d3d;text-anchor:start;font-family:sans-serif;font-style:normal;font-weight:normal" x="725.702" y="334.25">
    <tspan x="725.702" y="334.25"></tspan>
  </text>
  <text font-size="12.8" style="fill: #3c3d3d;text-anchor:start;font-family:sans-serif;font-style:normal;font-weight:normal" x="718.502" y="331.35">
    <tspan x="718.502" y="331.35"></tspan>
  </text>
  <text font-size="12.8" style="fill: #3c3d3d;text-anchor:start;font-family:sans-serif;font-style:normal;font-weight:normal" x="718.502" y="331.35">
    <tspan x="718.502" y="331.35"></tspan>
  </text>
  <text font-size="12.7998" style="fill: #3c3d3d;text-anchor:start;font-family:sans-serif;font-style:normal;font-weight:normal" x="653" y="3.25">
    <tspan x="653" y="3.25"></tspan>
  </text>
  <text font-size="12.7998" style="fill: #3c3d3d;text-anchor:start;font-family:sans-serif;font-style:normal;font-weight:normal" x="652" y="4.25">
    <tspan x="652" y="4.25"></tspan>
  </text>
  <text font-size="12.7998" style="fill: #3c3d3d;text-anchor:start;font-family:sans-serif;font-style:normal;font-weight:normal" x="660" y="2">
    <tspan x="660" y="2"></tspan>
  </text>
</svg>
