<?xml version="1.0" encoding="UTF-8" standalone="no"?>
<!DOCTYPE svg PUBLIC "-//W3C//DTD SVG 1.0//EN" "http://www.w3.org/TR/2001/PR-SVG-20010719/DTD/svg10.dtd">
<svg width="60cm" height="4cm" viewBox="252 198 1196 67" xmlns="http://www.w3.org/2000/svg" xmlns:xlink="http://www.w3.org/1999/xlink">
  <g>
    <rect style="fill: #52e5dc" x="399" y="200" width="102" height="62"/>
    <rect style="fill: none; fill-opacity:0; stroke-width: 2; stroke: #3c3d3d" x="399" y="200" width="102" height="62"/>
  </g>
  <g>
    <rect style="fill: #ff8215" x="499.8" y="200.1" width="102" height="62"/>
    <rect style="fill: none; fill-opacity:0; stroke-width: 2; stroke: #3c3d3d" x="499.8" y="200.1" width="102" height="62"/>
  </g>
  <text font-size="22.5774" style="fill: #3c3d3d;text-anchor:middle;font-family:sans-serif;font-style:normal;font-weight:normal" x="450" y="238.496">
    <tspan x="450" y="238.496">45</tspan>
  </text>
  <text font-size="12.7998" style="fill: #3c3d3d;text-anchor:start;font-family:sans-serif;font-style:normal;font-weight:normal" x="455.189" y="233.997">
    <tspan x="455.189" y="233.997"></tspan>
  </text>
  <g>
    <line style="fill: none; fill-opacity:0; stroke-width: 2; stroke: #3c3d3d" x1="601.8" y1="231.1" x2="654.2" y2="230.572"/>
    <polygon style="fill: #3c3d3d" points="654.25,235.572 664.199,230.471 654.15,225.572 "/>
    <polygon style="fill: none; fill-opacity:0; stroke-width: 2; stroke: #3c3d3d" points="654.25,235.572 664.199,230.471 654.15,225.572 "/>
  </g>
  <g>
    <rect style="fill: #52e5dc" x="666.765" y="200.419" width="102" height="62"/>
    <rect style="fill: none; fill-opacity:0; stroke-width: 2; stroke: #3c3d3d" x="666.765" y="200.419" width="102" height="62"/>
  </g>
  <g>
    <rect style="fill: #ff8215" x="767.565" y="200.519" width="102" height="62"/>
    <rect style="fill: none; fill-opacity:0; stroke-width: 2; stroke: #3c3d3d" x="767.565" y="200.519" width="102" height="62"/>
  </g>
  <text font-size="22.5774" style="fill: #3c3d3d;text-anchor:middle;font-family:sans-serif;font-style:normal;font-weight:normal" x="717.765" y="238.915">
    <tspan x="717.765" y="238.915">65</tspan>
  </text>
  <text font-size="12.7998" style="fill: #3c3d3d;text-anchor:start;font-family:sans-serif;font-style:normal;font-weight:normal" x="722.954" y="234.416">
    <tspan x="722.954" y="234.416"></tspan>
  </text>
  <g>
    <line style="fill: none; fill-opacity:0; stroke-width: 2; stroke: #3c3d3d" x1="869.565" y1="231.519" x2="921.965" y2="230.991"/>
    <polygon style="fill: #3c3d3d" points="922.015,235.991 931.964,230.89 921.915,225.991 "/>
    <polygon style="fill: none; fill-opacity:0; stroke-width: 2; stroke: #3c3d3d" points="922.015,235.991 931.964,230.89 921.915,225.991 "/>
  </g>
  <g>
    <rect style="fill: #52e5dc" x="933.91" y="199.783" width="102" height="62"/>
    <rect style="fill: none; fill-opacity:0; stroke-width: 2; stroke: #3c3d3d" x="933.91" y="199.783" width="102" height="62"/>
  </g>
  <g>
    <rect style="fill: #ff8215" x="1034.71" y="199.883" width="102" height="62"/>
    <rect style="fill: none; fill-opacity:0; stroke-width: 2; stroke: #3c3d3d" x="1034.71" y="199.883" width="102" height="62"/>
  </g>
  <text font-size="22.5774" style="fill: #3c3d3d;text-anchor:middle;font-family:sans-serif;font-style:normal;font-weight:normal" x="984.91" y="238.278">
    <tspan x="984.91" y="238.278">34</tspan>
  </text>
  <text font-size="12.7998" style="fill: #3c3d3d;text-anchor:start;font-family:sans-serif;font-style:normal;font-weight:normal" x="990.099" y="233.779">
    <tspan x="990.099" y="233.779"></tspan>
  </text>
  <g>
    <line style="fill: none; fill-opacity:0; stroke-width: 2; stroke: #3c3d3d" x1="1136.71" y1="230.883" x2="1189.11" y2="230.354"/>
    <polygon style="fill: #3c3d3d" points="1189.16,235.354 1199.11,230.254 1189.06,225.355 "/>
    <polygon style="fill: none; fill-opacity:0; stroke-width: 2; stroke: #3c3d3d" points="1189.16,235.354 1199.11,230.254 1189.06,225.355 "/>
  </g>
  <g>
    <rect style="fill: #52e5dc" x="1201.05" y="199.146" width="102" height="62"/>
    <rect style="fill: none; fill-opacity:0; stroke-width: 2; stroke: #3c3d3d" x="1201.05" y="199.146" width="102" height="62"/>
  </g>
  <g>
    <rect style="fill: #ff8215" x="1301.85" y="199.246" width="102" height="62"/>
    <rect style="fill: none; fill-opacity:0; stroke-width: 2; stroke: #3c3d3d" x="1301.85" y="199.246" width="102" height="62"/>
  </g>
  <text font-size="22.5774" style="fill: #3c3d3d;text-anchor:middle;font-family:sans-serif;font-style:normal;font-weight:normal" x="1252.05" y="237.642">
    <tspan x="1252.05" y="237.642">76</tspan>
  </text>
  <text font-size="12.7998" style="fill: #3c3d3d;text-anchor:start;font-family:sans-serif;font-style:normal;font-weight:normal" x="1257.24" y="233.143">
    <tspan x="1257.24" y="233.143"></tspan>
  </text>
  <line style="fill: none; fill-opacity:0; stroke-width: 2; stroke: #3c3d3d" x1="1403.85" y1="230.246" x2="1442.07" y2="228.91"/>
  <g>
    <line style="fill: none; fill-opacity:0; stroke-width: 2; stroke: #3c3d3d" x1="1441.15" y1="228.91" x2="1441.15" y2="251.839"/>
    <polygon style="fill: #3c3d3d" points="1436.15,251.839 1441.15,261.839 1446.15,251.839 "/>
    <polygon style="fill: none; fill-opacity:0; stroke-width: 2; stroke: #3c3d3d" points="1436.15,251.839 1441.15,261.839 1446.15,251.839 "/>
  </g>
  <text font-size="12.7998" style="fill: #3c3d3d;text-anchor:start;font-family:sans-serif;font-style:normal;font-weight:normal" x="724.515" y="228.922">
    <tspan x="724.515" y="228.922"></tspan>
  </text>
  <text font-size="12.7998" style="fill: #3c3d3d;text-anchor:start;font-family:sans-serif;font-style:normal;font-weight:normal" x="994.114" y="235.341">
    <tspan x="994.114" y="235.341"></tspan>
  </text>
  <text font-size="12.7998" style="fill: #3c3d3d;text-anchor:start;font-family:sans-serif;font-style:normal;font-weight:normal" x="1253.63" y="233.507">
    <tspan x="1253.63" y="233.507"></tspan>
  </text>
  <g>
    <rect style="fill: #ff8215" x="300.588" y="215.167" width="32.6747" height="33.7639"/>
    <rect style="fill: none; fill-opacity:0; stroke-width: 2; stroke: #3c3d3d" x="300.588" y="215.167" width="32.6747" height="33.7639"/>
    <rect style="fill: none; fill-opacity:0; stroke-width: 2; stroke: #3c3d3d" x="300.588" y="215.167" width="32.6747" height="33.7639"/>
  </g>
  <g>
    <line style="fill: none; fill-opacity:0; stroke-width: 2; stroke: #3c3d3d" x1="332.864" y1="232.492" x2="388.003" y2="231.248"/>
    <polygon style="fill: #3c3d3d" points="388.116,236.247 398,231.023 387.89,226.249 "/>
    <polygon style="fill: none; fill-opacity:0; stroke-width: 2; stroke: #3c3d3d" points="388.116,236.247 398,231.023 387.89,226.249 "/>
  </g>
  <text font-size="16.9331" style="fill: #3c3d3d;text-anchor:start;font-family:sans-serif;font-style:normal;font-weight:normal" x="252.258" y="234.424">
    <tspan x="252.258" y="234.424">head</tspan>
  </text>
</svg>
