<?xml version="1.0" encoding="UTF-8" standalone="no"?>
<!DOCTYPE svg PUBLIC "-//W3C//DTD SVG 1.0//EN" "http://www.w3.org/TR/2001/PR-SVG-20010719/DTD/svg10.dtd">
<svg width="59cm" height="6cm" viewBox="109 105 1161 115" xmlns="http://www.w3.org/2000/svg" xmlns:xlink="http://www.w3.org/1999/xlink">
  <g>
    <rect style="fill: #ff8215" x="165.6" y="185.2" width="32.6747" height="33.7639"/>
    <rect style="fill: none; fill-opacity:0; stroke-width: 2; stroke: #3c3d3d" x="165.6" y="185.2" width="32.6747" height="33.7639"/>
    <rect style="fill: none; fill-opacity:0; stroke-width: 2; stroke: #3c3d3d" x="165.6" y="185.2" width="32.6747" height="33.7639"/>
  </g>
  <text font-size="16.9331" style="fill: #3c3d3d;text-anchor:start;font-family:sans-serif;font-style:normal;font-weight:normal" x="110.6" y="205.95">
    <tspan x="110.6" y="205.95">curr</tspan>
  </text>
  <g>
    <rect style="fill: #52e5dc" x="262.542" y="114.1" width="102" height="62"/>
    <rect style="fill: none; fill-opacity:0; stroke-width: 2; stroke: #3c3d3d" x="262.542" y="114.1" width="102" height="62"/>
  </g>
  <g>
    <rect style="fill: #ff8215" x="363.342" y="114.2" width="102" height="62"/>
    <rect style="fill: none; fill-opacity:0; stroke-width: 2; stroke: #3c3d3d" x="363.342" y="114.2" width="102" height="62"/>
  </g>
  <text font-size="12.7998" style="fill: #3c3d3d;text-anchor:start;font-family:sans-serif;font-style:normal;font-weight:normal" x="318.731" y="148.097">
    <tspan x="318.731" y="148.097"></tspan>
  </text>
  <g>
    <rect style="fill: #ff8215" x="164.129" y="129.267" width="32.6747" height="33.7639"/>
    <rect style="fill: none; fill-opacity:0; stroke-width: 2; stroke: #3c3d3d" x="164.129" y="129.267" width="32.6747" height="33.7639"/>
    <rect style="fill: none; fill-opacity:0; stroke-width: 2; stroke: #3c3d3d" x="164.129" y="129.267" width="32.6747" height="33.7639"/>
  </g>
  <g>
    <line style="fill: none; fill-opacity:0; stroke-width: 2; stroke: #3c3d3d" x1="196.804" y1="146.149" x2="251.543" y2="145.276"/>
    <polygon style="fill: #3c3d3d" points="251.623,150.275 261.542,145.116 251.463,140.276 "/>
    <polygon style="fill: none; fill-opacity:0; stroke-width: 2; stroke: #3c3d3d" points="251.623,150.275 261.542,145.116 251.463,140.276 "/>
  </g>
  <text font-size="16.9331" style="fill: #3c3d3d;text-anchor:start;font-family:sans-serif;font-style:normal;font-weight:normal" x="109.8" y="146.524">
    <tspan x="109.8" y="146.524">head</tspan>
  </text>
  <text font-size="22.5774" style="fill: #3c3d3d;text-anchor:middle;font-family:sans-serif;font-style:normal;font-weight:normal" x="313.542" y="152.925">
    <tspan x="313.542" y="152.925">17</tspan>
  </text>
  <line style="fill: none; fill-opacity:0; stroke-width: 2; stroke: #3c3d3d" x1="198.275" y1="202.082" x2="581.241" y2="202.45"/>
  <g>
    <line style="fill: none; fill-opacity:0; stroke-width: 2; stroke: #3c3d3d" x1="580.821" y1="202.03" x2="581.003" y2="185.345"/>
    <polygon style="fill: #3c3d3d" points="586.003,185.4 581.112,175.346 576.003,185.291 "/>
    <polygon style="fill: none; fill-opacity:0; stroke-width: 2; stroke: #3c3d3d" points="586.003,185.4 581.112,175.346 576.003,185.291 "/>
  </g>
  <g>
    <rect style="fill: #52e5dc" x="530.123" y="112.346" width="102" height="62"/>
    <rect style="fill: none; fill-opacity:0; stroke-width: 2; stroke: #3c3d3d" x="530.123" y="112.346" width="102" height="62"/>
  </g>
  <g>
    <rect style="fill: #ff8215" x="630.923" y="112.446" width="102" height="62"/>
    <rect style="fill: none; fill-opacity:0; stroke-width: 2; stroke: #3c3d3d" x="630.923" y="112.446" width="102" height="62"/>
  </g>
  <text font-size="12.7998" style="fill: #3c3d3d;text-anchor:start;font-family:sans-serif;font-style:normal;font-weight:normal" x="586.312" y="146.342">
    <tspan x="586.312" y="146.342"></tspan>
  </text>
  <g>
    <line style="fill: none; fill-opacity:0; stroke-width: 2; stroke: #3c3d3d" x1="465.342" y1="145.2" x2="519.128" y2="143.661"/>
    <polygon style="fill: #3c3d3d" points="519.271,148.659 529.123,143.375 518.984,138.663 "/>
    <polygon style="fill: none; fill-opacity:0; stroke-width: 2; stroke: #3c3d3d" points="519.271,148.659 529.123,143.375 518.984,138.663 "/>
  </g>
  <text font-size="22.5774" style="fill: #3c3d3d;text-anchor:middle;font-family:sans-serif;font-style:normal;font-weight:normal" x="581.123" y="150.842">
    <tspan x="581.123" y="150.842">10</tspan>
  </text>
  <text font-size="12.7998" style="fill: #3c3d3d;text-anchor:start;font-family:sans-serif;font-style:normal;font-weight:normal" x="581.123" y="143.346">
    <tspan x="581.123" y="143.346"></tspan>
  </text>
  <g>
    <rect style="fill: #52e5dc" x="799.925" y="110.616" width="102" height="62"/>
    <rect style="fill: none; fill-opacity:0; stroke-width: 2; stroke: #3c3d3d" x="799.925" y="110.616" width="102" height="62"/>
  </g>
  <g>
    <rect style="fill: #ff8215" x="899.043" y="109.875" width="102" height="62"/>
    <rect style="fill: none; fill-opacity:0; stroke-width: 2; stroke: #3c3d3d" x="899.043" y="109.875" width="102" height="62"/>
  </g>
  <text font-size="12.7998" style="fill: #3c3d3d;text-anchor:start;font-family:sans-serif;font-style:normal;font-weight:normal" x="854.432" y="143.772">
    <tspan x="854.432" y="143.772"></tspan>
  </text>
  <g>
    <line style="fill: none; fill-opacity:0; stroke-width: 2; stroke: #3c3d3d" x1="732.923" y1="143.446" x2="788.929" y2="141.916"/>
    <polygon style="fill: #3c3d3d" points="789.066,146.914 798.925,141.643 788.793,136.918 "/>
    <polygon style="fill: none; fill-opacity:0; stroke-width: 2; stroke: #3c3d3d" points="789.066,146.914 798.925,141.643 788.793,136.918 "/>
  </g>
  <text font-size="22.5774" style="fill: #3c3d3d;text-anchor:middle;font-family:sans-serif;font-style:normal;font-weight:normal" x="850.925" y="149.112">
    <tspan x="850.925" y="149.112">15</tspan>
  </text>
  <text font-size="12.7998" style="fill: #3c3d3d;text-anchor:start;font-family:sans-serif;font-style:normal;font-weight:normal" x="850.925" y="141.616">
    <tspan x="850.925" y="141.616"></tspan>
  </text>
  <text font-size="12.7998" style="fill: #3c3d3d;text-anchor:start;font-family:sans-serif;font-style:normal;font-weight:normal" x="847.804" y="140.645">
    <tspan x="847.804" y="140.645"></tspan>
  </text>
  <g>
    <rect style="fill: #52e5dc" x="1067.87" y="107.152" width="102" height="62"/>
    <rect style="fill: none; fill-opacity:0; stroke-width: 2; stroke: #3c3d3d" x="1067.87" y="107.152" width="102" height="62"/>
  </g>
  <g>
    <rect style="fill: #ff8215" x="1166.98" y="106.411" width="102" height="62"/>
    <rect style="fill: none; fill-opacity:0; stroke-width: 2; stroke: #3c3d3d" x="1166.98" y="106.411" width="102" height="62"/>
  </g>
  <text font-size="12.7998" style="fill: #3c3d3d;text-anchor:start;font-family:sans-serif;font-style:normal;font-weight:normal" x="1122.37" y="140.308">
    <tspan x="1122.37" y="140.308"></tspan>
  </text>
  <g>
    <line style="fill: none; fill-opacity:0; stroke-width: 2; stroke: #3c3d3d" x1="1001.04" y1="140.875" x2="1056.88" y2="138.6"/>
    <polygon style="fill: #3c3d3d" points="1057.08,143.596 1066.87,138.193 1056.67,133.604 "/>
    <polygon style="fill: none; fill-opacity:0; stroke-width: 2; stroke: #3c3d3d" points="1057.08,143.596 1066.87,138.193 1056.67,133.604 "/>
  </g>
  <text font-size="22.5774" style="fill: #3c3d3d;text-anchor:middle;font-family:sans-serif;font-style:normal;font-weight:normal" x="1118.87" y="145.648">
    <tspan x="1118.87" y="145.648">32</tspan>
  </text>
  <text font-size="12.7998" style="fill: #3c3d3d;text-anchor:start;font-family:sans-serif;font-style:normal;font-weight:normal" x="1118.87" y="138.152">
    <tspan x="1118.87" y="138.152"></tspan>
  </text>
  <text font-size="12.7998" style="fill: #3c3d3d;text-anchor:start;font-family:sans-serif;font-style:normal;font-weight:normal" x="1116.05" y="149.895">
    <tspan x="1116.05" y="149.895"></tspan>
  </text>
  <text font-size="12.7998" style="fill: #3c3d3d;text-anchor:start;font-family:sans-serif;font-style:normal;font-weight:normal" x="1113.53" y="140.645">
    <tspan x="1113.53" y="140.645"></tspan>
  </text>
</svg>
