<?xml version="1.0" encoding="UTF-8" standalone="no"?>
<!DOCTYPE svg PUBLIC "-//W3C//DTD SVG 1.0//EN" "http://www.w3.org/TR/2001/PR-SVG-20010719/DTD/svg10.dtd">
<svg width="60cm" height="16cm" viewBox="209 -45 1196 311" xmlns="http://www.w3.org/2000/svg" xmlns:xlink="http://www.w3.org/1999/xlink">
  <g>
    <rect style="fill: #ff8215" x="260.546" y="168.51" width="32.6747" height="33.7639"/>
    <rect style="fill: none; fill-opacity:0; stroke-width: 2; stroke: #3c3d3d" x="260.546" y="168.51" width="32.6747" height="33.7639"/>
    <rect style="fill: none; fill-opacity:0; stroke-width: 2; stroke: #3c3d3d" x="260.546" y="168.51" width="32.6747" height="33.7639"/>
  </g>
  <text font-size="16.9333" style="fill: #3c3d3d;text-anchor:start;font-family:sans-serif;font-style:normal;font-weight:normal" x="239.546" y="187.76">
    <tspan x="239.546" y="187.76">p</tspan>
  </text>
  <g>
    <rect style="fill: #52e5dc" x="357.486" y="97.4102" width="102" height="62"/>
    <rect style="fill: none; fill-opacity:0; stroke-width: 2; stroke: #3c3d3d" x="357.486" y="97.4102" width="102" height="62"/>
  </g>
  <g>
    <rect style="fill: #ff8215" x="458.286" y="97.5102" width="102" height="62"/>
    <rect style="fill: none; fill-opacity:0; stroke-width: 2; stroke: #3c3d3d" x="458.286" y="97.5102" width="102" height="62"/>
  </g>
  <text font-size="12.8" style="fill: #3c3d3d;text-anchor:start;font-family:sans-serif;font-style:normal;font-weight:normal" x="413.676" y="131.407">
    <tspan x="413.676" y="131.407"></tspan>
  </text>
  <g>
    <rect style="fill: #ff8215" x="259.074" y="112.577" width="32.6747" height="33.7639"/>
    <rect style="fill: none; fill-opacity:0; stroke-width: 2; stroke: #3c3d3d" x="259.074" y="112.577" width="32.6747" height="33.7639"/>
    <rect style="fill: none; fill-opacity:0; stroke-width: 2; stroke: #3c3d3d" x="259.074" y="112.577" width="32.6747" height="33.7639"/>
  </g>
  <g>
    <line style="fill: none; fill-opacity:0; stroke-width: 2; stroke: #3c3d3d" x1="291.75" y1="129.459" x2="346.487" y2="128.586"/>
    <polygon style="fill: #3c3d3d" points="346.567,133.585 356.486,128.426 346.408,123.586 "/>
    <polygon style="fill: none; fill-opacity:0; stroke-width: 2; stroke: #3c3d3d" points="346.567,133.585 356.486,128.426 346.408,123.586 "/>
  </g>
  <text font-size="16.9333" style="fill: #3c3d3d;text-anchor:start;font-family:sans-serif;font-style:normal;font-weight:normal" x="209.746" y="131.835">
    <tspan x="209.746" y="131.835">head</tspan>
  </text>
  <text font-size="22.5778" style="fill: #3c3d3d;text-anchor:middle;font-family:sans-serif;font-style:normal;font-weight:normal" x="408.486" y="135.906">
    <tspan x="408.486" y="135.906">34</tspan>
  </text>
  <line style="fill: none; fill-opacity:0; stroke-width: 2; stroke: #3c3d3d" x1="293.22" y1="185.392" x2="676.868" y2="184.629"/>
  <g>
    <line style="fill: none; fill-opacity:0; stroke-width: 2; stroke: #3c3d3d" x1="676.384" y1="184.378" x2="676.198" y2="168.655"/>
    <polygon style="fill: #3c3d3d" points="681.198,168.596 676.08,158.656 671.198,168.715 "/>
    <polygon style="fill: none; fill-opacity:0; stroke-width: 2; stroke: #3c3d3d" points="681.198,168.596 676.08,158.656 671.198,168.715 "/>
  </g>
  <g>
    <rect style="fill: #52e5dc" x="625.068" y="95.6562" width="102" height="62"/>
    <rect style="fill: none; fill-opacity:0; stroke-width: 2; stroke: #3c3d3d" x="625.068" y="95.6562" width="102" height="62"/>
  </g>
  <g>
    <rect style="fill: #ff8215" x="725.868" y="95.7562" width="102" height="62"/>
    <rect style="fill: none; fill-opacity:0; stroke-width: 2; stroke: #3c3d3d" x="725.868" y="95.7562" width="102" height="62"/>
  </g>
  <text font-size="12.8" style="fill: #3c3d3d;text-anchor:start;font-family:sans-serif;font-style:normal;font-weight:normal" x="681.258" y="129.653">
    <tspan x="681.258" y="129.653"></tspan>
  </text>
  <g>
    <line style="fill: none; fill-opacity:0; stroke-width: 2; stroke: #3c3d3d" x1="560.286" y1="128.51" x2="612.602" y2="128.643"/>
    <polygon style="fill: #3c3d3d" points="612.589,133.643 622.602,128.668 612.615,123.643 "/>
    <polygon style="fill: none; fill-opacity:0; stroke-width: 2; stroke: #3c3d3d" points="612.589,133.643 622.602,128.668 612.615,123.643 "/>
  </g>
  <text font-size="22.5778" style="fill: #3c3d3d;text-anchor:middle;font-family:sans-serif;font-style:normal;font-weight:normal" x="676.068" y="134.152">
    <tspan x="676.068" y="134.152">23</tspan>
  </text>
  <text font-size="12.8" style="fill: #3c3d3d;text-anchor:start;font-family:sans-serif;font-style:normal;font-weight:normal" x="676.068" y="126.656">
    <tspan x="676.068" y="126.656"></tspan>
  </text>
  <g>
    <rect style="fill: #52e5dc" x="894.87" y="93.9262" width="102" height="62"/>
    <rect style="fill: none; fill-opacity:0; stroke-width: 2; stroke: #3c3d3d" x="894.87" y="93.9262" width="102" height="62"/>
  </g>
  <g>
    <rect style="fill: #ff8215" x="993.988" y="93.1852" width="102" height="62"/>
    <rect style="fill: none; fill-opacity:0; stroke-width: 2; stroke: #3c3d3d" x="993.988" y="93.1852" width="102" height="62"/>
  </g>
  <text font-size="12.8" style="fill: #3c3d3d;text-anchor:start;font-family:sans-serif;font-style:normal;font-weight:normal" x="949.378" y="127.082">
    <tspan x="949.378" y="127.082"></tspan>
  </text>
  <text font-size="22.5778" style="fill: #3c3d3d;text-anchor:middle;font-family:sans-serif;font-style:normal;font-weight:normal" x="945.87" y="132.422">
    <tspan x="945.87" y="132.422">56</tspan>
  </text>
  <text font-size="12.8" style="fill: #3c3d3d;text-anchor:start;font-family:sans-serif;font-style:normal;font-weight:normal" x="945.87" y="124.926">
    <tspan x="945.87" y="124.926"></tspan>
  </text>
  <text font-size="12.8" style="fill: #3c3d3d;text-anchor:start;font-family:sans-serif;font-style:normal;font-weight:normal" x="942.75" y="123.955">
    <tspan x="942.75" y="123.955"></tspan>
  </text>
  <g>
    <line style="fill: none; fill-opacity:0; stroke-width: 2; stroke: #3c3d3d" x1="1095.99" y1="124.185" x2="1149.93" y2="124.453"/>
    <polygon style="fill: #3c3d3d" points="1149.91,129.453 1159.93,124.503 1149.96,119.454 "/>
    <polygon style="fill: none; fill-opacity:0; stroke-width: 2; stroke: #3c3d3d" points="1149.91,129.453 1159.93,124.503 1149.96,119.454 "/>
  </g>
  <line style="fill: none; fill-opacity:0; stroke-width: 2; stroke: #3c3d3d" x1="1359.28" y1="123.243" x2="1399.12" y2="123.024"/>
  <g>
    <line style="fill: none; fill-opacity:0; stroke-width: 2; stroke: #3c3d3d" x1="1398.2" y1="123.024" x2="1398.2" y2="145.953"/>
    <polygon style="fill: #3c3d3d" points="1393.2,145.953 1398.2,155.953 1403.2,145.953 "/>
    <polygon style="fill: none; fill-opacity:0; stroke-width: 2; stroke: #3c3d3d" points="1393.2,145.953 1398.2,155.953 1403.2,145.953 "/>
  </g>
  <g>
    <rect style="fill: #ff8215" x="261.332" y="230.57" width="32.6747" height="33.7639"/>
    <rect style="fill: none; fill-opacity:0; stroke-width: 2; stroke: #3c3d3d" x="261.332" y="230.57" width="32.6747" height="33.7639"/>
    <rect style="fill: none; fill-opacity:0; stroke-width: 2; stroke: #3c3d3d" x="261.332" y="230.57" width="32.6747" height="33.7639"/>
  </g>
  <text font-size="16.9333" style="fill: #3c3d3d;text-anchor:start;font-family:sans-serif;font-style:normal;font-weight:normal" x="238.8" y="249.328">
    <tspan x="238.8" y="249.328">q</tspan>
  </text>
  <text font-size="12.8" style="fill: #3c3d3d;text-anchor:start;font-family:sans-serif;font-style:normal;font-weight:normal" x="233.258" y="243.52">
    <tspan x="233.258" y="243.52"></tspan>
  </text>
  <text font-size="12.8" style="fill: #3c3d3d;text-anchor:start;font-family:sans-serif;font-style:normal;font-weight:normal" x="406.48" y="246.884">
    <tspan x="406.48" y="246.884"></tspan>
  </text>
  <line style="fill: none; fill-opacity:0; stroke-width: 2; stroke: #3c3d3d" x1="295.324" y1="246.464" x2="947.088" y2="246.294"/>
  <g>
    <line style="fill: none; fill-opacity:0; stroke-width: 2; stroke: #3c3d3d" x1="945.998" y1="246.294" x2="945.886" y2="166.926"/>
    <polygon style="fill: #3c3d3d" points="950.886,166.919 945.871,156.926 940.886,166.933 "/>
    <polygon style="fill: none; fill-opacity:0; stroke-width: 2; stroke: #3c3d3d" points="950.886,166.919 945.871,156.926 940.886,166.933 "/>
  </g>
  <g>
    <rect style="fill: #52e5dc" x="1158.16" y="92.9836" width="102" height="62"/>
    <rect style="fill: none; fill-opacity:0; stroke-width: 2; stroke: #3c3d3d" x="1158.16" y="92.9836" width="102" height="62"/>
  </g>
  <g>
    <rect style="fill: #ff8215" x="1257.28" y="92.2426" width="102" height="62"/>
    <rect style="fill: none; fill-opacity:0; stroke-width: 2; stroke: #3c3d3d" x="1257.28" y="92.2426" width="102" height="62"/>
  </g>
  <text font-size="12.8" style="fill: #3c3d3d;text-anchor:start;font-family:sans-serif;font-style:normal;font-weight:normal" x="1212.67" y="126.139">
    <tspan x="1212.67" y="126.139"></tspan>
  </text>
  <text font-size="22.5778" style="fill: #3c3d3d;text-anchor:middle;font-family:sans-serif;font-style:normal;font-weight:normal" x="1209.16" y="131.479">
    <tspan x="1209.16" y="131.479">12</tspan>
  </text>
  <text font-size="12.8" style="fill: #3c3d3d;text-anchor:start;font-family:sans-serif;font-style:normal;font-weight:normal" x="1209.16" y="123.984">
    <tspan x="1209.16" y="123.984"></tspan>
  </text>
  <text font-size="12.8" style="fill: #3c3d3d;text-anchor:start;font-family:sans-serif;font-style:normal;font-weight:normal" x="1209.16" y="123.984">
    <tspan x="1209.16" y="123.984"></tspan>
  </text>
  <text font-size="12.8" style="fill: #3c3d3d;text-anchor:start;font-family:sans-serif;font-style:normal;font-weight:normal" x="945.87" y="124.926">
    <tspan x="945.87" y="124.926"></tspan>
  </text>
  <g>
    <line style="fill: none; fill-opacity:0; stroke-width: 2; stroke: #3c3d3d" x1="827.868" y1="126.756" x2="882.678" y2="126.699"/>
    <polygon style="fill: #3c3d3d" points="882.683,131.699 892.678,126.689 882.673,121.699 "/>
    <polygon style="fill: none; fill-opacity:0; stroke-width: 2; stroke: #3c3d3d" points="882.683,131.699 892.678,126.689 882.673,121.699 "/>
  </g>
  <text font-size="12.7998" style="fill: #3c3d3d;text-anchor:start;font-family:sans-serif;font-style:normal;font-weight:normal" x="222" y="180.802">
    <tspan x="222" y="180.802"></tspan>
  </text>
  <text font-size="12.7998" style="fill: #3c3d3d;text-anchor:start;font-family:sans-serif;font-style:normal;font-weight:normal" x="408.486" y="128.41">
    <tspan x="408.486" y="128.41"></tspan>
  </text>
  <g>
    <rect style="fill: #52e5dc" x="782.776" y="-43.2566" width="102" height="62"/>
    <rect style="fill: none; fill-opacity:0; stroke-width: 2; stroke: #3c3d3d" x="782.776" y="-43.2566" width="102" height="62"/>
  </g>
  <g>
    <rect style="fill: #ff8215" x="881.894" y="-43.9976" width="102" height="62"/>
    <rect style="fill: none; fill-opacity:0; stroke-width: 2; stroke: #3c3d3d" x="881.894" y="-43.9976" width="102" height="62"/>
  </g>
  <text font-size="12.8" style="fill: #3c3d3d;text-anchor:start;font-family:sans-serif;font-style:normal;font-weight:normal" x="837.282" y="-10.101">
    <tspan x="837.282" y="-10.101"></tspan>
  </text>
  <text font-size="22.5778" style="fill: #3c3d3d;text-anchor:middle;font-family:sans-serif;font-style:normal;font-weight:normal" x="833.776" y="-4.4316">
    <tspan x="833.776" y="-4.4316">77</tspan>
  </text>
  <text font-size="12.8" style="fill: #3c3d3d;text-anchor:start;font-family:sans-serif;font-style:normal;font-weight:normal" x="833.776" y="-12.2566">
    <tspan x="833.776" y="-12.2566"></tspan>
  </text>
  <text font-size="12.8" style="fill: #3c3d3d;text-anchor:start;font-family:sans-serif;font-style:normal;font-weight:normal" x="833.776" y="-12.2566">
    <tspan x="833.776" y="-12.2566"></tspan>
  </text>
  <g>
    <rect style="fill: #ff8215" x="685.261" y="-30.9163" width="32.6747" height="33.7639"/>
    <rect style="fill: none; fill-opacity:0; stroke-width: 2; stroke: #3c3d3d" x="685.261" y="-30.9163" width="32.6747" height="33.7639"/>
    <rect style="fill: none; fill-opacity:0; stroke-width: 2; stroke: #3c3d3d" x="685.261" y="-30.9163" width="32.6747" height="33.7639"/>
  </g>
  <g>
    <line style="fill: none; fill-opacity:0; stroke-width: 2; stroke: #3c3d3d" x1="717.936" y1="-14.0344" x2="771.78" y2="-12.5581"/>
    <polygon style="fill: #3c3d3d" points="771.643,-7.55996 781.777,-12.284 771.917,-17.5562 "/>
    <polygon style="fill: none; fill-opacity:0; stroke-width: 2; stroke: #3c3d3d" points="771.643,-7.55996 781.777,-12.284 771.917,-17.5562 "/>
  </g>
  <text font-size="16.9333" style="fill: #3c3d3d;text-anchor:start;font-family:sans-serif;font-style:normal;font-weight:normal" x="596.167" y="-9.98927">
    <tspan x="596.167" y="-9.98927">newNode</tspan>
  </text>
  <text font-size="12.7998" style="fill: #3c3d3d;text-anchor:start;font-family:sans-serif;font-style:normal;font-weight:normal" x="839.947" y="-12.1034">
    <tspan x="839.947" y="-12.1034"></tspan>
  </text>
</svg>
