<?xml version="1.0" encoding="UTF-8" standalone="no"?>
<!DOCTYPE svg PUBLIC "-//W3C//DTD SVG 1.0//EN" "http://www.w3.org/TR/2001/PR-SVG-20010719/DTD/svg10.dtd">
<svg width="60cm" height="8cm" viewBox="209 91 1196 156" xmlns="http://www.w3.org/2000/svg" xmlns:xlink="http://www.w3.org/1999/xlink">
  <g>
    <rect style="fill: #ff8215" x="1042.98" y="211.585" width="32.6747" height="33.7639"/>
    <rect style="fill: none; fill-opacity:0; stroke-width: 2; stroke: #3c3d3d" x="1042.98" y="211.585" width="32.6747" height="33.7639"/>
    <rect style="fill: none; fill-opacity:0; stroke-width: 2; stroke: #3c3d3d" x="1042.98" y="211.585" width="32.6747" height="33.7639"/>
  </g>
  <text font-size="16.9333" style="fill: #3c3d3d;text-anchor:start;font-family:sans-serif;font-style:normal;font-weight:normal" x="995.207" y="233.265">
    <tspan x="995.207" y="233.265">tail</tspan>
  </text>
  <g>
    <rect style="fill: #52e5dc" x="357.486" y="97.4102" width="102" height="62"/>
    <rect style="fill: none; fill-opacity:0; stroke-width: 2; stroke: #3c3d3d" x="357.486" y="97.4102" width="102" height="62"/>
  </g>
  <g>
    <rect style="fill: #ff8215" x="458.286" y="97.5102" width="102" height="62"/>
    <rect style="fill: none; fill-opacity:0; stroke-width: 2; stroke: #3c3d3d" x="458.286" y="97.5102" width="102" height="62"/>
  </g>
  <text font-size="12.8" style="fill: #3c3d3d;text-anchor:start;font-family:sans-serif;font-style:normal;font-weight:normal" x="413.676" y="131.407">
    <tspan x="413.676" y="131.407"></tspan>
  </text>
  <g>
    <rect style="fill: #ff8215" x="259.074" y="112.577" width="32.6747" height="33.7639"/>
    <rect style="fill: none; fill-opacity:0; stroke-width: 2; stroke: #3c3d3d" x="259.074" y="112.577" width="32.6747" height="33.7639"/>
    <rect style="fill: none; fill-opacity:0; stroke-width: 2; stroke: #3c3d3d" x="259.074" y="112.577" width="32.6747" height="33.7639"/>
  </g>
  <g>
    <line style="fill: none; fill-opacity:0; stroke-width: 2; stroke: #3c3d3d" x1="291.75" y1="129.459" x2="346.487" y2="128.586"/>
    <polygon style="fill: #3c3d3d" points="346.567,133.585 356.486,128.426 346.408,123.586 "/>
    <polygon style="fill: none; fill-opacity:0; stroke-width: 2; stroke: #3c3d3d" points="346.567,133.585 356.486,128.426 346.408,123.586 "/>
  </g>
  <text font-size="16.9333" style="fill: #3c3d3d;text-anchor:start;font-family:sans-serif;font-style:normal;font-weight:normal" x="209.746" y="131.835">
    <tspan x="209.746" y="131.835">head</tspan>
  </text>
  <text font-size="22.5778" style="fill: #3c3d3d;text-anchor:middle;font-family:sans-serif;font-style:normal;font-weight:normal" x="408.486" y="135.906">
    <tspan x="408.486" y="135.906">34</tspan>
  </text>
  <g>
    <rect style="fill: #52e5dc" x="625.068" y="95.6562" width="102" height="62"/>
    <rect style="fill: none; fill-opacity:0; stroke-width: 2; stroke: #3c3d3d" x="625.068" y="95.6562" width="102" height="62"/>
  </g>
  <g>
    <rect style="fill: #ff8215" x="725.868" y="95.7562" width="102" height="62"/>
    <rect style="fill: none; fill-opacity:0; stroke-width: 2; stroke: #3c3d3d" x="725.868" y="95.7562" width="102" height="62"/>
  </g>
  <text font-size="12.8" style="fill: #3c3d3d;text-anchor:start;font-family:sans-serif;font-style:normal;font-weight:normal" x="681.258" y="129.653">
    <tspan x="681.258" y="129.653"></tspan>
  </text>
  <g>
    <line style="fill: none; fill-opacity:0; stroke-width: 2; stroke: #3c3d3d" x1="561.293" y1="127.932" x2="613.061" y2="127.357"/>
    <polygon style="fill: #3c3d3d" points="613.117,132.356 623.061,127.245 613.006,122.357 "/>
    <polygon style="fill: none; fill-opacity:0; stroke-width: 2; stroke: #3c3d3d" points="613.117,132.356 623.061,127.245 613.006,122.357 "/>
  </g>
  <text font-size="22.5778" style="fill: #3c3d3d;text-anchor:middle;font-family:sans-serif;font-style:normal;font-weight:normal" x="676.068" y="134.152">
    <tspan x="676.068" y="134.152">23</tspan>
  </text>
  <text font-size="12.8" style="fill: #3c3d3d;text-anchor:start;font-family:sans-serif;font-style:normal;font-weight:normal" x="676.068" y="126.656">
    <tspan x="676.068" y="126.656"></tspan>
  </text>
  <g>
    <rect style="fill: #52e5dc" x="894.87" y="93.9262" width="102" height="62"/>
    <rect style="fill: none; fill-opacity:0; stroke-width: 2; stroke: #3c3d3d" x="894.87" y="93.9262" width="102" height="62"/>
  </g>
  <g>
    <rect style="fill: #ff8215" x="993.988" y="93.1852" width="102" height="62"/>
    <rect style="fill: none; fill-opacity:0; stroke-width: 2; stroke: #3c3d3d" x="993.988" y="93.1852" width="102" height="62"/>
  </g>
  <text font-size="12.8" style="fill: #3c3d3d;text-anchor:start;font-family:sans-serif;font-style:normal;font-weight:normal" x="949.378" y="127.082">
    <tspan x="949.378" y="127.082"></tspan>
  </text>
  <text font-size="22.5778" style="fill: #3c3d3d;text-anchor:middle;font-family:sans-serif;font-style:normal;font-weight:normal" x="945.87" y="132.422">
    <tspan x="945.87" y="132.422">56</tspan>
  </text>
  <text font-size="12.8" style="fill: #3c3d3d;text-anchor:start;font-family:sans-serif;font-style:normal;font-weight:normal" x="945.87" y="124.926">
    <tspan x="945.87" y="124.926"></tspan>
  </text>
  <text font-size="12.8" style="fill: #3c3d3d;text-anchor:start;font-family:sans-serif;font-style:normal;font-weight:normal" x="942.75" y="123.955">
    <tspan x="942.75" y="123.955"></tspan>
  </text>
  <g>
    <line style="fill: none; fill-opacity:0; stroke-width: 2; stroke: #3c3d3d" x1="1095.99" y1="124.185" x2="1149.93" y2="124.453"/>
    <polygon style="fill: #3c3d3d" points="1149.91,129.453 1159.93,124.503 1149.96,119.454 "/>
    <polygon style="fill: none; fill-opacity:0; stroke-width: 2; stroke: #3c3d3d" points="1149.91,129.453 1159.93,124.503 1149.96,119.454 "/>
  </g>
  <line style="fill: none; fill-opacity:0; stroke-width: 2; stroke: #3c3d3d" x1="1359.28" y1="123.243" x2="1399.12" y2="123.024"/>
  <g>
    <line style="fill: none; fill-opacity:0; stroke-width: 2; stroke: #3c3d3d" x1="1398.2" y1="123.024" x2="1398.2" y2="145.953"/>
    <polygon style="fill: #3c3d3d" points="1393.2,145.953 1398.2,155.953 1403.2,145.953 "/>
    <polygon style="fill: none; fill-opacity:0; stroke-width: 2; stroke: #3c3d3d" points="1393.2,145.953 1398.2,155.953 1403.2,145.953 "/>
  </g>
  <text font-size="12.8" style="fill: #3c3d3d;text-anchor:start;font-family:sans-serif;font-style:normal;font-weight:normal" x="233.258" y="243.52">
    <tspan x="233.258" y="243.52"></tspan>
  </text>
  <text font-size="12.8" style="fill: #3c3d3d;text-anchor:start;font-family:sans-serif;font-style:normal;font-weight:normal" x="406.48" y="246.884">
    <tspan x="406.48" y="246.884"></tspan>
  </text>
  <g>
    <rect style="fill: #52e5dc" x="1158.16" y="92.9836" width="102" height="62"/>
    <rect style="fill: none; fill-opacity:0; stroke-width: 2; stroke: #3c3d3d" x="1158.16" y="92.9836" width="102" height="62"/>
  </g>
  <g>
    <rect style="fill: #ff8215" x="1257.28" y="92.2426" width="102" height="62"/>
    <rect style="fill: none; fill-opacity:0; stroke-width: 2; stroke: #3c3d3d" x="1257.28" y="92.2426" width="102" height="62"/>
  </g>
  <text font-size="12.8" style="fill: #3c3d3d;text-anchor:start;font-family:sans-serif;font-style:normal;font-weight:normal" x="1212.67" y="126.139">
    <tspan x="1212.67" y="126.139"></tspan>
  </text>
  <text font-size="22.5778" style="fill: #3c3d3d;text-anchor:middle;font-family:sans-serif;font-style:normal;font-weight:normal" x="1209.16" y="131.479">
    <tspan x="1209.16" y="131.479">12</tspan>
  </text>
  <text font-size="12.8" style="fill: #3c3d3d;text-anchor:start;font-family:sans-serif;font-style:normal;font-weight:normal" x="1209.16" y="123.984">
    <tspan x="1209.16" y="123.984"></tspan>
  </text>
  <text font-size="12.8" style="fill: #3c3d3d;text-anchor:start;font-family:sans-serif;font-style:normal;font-weight:normal" x="1209.16" y="123.984">
    <tspan x="1209.16" y="123.984"></tspan>
  </text>
  <text font-size="12.8" style="fill: #3c3d3d;text-anchor:start;font-family:sans-serif;font-style:normal;font-weight:normal" x="945.87" y="124.926">
    <tspan x="945.87" y="124.926"></tspan>
  </text>
  <text font-size="12.7998" style="fill: #3c3d3d;text-anchor:start;font-family:sans-serif;font-style:normal;font-weight:normal" x="222" y="180.802">
    <tspan x="222" y="180.802"></tspan>
  </text>
  <text font-size="12.7998" style="fill: #3c3d3d;text-anchor:start;font-family:sans-serif;font-style:normal;font-weight:normal" x="408.486" y="128.41">
    <tspan x="408.486" y="128.41"></tspan>
  </text>
  <text font-size="12.7998" style="fill: #3c3d3d;text-anchor:start;font-family:sans-serif;font-style:normal;font-weight:normal" x="221.429" y="185.988">
    <tspan x="221.429" y="185.988"></tspan>
  </text>
  <g>
    <line style="fill: none; fill-opacity:0; stroke-width: 2; stroke: #3c3d3d" x1="828.866" y1="126.193" x2="882.872" y2="125.608"/>
    <polygon style="fill: #3c3d3d" points="882.927,130.608 892.872,125.5 882.818,120.609 "/>
    <polygon style="fill: none; fill-opacity:0; stroke-width: 2; stroke: #3c3d3d" points="882.927,130.608 892.872,125.5 882.818,120.609 "/>
  </g>
  <g>
    <line style="fill: none; fill-opacity:0; stroke-width: 2; stroke: #3c3d3d" x1="623.54" y1="141.118" x2="572.872" y2="141.118"/>
    <polygon style="fill: #3c3d3d" points="572.872,136.118 562.872,141.118 572.872,146.118 "/>
    <polygon style="fill: none; fill-opacity:0; stroke-width: 2; stroke: #3c3d3d" points="572.872,136.118 562.872,141.118 572.872,146.118 "/>
  </g>
  <g>
    <line style="fill: none; fill-opacity:0; stroke-width: 2; stroke: #3c3d3d" x1="892.706" y1="139.929" x2="840.433" y2="140.118"/>
    <polygon style="fill: #3c3d3d" points="840.415,135.118 830.433,140.155 840.451,145.118 "/>
    <polygon style="fill: none; fill-opacity:0; stroke-width: 2; stroke: #3c3d3d" points="840.415,135.118 830.433,140.155 840.451,145.118 "/>
  </g>
  <g>
    <line style="fill: none; fill-opacity:0; stroke-width: 2; stroke: #3c3d3d" x1="1159.53" y1="141.165" x2="1108.86" y2="141.165"/>
    <polygon style="fill: #3c3d3d" points="1108.86,136.165 1098.86,141.165 1108.86,146.165 "/>
    <polygon style="fill: none; fill-opacity:0; stroke-width: 2; stroke: #3c3d3d" points="1108.86,136.165 1098.86,141.165 1108.86,146.165 "/>
  </g>
  <g>
    <polyline style="fill: none; fill-opacity:0; stroke-width: 2; stroke: #3c3d3d" points="356.48,140.406 328.412,140.406 328.412,175.194 "/>
    <polygon style="fill: #3c3d3d" points="323.412,175.194 328.412,185.194 333.412,175.194 "/>
    <polygon style="fill: none; fill-opacity:0; stroke-width: 2; stroke: #3c3d3d" points="323.412,175.194 328.412,185.194 333.412,175.194 "/>
  </g>
  <text font-size="12.7998" style="fill: #3c3d3d;text-anchor:start;font-family:sans-serif;font-style:normal;font-weight:normal" x="931.655" y="230.359">
    <tspan x="931.655" y="230.359"></tspan>
  </text>
  <g>
    <polyline style="fill: none; fill-opacity:0; stroke-width: 2; stroke: #3c3d3d" points="1077.13,229.814 1077.13,229.814 1209.16,229.814 1209.16,165.984 "/>
    <polygon style="fill: #3c3d3d" points="1214.16,165.984 1209.16,155.984 1204.16,165.984 "/>
    <polygon style="fill: none; fill-opacity:0; stroke-width: 2; stroke: #3c3d3d" points="1214.16,165.984 1209.16,155.984 1204.16,165.984 "/>
  </g>
</svg>
