<?xml version="1.0" encoding="UTF-8" standalone="no"?>
<!-- Created by diasvg.py -->
<svg width="56.850cm" height="31.553cm" viewBox="24.935 6.960 81.784 38.512"
 xmlns="http://www.w3.org/2000/svg"
 xmlns:xlink="http://www.w3.org/1999/xlink">
<ellipse cx="54.097" cy="15.292" rx="2.609" ry="2.609" fill="#00FF00" stroke="none"  /><ellipse cx="54.097" cy="15.292" rx="2.609" ry="2.609" fill="none" stroke="#00FF00"  stroke-width="0.001" /><ellipse cx="54.097" cy="15.292" rx="2.609" ry="2.609" fill="none" stroke="#3C3D3D"  stroke-width="0.180" /><ellipse cx="54.097" cy="15.292" rx="2.609" ry="2.609" fill="none" stroke="#3C3D3D"  stroke-width="0.180" /><text x="54.097" y="16.132"  fill="#3C3D3D" text-anchor="middle" font-size="1.76" font-family="sans" font-style="normal" font-weight="400">
60</text>
<ellipse cx="38.995" cy="26.528" rx="2.609" ry="2.609" fill="#00FF00" stroke="none"  /><ellipse cx="38.995" cy="26.528" rx="2.609" ry="2.609" fill="none" stroke="#00FF00"  stroke-width="0.001" /><ellipse cx="38.995" cy="26.528" rx="2.609" ry="2.609" fill="none" stroke="#3C3D3D"  stroke-width="0.180" /><ellipse cx="38.995" cy="26.528" rx="2.609" ry="2.609" fill="none" stroke="#3C3D3D"  stroke-width="0.180" /><text x="38.995" y="27.404"  fill="#3C3D3D" text-anchor="middle" font-size="1.76" font-family="sans" font-style="normal" font-weight="400">
50</text>
<ellipse cx="69.809" cy="26.267" rx="2.609" ry="2.609" fill="#00FF00" stroke="none"  /><ellipse cx="69.809" cy="26.267" rx="2.609" ry="2.609" fill="none" stroke="#00FF00"  stroke-width="0.001" /><ellipse cx="69.809" cy="26.267" rx="2.609" ry="2.609" fill="none" stroke="#3C3D3D"  stroke-width="0.180" /><ellipse cx="69.809" cy="26.267" rx="2.609" ry="2.609" fill="none" stroke="#3C3D3D"  stroke-width="0.180" /><text x="69.809" y="27.144"  fill="#3C3D3D" text-anchor="middle" font-size="1.76" font-family="sans" font-style="normal" font-weight="400">
70</text>
<ellipse cx="27.634" cy="35.715" rx="2.609" ry="2.609" fill="#00FF00" stroke="none"  /><ellipse cx="27.634" cy="35.715" rx="2.609" ry="2.609" fill="none" stroke="#000000"  stroke-width="0.180" /><ellipse cx="27.634" cy="35.715" rx="2.609" ry="2.609" fill="none" stroke="#000000"  stroke-width="0.180" /><ellipse cx="27.634" cy="35.715" rx="2.609" ry="2.609" fill="none" stroke="#000000"  stroke-width="0.180" /><text x="27.634" y="36.591"  fill="#3C3D3D" text-anchor="middle" font-size="1.76" font-family="sans" font-style="normal" font-weight="400">
30</text>
<ellipse cx="47.121" cy="35.813" rx="2.609" ry="2.609" fill="#00FF00" stroke="none"  /><ellipse cx="47.121" cy="35.813" rx="2.609" ry="2.609" fill="none" stroke="#00FF00"  stroke-width="0.001" /><ellipse cx="47.121" cy="35.813" rx="2.609" ry="2.609" fill="none" stroke="#3C3D3D"  stroke-width="0.180" /><ellipse cx="47.121" cy="35.813" rx="2.609" ry="2.609" fill="none" stroke="#3C3D3D"  stroke-width="0.180" /><text x="47.121" y="35.813"  fill="#3C3D3D" text-anchor="middle" font-size="1.76" font-family="sans" font-style="normal" font-weight="400">
58</text>
<ellipse cx="79.085" cy="34.213" rx="2.609" ry="2.609" fill="#00FF00" stroke="none"  /><ellipse cx="79.085" cy="34.213" rx="2.609" ry="2.609" fill="none" stroke="#00FF00"  stroke-width="0.001" /><ellipse cx="79.085" cy="34.213" rx="2.609" ry="2.609" fill="none" stroke="#3C3D3D"  stroke-width="0.180" /><ellipse cx="79.085" cy="34.213" rx="2.609" ry="2.609" fill="none" stroke="#3C3D3D"  stroke-width="0.180" /><text x="79.085" y="34.213"  fill="#3C3D3D" text-anchor="middle" font-size="1.76" font-family="sans" font-style="normal" font-weight="400">
80</text>
<line x1="51.932" y1="16.903" x2="41.954" y2="24.327" stroke="#3C3D3D" stroke-width="0.180" />
<polygon fill="#3C3D3D" stroke="none" stroke-width="0.001" points="41.686,23.966 41.233,24.864 42.222,24.688 "/>
<polygon fill="none" stroke="#3C3D3D" stroke-width="0.001"  points="41.686,23.966 41.233,24.864 42.222,24.688 "/>
<polygon fill="none" stroke="#3C3D3D" stroke-width="0.180"  points="41.686,23.966 41.233,24.864 42.222,24.688 "/>
<line x1="36.897" y1="28.225" x2="30.501" y2="33.396" stroke="#3C3D3D" stroke-width="0.180" />
<polygon fill="#3C3D3D" stroke="none" stroke-width="0.001" points="30.218,33.047 29.802,33.961 30.784,33.746 "/>
<polygon fill="none" stroke="#3C3D3D" stroke-width="0.001"  points="30.218,33.047 29.802,33.961 30.784,33.746 "/>
<polygon fill="none" stroke="#3C3D3D" stroke-width="0.180"  points="30.218,33.047 29.802,33.961 30.784,33.746 "/>
<line x1="40.646" y1="28.414" x2="44.820" y2="33.183" stroke="#3C3D3D" stroke-width="0.180" />
<polygon fill="#3C3D3D" stroke="none" stroke-width="0.001" points="44.481,33.479 45.412,33.860 45.158,32.887 "/>
<polygon fill="none" stroke="#3C3D3D" stroke-width="0.001"  points="44.481,33.479 45.412,33.860 45.158,32.887 "/>
<polygon fill="none" stroke="#3C3D3D" stroke-width="0.180"  points="44.481,33.479 45.412,33.860 45.158,32.887 "/>
<line x1="56.308" y1="16.837" x2="66.787" y2="24.157" stroke="#3C3D3D" stroke-width="0.180" />
<polygon fill="#3C3D3D" stroke="none" stroke-width="0.001" points="66.529,24.525 67.524,24.671 67.044,23.788 "/>
<polygon fill="none" stroke="#3C3D3D" stroke-width="0.001"  points="66.529,24.525 67.524,24.671 67.044,23.788 "/>
<polygon fill="none" stroke="#3C3D3D" stroke-width="0.180"  points="66.529,24.525 67.524,24.671 67.044,23.788 "/>
<line x1="71.859" y1="28.024" x2="76.284" y2="31.814" stroke="#3C3D3D" stroke-width="0.180" />
<polygon fill="#3C3D3D" stroke="none" stroke-width="0.001" points="75.992,32.155 76.967,32.399 76.577,31.473 "/>
<polygon fill="none" stroke="#3C3D3D" stroke-width="0.001"  points="75.992,32.155 76.967,32.399 76.577,31.473 "/>
<polygon fill="none" stroke="#3C3D3D" stroke-width="0.180"  points="75.992,32.155 76.967,32.399 76.577,31.473 "/>
<rect x="37.092" y="9.258" width="2.495" height="2.578" fill="#FF8215" stroke="none" stroke-width="0"/>
<rect x="37.092" y="9.258" width="2.495" height="2.578" fill="none" stroke="#FF8215" stroke-width="0.001" />
<rect x="37.092" y="9.258" width="2.495" height="2.578" fill="none" stroke="#3C3D3D" stroke-width="0.180" />
<rect x="37.092" y="9.258" width="2.495" height="2.578" fill="none" stroke="#3C3D3D" stroke-width="0.180" />
<line x1="39.670" y1="10.948" x2="50.626" y2="14.247" stroke="#3C3D3D" stroke-width="0.180" />
<polygon fill="#3C3D3D" stroke="none" stroke-width="0.001" points="50.497,14.678 51.487,14.506 50.756,13.817 "/>
<polygon fill="none" stroke="#3C3D3D" stroke-width="0.001"  points="50.497,14.678 51.487,14.506 50.756,13.817 "/>
<polygon fill="none" stroke="#3C3D3D" stroke-width="0.180"  points="50.497,14.678 51.487,14.506 50.756,13.817 "/>
<text x="36.135" y="8.270"  fill="#3C3D3D" text-anchor="start" font-size="1.76" font-family="sans" font-style="normal" font-weight="400">
root</text>
<ellipse cx="59.760" cy="35.517" rx="2.609" ry="2.609" fill="#00FF00" stroke="none"  /><ellipse cx="59.760" cy="35.517" rx="2.609" ry="2.609" fill="none" stroke="#00FF00"  stroke-width="0.001" /><ellipse cx="59.760" cy="35.517" rx="2.609" ry="2.609" fill="none" stroke="#3C3D3D"  stroke-width="0.180" /><ellipse cx="59.760" cy="35.517" rx="2.609" ry="2.609" fill="none" stroke="#3C3D3D"  stroke-width="0.180" /><text x="59.760" y="35.517"  fill="#3C3D3D" text-anchor="middle" font-size="1.76" font-family="sans" font-style="normal" font-weight="400">
65</text>
<line x1="67.824" y1="28.095" x2="62.472" y2="33.020" stroke="#3C3D3D" stroke-width="0.180" />
<polygon fill="#3C3D3D" stroke="none" stroke-width="0.001" points="62.168,32.689 61.811,33.629 62.777,33.351 "/>
<polygon fill="none" stroke="#3C3D3D" stroke-width="0.001"  points="62.168,32.689 61.811,33.629 62.777,33.351 "/>
<polygon fill="none" stroke="#3C3D3D" stroke-width="0.180"  points="62.168,32.689 61.811,33.629 62.777,33.351 "/>
</svg>