<?xml version="1.0" encoding="UTF-8" standalone="no"?>
<!DOCTYPE svg PUBLIC "-//W3C//DTD SVG 1.0//EN" "http://www.w3.org/TR/2001/PR-SVG-20010719/DTD/svg10.dtd">
<svg width="24cm" height="20cm" viewBox="402 71 467 393" xmlns="http://www.w3.org/2000/svg" xmlns:xlink="http://www.w3.org/1999/xlink">
  <g>
    <ellipse style="fill: #00ff00" cx="601.825" cy="170.125" rx="29.025" ry="29.025"/>
    <ellipse style="fill: none; fill-opacity:0; stroke-width: 2; stroke: #000000" cx="601.825" cy="170.125" rx="29.025" ry="29.025"/>
    <ellipse style="fill: none; fill-opacity:0; stroke-width: 2; stroke: #000000" cx="601.825" cy="170.125" rx="29.025" ry="29.025"/>
  </g>
  <text font-size="28.2222" style="fill: #3c3d3d;text-anchor:middle;font-family:sans-serif;font-style:normal;font-weight:normal" x="601.824" y="179.875">
    <tspan x="601.824" y="179.875">65</tspan>
  </text>
  <g>
    <ellipse style="fill: #00ff00" cx="596.226" cy="344.426" rx="29.025" ry="29.025"/>
    <ellipse style="fill: none; fill-opacity:0; stroke-width: 2; stroke: #3c3d3d" cx="596.226" cy="344.426" rx="29.025" ry="29.025"/>
    <ellipse style="fill: none; fill-opacity:0; stroke-width: 2; stroke: #3c3d3d" cx="596.226" cy="344.426" rx="29.025" ry="29.025"/>
  </g>
  <text font-size="28.2222" style="fill: #3c3d3d;text-anchor:middle;font-family:sans-serif;font-style:normal;font-weight:normal" x="596.226" y="354.176">
    <tspan x="596.226" y="354.176">68</tspan>
  </text>
  <g>
    <ellipse style="fill: #00ff00" cx="667.826" cy="433.626" rx="29.025" ry="29.025"/>
    <ellipse style="fill: none; fill-opacity:0; stroke-width: 2; stroke: #3c3d3d" cx="667.826" cy="433.626" rx="29.025" ry="29.025"/>
    <ellipse style="fill: none; fill-opacity:0; stroke-width: 2; stroke: #3c3d3d" cx="667.826" cy="433.626" rx="29.025" ry="29.025"/>
  </g>
  <text font-size="12.8" style="fill: #3c3d3d;text-anchor:start;font-family:sans-serif;font-style:normal;font-weight:normal" x="485" y="305">
    <tspan x="485" y="305"></tspan>
  </text>
  <g>
    <line style="fill: none; fill-opacity:0; stroke-width: 2; stroke: #3c3d3d" x1="657.087" y1="280.804" x2="624.568" y2="314.798"/>
    <polygon style="fill: #3c3d3d" points="620.955,311.342 617.656,322.024 628.181,318.254 "/>
    <polygon style="fill: none; fill-opacity:0; stroke-width: 2; stroke: #3c3d3d" points="620.955,311.342 617.656,322.024 628.181,318.254 "/>
  </g>
  <g>
    <line style="fill: none; fill-opacity:0; stroke-width: 2; stroke: #3c3d3d" x1="621.317" y1="192.951" x2="651.19" y2="227.934"/>
    <polygon style="fill: #3c3d3d" points="647.388,231.181 657.684,235.539 654.992,224.687 "/>
    <polygon style="fill: none; fill-opacity:0; stroke-width: 2; stroke: #3c3d3d" points="647.388,231.181 657.684,235.539 654.992,224.687 "/>
  </g>
  <g>
    <line style="fill: none; fill-opacity:0; stroke-width: 2; stroke: #3c3d3d" x1="735.423" y1="367.168" x2="697.073" y2="404.872"/>
    <polygon style="fill: #3c3d3d" points="693.567,401.307 689.942,411.883 700.578,408.438 "/>
    <polygon style="fill: none; fill-opacity:0; stroke-width: 2; stroke: #3c3d3d" points="693.567,401.307 689.942,411.883 700.578,408.438 "/>
  </g>
  <g>
    <rect style="fill: #ff8215" x="412.646" y="103" width="27.7581" height="28.6833"/>
    <rect style="fill: none; fill-opacity:0; stroke-width: 2; stroke: #3c3d3d" x="412.646" y="103" width="27.7581" height="28.6833"/>
    <rect style="fill: none; fill-opacity:0; stroke-width: 2; stroke: #3c3d3d" x="412.646" y="103" width="27.7581" height="28.6833"/>
  </g>
  <g>
    <line style="fill: none; fill-opacity:0; stroke-width: 2; stroke: #3c3d3d" x1="441.333" y1="121.8" x2="563.217" y2="158.5"/>
    <polygon style="fill: #3c3d3d" points="561.775,163.288 572.792,161.383 564.658,153.712 "/>
    <polygon style="fill: none; fill-opacity:0; stroke-width: 2; stroke: #3c3d3d" points="561.775,163.288 572.792,161.383 564.658,153.712 "/>
  </g>
  <text font-size="22.5778" style="fill: #3c3d3d;text-anchor:start;font-family:sans-serif;font-style:normal;font-weight:normal" x="402" y="92">
    <tspan x="402" y="92">root</tspan>
  </text>
  <text font-size="12.8" style="fill: #3c3d3d;text-anchor:start;font-family:sans-serif;font-style:normal;font-weight:normal" x="481" y="295">
    <tspan x="481" y="295"></tspan>
  </text>
  <text font-size="12.8" style="fill: #3c3d3d;text-anchor:start;font-family:sans-serif;font-style:normal;font-weight:normal" x="396" y="402">
    <tspan x="396" y="402"></tspan>
  </text>
  <text font-size="12.8" style="fill: #3c3d3d;text-anchor:start;font-family:sans-serif;font-style:normal;font-weight:normal" x="601" y="177">
    <tspan x="601" y="177"></tspan>
  </text>
  <text font-size="12.8" style="fill: #3c3d3d;text-anchor:start;font-family:sans-serif;font-style:normal;font-weight:normal" x="516" y="509">
    <tspan x="516" y="509"></tspan>
  </text>
  <text font-size="12.8" style="fill: #3c3d3d;text-anchor:start;font-family:sans-serif;font-style:normal;font-weight:normal" x="615.827" y="359.127">
    <tspan x="615.827" y="359.127"></tspan>
  </text>
  <text font-size="12.8" style="fill: #3c3d3d;text-anchor:start;font-family:sans-serif;font-style:normal;font-weight:normal" x="753" y="195">
    <tspan x="753" y="195"></tspan>
  </text>
  <text font-size="12.8" style="fill: #3c3d3d;text-anchor:start;font-family:sans-serif;font-style:normal;font-weight:normal" x="599" y="177">
    <tspan x="599" y="177"></tspan>
  </text>
  <text font-size="12.8" style="fill: #3c3d3d;text-anchor:start;font-family:sans-serif;font-style:normal;font-weight:normal" x="715.826" y="471.126">
    <tspan x="715.826" y="471.126"></tspan>
  </text>
  <g>
    <ellipse style="fill: #00ff00" cx="756.826" cy="346.126" rx="29.025" ry="29.025"/>
    <ellipse style="fill: none; fill-opacity:0; stroke-width: 2; stroke: #3c3d3d" cx="756.826" cy="346.126" rx="29.025" ry="29.025"/>
    <ellipse style="fill: none; fill-opacity:0; stroke-width: 2; stroke: #3c3d3d" cx="756.826" cy="346.126" rx="29.025" ry="29.025"/>
  </g>
  <text font-size="28.2222" style="fill: #3c3d3d;text-anchor:middle;font-family:sans-serif;font-style:normal;font-weight:normal" x="756.826" y="355.465">
    <tspan x="756.826" y="355.465">93</tspan>
  </text>
  <text font-size="12.8" style="fill: #3c3d3d;text-anchor:start;font-family:sans-serif;font-style:normal;font-weight:normal" x="763.001" y="350.001">
    <tspan x="763.001" y="350.001"></tspan>
  </text>
  <text font-size="12.8" style="fill: #3c3d3d;text-anchor:start;font-family:sans-serif;font-style:normal;font-weight:normal" x="662.001" y="429.001">
    <tspan x="662.001" y="429.001"></tspan>
  </text>
  <text font-size="12.7998" style="fill: #3c3d3d;text-anchor:start;font-family:sans-serif;font-style:normal;font-weight:normal" x="588.001" y="346.001">
    <tspan x="588.001" y="346.001"></tspan>
  </text>
  <text font-size="12.7998" style="fill: #3c3d3d;text-anchor:start;font-family:sans-serif;font-style:normal;font-weight:normal" x="595.001" y="348.001">
    <tspan x="595.001" y="348.001"></tspan>
  </text>
  <text font-size="12.8" style="fill: #3c3d3d;text-anchor:start;font-family:sans-serif;font-style:normal;font-weight:normal" x="663.427" y="315.827">
    <tspan x="663.427" y="315.827"></tspan>
  </text>
  <text font-size="12.7998" style="fill: #3c3d3d;text-anchor:start;font-family:sans-serif;font-style:normal;font-weight:normal" x="635.601" y="302.701">
    <tspan x="635.601" y="302.701"></tspan>
  </text>
  <text font-size="12.7998" style="fill: #3c3d3d;text-anchor:start;font-family:sans-serif;font-style:normal;font-weight:normal" x="642.601" y="304.701">
    <tspan x="642.601" y="304.701"></tspan>
  </text>
  <text font-size="12.7998" style="fill: #3c3d3d;text-anchor:start;font-family:sans-serif;font-style:normal;font-weight:normal" x="706.826" y="307.126">
    <tspan x="706.826" y="307.126"></tspan>
  </text>
  <g>
    <line style="fill: none; fill-opacity:0; stroke-width: 2; stroke: #3c3d3d" x1="698.009" y1="281.353" x2="729.247" y2="315.754"/>
    <polygon style="fill: #3c3d3d" points="725.545,319.116 735.97,323.158 732.949,312.393 "/>
    <polygon style="fill: none; fill-opacity:0; stroke-width: 2; stroke: #3c3d3d" points="725.545,319.116 735.97,323.158 732.949,312.393 "/>
  </g>
  <g>
    <ellipse style="fill: #00ff00" cx="838.825" cy="431.125" rx="29.025" ry="29.025"/>
    <ellipse style="fill: none; fill-opacity:0; stroke-width: 2; stroke: #3c3d3d" cx="838.825" cy="431.125" rx="29.025" ry="29.025"/>
    <ellipse style="fill: none; fill-opacity:0; stroke-width: 2; stroke: #3c3d3d" cx="838.825" cy="431.125" rx="29.025" ry="29.025"/>
  </g>
  <text font-size="28.2222" style="fill: #3c3d3d;text-anchor:middle;font-family:sans-serif;font-style:normal;font-weight:normal" x="838.825" y="440.464">
    <tspan x="838.825" y="440.464">98</tspan>
  </text>
  <text font-size="12.8" style="fill: #3c3d3d;text-anchor:start;font-family:sans-serif;font-style:normal;font-weight:normal" x="886.825" y="468.625">
    <tspan x="886.825" y="468.625"></tspan>
  </text>
  <text font-size="12.8" style="fill: #3c3d3d;text-anchor:start;font-family:sans-serif;font-style:normal;font-weight:normal" x="833" y="426.5">
    <tspan x="833" y="426.5"></tspan>
  </text>
  <text font-size="12.7998" style="fill: #3c3d3d;text-anchor:start;font-family:sans-serif;font-style:normal;font-weight:normal" x="756.826" y="346.126">
    <tspan x="756.826" y="346.126"></tspan>
  </text>
  <text font-size="28.2222" style="fill: #3c3d3d;text-anchor:middle;font-family:sans-serif;font-style:normal;font-weight:normal" x="667.826" y="443.376">
    <tspan x="667.826" y="443.376">86</tspan>
  </text>
  <text font-size="12.8" style="fill: #3c3d3d;text-anchor:start;font-family:sans-serif;font-style:normal;font-weight:normal" x="793.625" y="559.725">
    <tspan x="793.625" y="559.725"></tspan>
  </text>
  <text font-size="12.8" style="fill: #3c3d3d;text-anchor:start;font-family:sans-serif;font-style:normal;font-weight:normal" x="739.8" y="517.6">
    <tspan x="739.8" y="517.6"></tspan>
  </text>
  <text font-size="12.7998" style="fill: #3c3d3d;text-anchor:start;font-family:sans-serif;font-style:normal;font-weight:normal" x="764" y="583">
    <tspan x="764" y="583"></tspan>
  </text>
  <g>
    <line style="fill: none; fill-opacity:0; stroke-width: 2; stroke: #3c3d3d" x1="777.671" y1="367.734" x2="810.343" y2="401.601"/>
    <polygon style="fill: #3c3d3d" points="806.744,405.072 817.286,408.798 813.941,398.129 "/>
    <polygon style="fill: none; fill-opacity:0; stroke-width: 2; stroke: #3c3d3d" points="806.744,405.072 817.286,408.798 813.941,398.129 "/>
  </g>
  <g>
    <ellipse style="fill: #00ff00" cx="677.825" cy="259.125" rx="29.025" ry="29.025"/>
    <ellipse style="fill: none; fill-opacity:0; stroke-width: 2; stroke: #3c3d3d" cx="677.825" cy="259.125" rx="29.025" ry="29.025"/>
    <ellipse style="fill: none; fill-opacity:0; stroke-width: 2; stroke: #3c3d3d" cx="677.825" cy="259.125" rx="29.025" ry="29.025"/>
  </g>
  <text font-size="28.2222" style="fill: #3c3d3d;text-anchor:middle;font-family:sans-serif;font-style:normal;font-weight:normal" x="677.825" y="268.875">
    <tspan x="677.825" y="268.875">85</tspan>
  </text>
  <text font-size="12.8" style="fill: #3c3d3d;text-anchor:start;font-family:sans-serif;font-style:normal;font-weight:normal" x="672" y="254.5">
    <tspan x="672" y="254.5"></tspan>
  </text>
  <text font-size="12.7998" style="fill: #3c3d3d;text-anchor:start;font-family:sans-serif;font-style:normal;font-weight:normal" x="165.8" y="103">
    <tspan x="165.8" y="103"></tspan>
  </text>
</svg>
