<?xml version="1.0" encoding="UTF-8" standalone="no"?>
<!DOCTYPE svg PUBLIC "-//W3C//DTD SVG 1.0//EN" "http://www.w3.org/TR/2001/PR-SVG-20010719/DTD/svg10.dtd">
<svg width="23cm" height="21cm" viewBox="362 140 457 405" xmlns="http://www.w3.org/2000/svg" xmlns:xlink="http://www.w3.org/1999/xlink">
  <g>
    <ellipse style="fill: #00ff00" cx="601.825" cy="170.125" rx="29.025" ry="29.025"/>
    <ellipse style="fill: none; fill-opacity:0; stroke-width: 2; stroke: #3c3d3d" cx="601.825" cy="170.125" rx="29.025" ry="29.025"/>
    <ellipse style="fill: none; fill-opacity:0; stroke-width: 2; stroke: #3c3d3d" cx="601.825" cy="170.125" rx="29.025" ry="29.025"/>
  </g>
  <text font-size="28.2218" style="fill: #3c3d3d;text-anchor:middle;font-family:sans-serif;font-style:normal;font-weight:normal" x="601.825" y="179.875">
    <tspan x="601.825" y="179.875">A</tspan>
  </text>
  <g>
    <ellipse style="fill: #00ff00" cx="484.825" cy="297.125" rx="29.025" ry="29.025"/>
    <ellipse style="fill: none; fill-opacity:0; stroke-width: 2; stroke: #3c3d3d" cx="484.825" cy="297.125" rx="29.025" ry="29.025"/>
    <ellipse style="fill: none; fill-opacity:0; stroke-width: 2; stroke: #3c3d3d" cx="484.825" cy="297.125" rx="29.025" ry="29.025"/>
  </g>
  <text font-size="28.2218" style="fill: #3c3d3d;text-anchor:middle;font-family:sans-serif;font-style:normal;font-weight:normal" x="484.825" y="306.464">
    <tspan x="484.825" y="306.464">B</tspan>
  </text>
  <g>
    <ellipse style="fill: #00ff00" cx="712.625" cy="298.225" rx="29.025" ry="29.025"/>
    <ellipse style="fill: none; fill-opacity:0; stroke-width: 2; stroke: #3c3d3d" cx="712.625" cy="298.225" rx="29.025" ry="29.025"/>
    <ellipse style="fill: none; fill-opacity:0; stroke-width: 2; stroke: #3c3d3d" cx="712.625" cy="298.225" rx="29.025" ry="29.025"/>
  </g>
  <text font-size="28.2218" style="fill: #3c3d3d;text-anchor:middle;font-family:sans-serif;font-style:normal;font-weight:normal" x="712.625" y="307.564">
    <tspan x="712.625" y="307.564">C</tspan>
  </text>
  <g>
    <ellipse style="fill: #00ff00" cx="392.425" cy="398.325" rx="29.025" ry="29.025"/>
    <ellipse style="fill: none; fill-opacity:0; stroke-width: 2; stroke: #3c3d3d" cx="392.425" cy="398.325" rx="29.025" ry="29.025"/>
    <ellipse style="fill: none; fill-opacity:0; stroke-width: 2; stroke: #3c3d3d" cx="392.425" cy="398.325" rx="29.025" ry="29.025"/>
  </g>
  <text font-size="28.2218" style="fill: #3c3d3d;text-anchor:middle;font-family:sans-serif;font-style:normal;font-weight:normal" x="392.425" y="407.664">
    <tspan x="392.425" y="407.664">D</tspan>
  </text>
  <g>
    <ellipse style="fill: #00ff00" cx="545.225" cy="400.425" rx="29.025" ry="29.025"/>
    <ellipse style="fill: none; fill-opacity:0; stroke-width: 2; stroke: #3c3d3d" cx="545.225" cy="400.425" rx="29.025" ry="29.025"/>
    <ellipse style="fill: none; fill-opacity:0; stroke-width: 2; stroke: #3c3d3d" cx="545.225" cy="400.425" rx="29.025" ry="29.025"/>
  </g>
  <text font-size="28.2218" style="fill: #3c3d3d;text-anchor:middle;font-family:sans-serif;font-style:normal;font-weight:normal" x="545.225" y="409.764">
    <tspan x="545.225" y="409.764">E</tspan>
  </text>
  <g>
    <ellipse style="fill: #00ff00" cx="457.025" cy="514.525" rx="29.025" ry="29.025"/>
    <ellipse style="fill: none; fill-opacity:0; stroke-width: 2; stroke: #3c3d3d" cx="457.025" cy="514.525" rx="29.025" ry="29.025"/>
    <ellipse style="fill: none; fill-opacity:0; stroke-width: 2; stroke: #3c3d3d" cx="457.025" cy="514.525" rx="29.025" ry="29.025"/>
  </g>
  <text font-size="28.2218" style="fill: #3c3d3d;text-anchor:middle;font-family:sans-serif;font-style:normal;font-weight:normal" x="457.025" y="523.864">
    <tspan x="457.025" y="523.864">G</tspan>
  </text>
  <g>
    <ellipse style="fill: #00ff00" cx="788.825" cy="410.625" rx="29.025" ry="29.025"/>
    <ellipse style="fill: none; fill-opacity:0; stroke-width: 2; stroke: #3c3d3d" cx="788.825" cy="410.625" rx="29.025" ry="29.025"/>
    <ellipse style="fill: none; fill-opacity:0; stroke-width: 2; stroke: #3c3d3d" cx="788.825" cy="410.625" rx="29.025" ry="29.025"/>
  </g>
  <text font-size="28.2218" style="fill: #3c3d3d;text-anchor:middle;font-family:sans-serif;font-style:normal;font-weight:normal" x="788.825" y="419.964">
    <tspan x="788.825" y="419.964">F</tspan>
  </text>
  <g>
    <ellipse style="fill: #00ff00" cx="717.625" cy="513.725" rx="29.025" ry="29.025"/>
    <ellipse style="fill: none; fill-opacity:0; stroke-width: 2; stroke: #3c3d3d" cx="717.625" cy="513.725" rx="29.025" ry="29.025"/>
    <ellipse style="fill: none; fill-opacity:0; stroke-width: 2; stroke: #3c3d3d" cx="717.625" cy="513.725" rx="29.025" ry="29.025"/>
  </g>
  <text font-size="28.2218" style="fill: #3c3d3d;text-anchor:middle;font-family:sans-serif;font-style:normal;font-weight:normal" x="717.625" y="523.064">
    <tspan x="717.625" y="523.064">H</tspan>
  </text>
  <text font-size="12.7998" style="fill: #3c3d3d;text-anchor:start;font-family:sans-serif;font-style:normal;font-weight:normal" x="485" y="305">
    <tspan x="485" y="305"></tspan>
  </text>
  <g>
    <line style="fill: none; fill-opacity:0; stroke-width: 2; stroke: #3c3d3d" x1="581.48" y1="192.209" x2="512.623" y2="266.951"/>
    <polygon style="fill: #3c3d3d" points="508.946,263.563 505.848,274.306 516.301,270.339 "/>
    <polygon style="fill: none; fill-opacity:0; stroke-width: 2; stroke: #3c3d3d" points="508.946,263.563 505.848,274.306 516.301,270.339 "/>
  </g>
  <g>
    <line style="fill: none; fill-opacity:0; stroke-width: 2; stroke: #3c3d3d" x1="464.59" y1="319.287" x2="420.077" y2="368.039"/>
    <polygon style="fill: #3c3d3d" points="416.385,364.668 413.334,375.424 423.769,371.411 "/>
    <polygon style="fill: none; fill-opacity:0; stroke-width: 2; stroke: #3c3d3d" points="416.385,364.668 413.334,375.424 423.769,371.411 "/>
  </g>
  <g>
    <line style="fill: none; fill-opacity:0; stroke-width: 2; stroke: #3c3d3d" x1="499.954" y1="323" x2="524.543" y2="365.054"/>
    <polygon style="fill: #3c3d3d" points="520.227,367.577 529.591,373.686 528.86,362.53 "/>
    <polygon style="fill: none; fill-opacity:0; stroke-width: 2; stroke: #3c3d3d" points="520.227,367.577 529.591,373.686 528.86,362.53 "/>
  </g>
  <g>
    <line style="fill: none; fill-opacity:0; stroke-width: 2; stroke: #3c3d3d" x1="407.018" y1="424.574" x2="437.088" y2="478.662"/>
    <polygon style="fill: #3c3d3d" points="432.717,481.092 441.947,487.402 441.458,476.233 "/>
    <polygon style="fill: none; fill-opacity:0; stroke-width: 2; stroke: #3c3d3d" points="432.717,481.092 441.947,487.402 441.458,476.233 "/>
  </g>
  <g>
    <line style="fill: none; fill-opacity:0; stroke-width: 2; stroke: #3c3d3d" x1="621.471" y1="192.838" x2="685.783" y2="267.192"/>
    <polygon style="fill: #3c3d3d" points="682.002,270.463 692.325,274.756 689.565,263.921 "/>
    <polygon style="fill: none; fill-opacity:0; stroke-width: 2; stroke: #3c3d3d" points="682.002,270.463 692.325,274.756 689.565,263.921 "/>
  </g>
  <g>
    <line style="fill: none; fill-opacity:0; stroke-width: 2; stroke: #3c3d3d" x1="729.461" y1="323.059" x2="765.816" y2="376.686"/>
    <polygon style="fill: #3c3d3d" points="761.678,379.491 771.428,384.963 769.955,373.88 "/>
    <polygon style="fill: none; fill-opacity:0; stroke-width: 2; stroke: #3c3d3d" points="761.678,379.491 771.428,384.963 769.955,373.88 "/>
  </g>
  <g>
    <line style="fill: none; fill-opacity:0; stroke-width: 2; stroke: #3c3d3d" x1="771.772" y1="435.318" x2="740.928" y2="479.981"/>
    <polygon style="fill: #3c3d3d" points="736.814,477.14 735.246,488.209 745.043,482.822 "/>
    <polygon style="fill: none; fill-opacity:0; stroke-width: 2; stroke: #3c3d3d" points="736.814,477.14 735.246,488.209 745.043,482.822 "/>
  </g>
</svg>
