<?xml version="1.0" encoding="UTF-8" standalone="no"?>
<!DOCTYPE svg PUBLIC "-//W3C//DTD SVG 1.0//EN" "http://www.w3.org/TR/2001/PR-SVG-20010719/DTD/svg10.dtd">
<svg width="23cm" height="24cm" viewBox="362 71 457 473" xmlns="http://www.w3.org/2000/svg" xmlns:xlink="http://www.w3.org/1999/xlink">
  <g>
    <ellipse style="fill: #00ff00" cx="601.825" cy="170.125" rx="29.025" ry="29.025"/>
    <ellipse style="fill: none; fill-opacity:0; stroke-width: 2; stroke: #3c3d3d" cx="601.825" cy="170.125" rx="29.025" ry="29.025"/>
    <ellipse style="fill: none; fill-opacity:0; stroke-width: 2; stroke: #3c3d3d" cx="601.825" cy="170.125" rx="29.025" ry="29.025"/>
  </g>
  <text font-size="28.2222" style="fill: #3c3d3d;text-anchor:middle;font-family:sans-serif;font-style:normal;font-weight:normal" x="601.826" y="179.464">
    <tspan x="601.826" y="179.464">60</tspan>
  </text>
  <g>
    <ellipse style="fill: #00ff00" cx="484.825" cy="297.125" rx="29.025" ry="29.025"/>
    <ellipse style="fill: none; fill-opacity:0; stroke-width: 2; stroke: #3c3d3d" cx="484.825" cy="297.125" rx="29.025" ry="29.025"/>
    <ellipse style="fill: none; fill-opacity:0; stroke-width: 2; stroke: #3c3d3d" cx="484.825" cy="297.125" rx="29.025" ry="29.025"/>
  </g>
  <text font-size="28.2222" style="fill: #3c3d3d;text-anchor:middle;font-family:sans-serif;font-style:normal;font-weight:normal" x="484.826" y="306.876">
    <tspan x="484.826" y="306.876">50</tspan>
  </text>
  <g>
    <ellipse style="fill: #00ff00" cx="712.625" cy="298.225" rx="29.025" ry="29.025"/>
    <ellipse style="fill: none; fill-opacity:0; stroke-width: 2; stroke: #3c3d3d" cx="712.625" cy="298.225" rx="29.025" ry="29.025"/>
    <ellipse style="fill: none; fill-opacity:0; stroke-width: 2; stroke: #3c3d3d" cx="712.625" cy="298.225" rx="29.025" ry="29.025"/>
  </g>
  <text font-size="28.2222" style="fill: #3c3d3d;text-anchor:middle;font-family:sans-serif;font-style:normal;font-weight:normal" x="712.626" y="307.565">
    <tspan x="712.626" y="307.565">70</tspan>
  </text>
  <g>
    <ellipse style="fill: #00ff00" cx="392.425" cy="398.325" rx="29.025" ry="29.025"/>
    <ellipse style="fill: none; fill-opacity:0; stroke-width: 2; stroke: #3c3d3d" cx="392.425" cy="398.325" rx="29.025" ry="29.025"/>
    <ellipse style="fill: none; fill-opacity:0; stroke-width: 2; stroke: #3c3d3d" cx="392.425" cy="398.325" rx="29.025" ry="29.025"/>
  </g>
  <text font-size="28.2222" style="fill: #3c3d3d;text-anchor:middle;font-family:sans-serif;font-style:normal;font-weight:normal" x="392.426" y="407.665">
    <tspan x="392.426" y="407.665">30</tspan>
  </text>
  <g>
    <ellipse style="fill: #00ff00" cx="545.225" cy="400.425" rx="29.025" ry="29.025"/>
    <ellipse style="fill: none; fill-opacity:0; stroke-width: 2; stroke: #3c3d3d" cx="545.225" cy="400.425" rx="29.025" ry="29.025"/>
    <ellipse style="fill: none; fill-opacity:0; stroke-width: 2; stroke: #3c3d3d" cx="545.225" cy="400.425" rx="29.025" ry="29.025"/>
  </g>
  <text font-size="28.2222" style="fill: #3c3d3d;text-anchor:middle;font-family:sans-serif;font-style:normal;font-weight:normal" x="545.226" y="409.765">
    <tspan x="545.226" y="409.765">58</tspan>
  </text>
  <g>
    <ellipse style="fill: #00ff00" cx="435.025" cy="508.525" rx="29.025" ry="29.025"/>
    <ellipse style="fill: none; fill-opacity:0; stroke-width: 2; stroke: #3c3d3d" cx="435.025" cy="508.525" rx="29.025" ry="29.025"/>
    <ellipse style="fill: none; fill-opacity:0; stroke-width: 2; stroke: #3c3d3d" cx="435.025" cy="508.525" rx="29.025" ry="29.025"/>
  </g>
  <text font-size="28.2222" style="fill: #3c3d3d;text-anchor:middle;font-family:sans-serif;font-style:normal;font-weight:normal" x="435.025" y="518.275">
    <tspan x="435.025" y="518.275">46</tspan>
  </text>
  <g>
    <ellipse style="fill: #00ff00" cx="788.825" cy="410.625" rx="29.025" ry="29.025"/>
    <ellipse style="fill: none; fill-opacity:0; stroke-width: 2; stroke: #3c3d3d" cx="788.825" cy="410.625" rx="29.025" ry="29.025"/>
    <ellipse style="fill: none; fill-opacity:0; stroke-width: 2; stroke: #3c3d3d" cx="788.825" cy="410.625" rx="29.025" ry="29.025"/>
  </g>
  <text font-size="28.2222" style="fill: #3c3d3d;text-anchor:middle;font-family:sans-serif;font-style:normal;font-weight:normal" x="788.826" y="419.965">
    <tspan x="788.826" y="419.965">80</tspan>
  </text>
  <g>
    <ellipse style="fill: #00ff00" cx="717.625" cy="513.725" rx="29.025" ry="29.025"/>
    <ellipse style="fill: none; fill-opacity:0; stroke-width: 2; stroke: #3c3d3d" cx="717.625" cy="513.725" rx="29.025" ry="29.025"/>
    <ellipse style="fill: none; fill-opacity:0; stroke-width: 2; stroke: #3c3d3d" cx="717.625" cy="513.725" rx="29.025" ry="29.025"/>
  </g>
  <text font-size="28.2222" style="fill: #3c3d3d;text-anchor:middle;font-family:sans-serif;font-style:normal;font-weight:normal" x="717.626" y="523.065">
    <tspan x="717.626" y="523.065">77</tspan>
  </text>
  <text font-size="12.8" style="fill: #3c3d3d;text-anchor:start;font-family:sans-serif;font-style:normal;font-weight:normal" x="485" y="305">
    <tspan x="485" y="305"></tspan>
  </text>
  <g>
    <line style="fill: none; fill-opacity:0; stroke-width: 2; stroke: #3c3d3d" x1="581.48" y1="192.209" x2="512.623" y2="266.951"/>
    <polygon style="fill: #3c3d3d" points="508.946,263.563 505.848,274.306 516.301,270.339 "/>
    <polygon style="fill: none; fill-opacity:0; stroke-width: 2; stroke: #3c3d3d" points="508.946,263.563 505.848,274.306 516.301,270.339 "/>
  </g>
  <g>
    <line style="fill: none; fill-opacity:0; stroke-width: 2; stroke: #3c3d3d" x1="464.59" y1="319.287" x2="420.077" y2="368.039"/>
    <polygon style="fill: #3c3d3d" points="416.385,364.668 413.334,375.424 423.769,371.411 "/>
    <polygon style="fill: none; fill-opacity:0; stroke-width: 2; stroke: #3c3d3d" points="416.385,364.668 413.334,375.424 423.769,371.411 "/>
  </g>
  <g>
    <line style="fill: none; fill-opacity:0; stroke-width: 2; stroke: #3c3d3d" x1="499.954" y1="323" x2="524.543" y2="365.054"/>
    <polygon style="fill: #3c3d3d" points="520.227,367.577 529.591,373.686 528.86,362.53 "/>
    <polygon style="fill: none; fill-opacity:0; stroke-width: 2; stroke: #3c3d3d" points="520.227,367.577 529.591,373.686 528.86,362.53 "/>
  </g>
  <g>
    <line style="fill: none; fill-opacity:0; stroke-width: 2; stroke: #3c3d3d" x1="403.247" y1="426.319" x2="420.237" y2="470.271"/>
    <polygon style="fill: #3c3d3d" points="415.573,472.074 423.843,479.598 424.901,468.468 "/>
    <polygon style="fill: none; fill-opacity:0; stroke-width: 2; stroke: #3c3d3d" points="415.573,472.074 423.843,479.598 424.901,468.468 "/>
  </g>
  <g>
    <line style="fill: none; fill-opacity:0; stroke-width: 2; stroke: #3c3d3d" x1="621.471" y1="192.838" x2="685.783" y2="267.192"/>
    <polygon style="fill: #3c3d3d" points="682.002,270.463 692.325,274.756 689.565,263.921 "/>
    <polygon style="fill: none; fill-opacity:0; stroke-width: 2; stroke: #3c3d3d" points="682.002,270.463 692.325,274.756 689.565,263.921 "/>
  </g>
  <g>
    <line style="fill: none; fill-opacity:0; stroke-width: 2; stroke: #3c3d3d" x1="729.461" y1="323.059" x2="765.816" y2="376.686"/>
    <polygon style="fill: #3c3d3d" points="761.678,379.491 771.428,384.963 769.955,373.88 "/>
    <polygon style="fill: none; fill-opacity:0; stroke-width: 2; stroke: #3c3d3d" points="761.678,379.491 771.428,384.963 769.955,373.88 "/>
  </g>
  <g>
    <line style="fill: none; fill-opacity:0; stroke-width: 2; stroke: #3c3d3d" x1="771.772" y1="435.318" x2="740.928" y2="479.981"/>
    <polygon style="fill: #3c3d3d" points="736.814,477.14 735.246,488.209 745.043,482.822 "/>
    <polygon style="fill: none; fill-opacity:0; stroke-width: 2; stroke: #3c3d3d" points="736.814,477.14 735.246,488.209 745.043,482.822 "/>
  </g>
  <g>
    <rect style="fill: #ff8215" x="412.645" y="103" width="27.7581" height="28.6833"/>
    <rect style="fill: none; fill-opacity:0; stroke-width: 2; stroke: #3c3d3d" x="412.645" y="103" width="27.7581" height="28.6833"/>
    <rect style="fill: none; fill-opacity:0; stroke-width: 2; stroke: #3c3d3d" x="412.645" y="103" width="27.7581" height="28.6833"/>
  </g>
  <g>
    <line style="fill: none; fill-opacity:0; stroke-width: 2; stroke: #3c3d3d" x1="441.332" y1="121.8" x2="563.217" y2="158.5"/>
    <polygon style="fill: #3c3d3d" points="561.775,163.288 572.792,161.383 564.658,153.712 "/>
    <polygon style="fill: none; fill-opacity:0; stroke-width: 2; stroke: #3c3d3d" points="561.775,163.288 572.792,161.383 564.658,153.712 "/>
  </g>
  <text font-size="22.5774" style="fill: #3c3d3d;text-anchor:start;font-family:sans-serif;font-style:normal;font-weight:normal" x="402" y="92">
    <tspan x="402" y="92">root</tspan>
  </text>
  <text font-size="12.7998" style="fill: #3c3d3d;text-anchor:start;font-family:sans-serif;font-style:normal;font-weight:normal" x="481" y="295">
    <tspan x="481" y="295"></tspan>
  </text>
  <text font-size="12.7998" style="fill: #3c3d3d;text-anchor:start;font-family:sans-serif;font-style:normal;font-weight:normal" x="396" y="402">
    <tspan x="396" y="402"></tspan>
  </text>
  <text font-size="12.7998" style="fill: #3c3d3d;text-anchor:start;font-family:sans-serif;font-style:normal;font-weight:normal" x="601" y="177">
    <tspan x="601" y="177"></tspan>
  </text>
  <g>
    <ellipse style="fill: #ff8215" cx="510.825" cy="508.125" rx="29.025" ry="29.025"/>
    <ellipse style="fill: none; fill-opacity:0; stroke-width: 2; stroke: #ff0000" cx="510.825" cy="508.125" rx="29.025" ry="29.025"/>
    <ellipse style="fill: none; fill-opacity:0; stroke-width: 2; stroke: #ff0000" cx="510.825" cy="508.125" rx="29.025" ry="29.025"/>
  </g>
  <text font-size="28.2222" style="fill: #3c3d3d;text-anchor:middle;font-family:sans-serif;font-style:normal;font-weight:normal" x="510.825" y="517.875">
    <tspan x="510.825" y="517.875">55</tspan>
  </text>
  <text font-size="12.7998" style="fill: #3c3d3d;text-anchor:start;font-family:sans-serif;font-style:normal;font-weight:normal" x="516" y="509">
    <tspan x="516" y="509"></tspan>
  </text>
  <g>
    <line style="fill: none; fill-opacity:0; stroke-width: 2; stroke: #ff0000" x1="572" y1="188" x2="504.574" y2="259.022"/>
    <polygon style="fill: #ff0000" points="500.947,255.58 497.689,266.275 508.2,262.465 "/>
    <polygon style="fill: none; fill-opacity:0; stroke-width: 2; stroke: #ff0000" points="500.947,255.58 497.689,266.275 508.2,262.465 "/>
  </g>
  <g>
    <line style="fill: none; fill-opacity:0; stroke-width: 2; stroke: #ff0000" x1="511" y1="319" x2="534.898" y2="354.847"/>
    <polygon style="fill: #ff0000" points="530.738,357.621 540.445,363.168 539.059,352.074 "/>
    <polygon style="fill: none; fill-opacity:0; stroke-width: 2; stroke: #ff0000" points="530.738,357.621 540.445,363.168 539.059,352.074 "/>
  </g>
  <g>
    <line style="fill: none; fill-opacity:0; stroke-width: 2; stroke: #ff0000" x1="536.356" y1="428.191" x2="523.041" y2="469.88"/>
    <polygon style="fill: #ff0000" points="518.278,468.359 519.998,479.406 527.804,471.401 "/>
    <polygon style="fill: none; fill-opacity:0; stroke-width: 2; stroke: #ff0000" points="518.278,468.359 519.998,479.406 527.804,471.401 "/>
  </g>
  <text font-size="16.9331" style="fill: #ff0000;text-anchor:start;font-family:sans-serif;font-style:normal;font-weight:normal" x="497" y="216">
    <tspan x="497" y="216">&lt;60</tspan>
  </text>
  <text font-size="16.9331" style="fill: #ff0000;text-anchor:start;font-family:sans-serif;font-style:normal;font-weight:normal" x="534.8" y="332.85">
    <tspan x="534.8" y="332.85">&gt;50</tspan>
  </text>
  <text font-size="16.9331" style="fill: #ff0000;text-anchor:start;font-family:sans-serif;font-style:normal;font-weight:normal" x="535.6" y="458.95">
    <tspan x="535.6" y="458.95">&lt;58</tspan>
  </text>
</svg>
