<?xml version="1.0" encoding="UTF-8" standalone="no"?>
<!DOCTYPE svg PUBLIC "-//W3C//DTD SVG 1.0//EN" "http://www.w3.org/TR/2001/PR-SVG-20010719/DTD/svg10.dtd">
<svg width="43cm" height="20cm" viewBox="181 -31 847 396" xmlns="http://www.w3.org/2000/svg" xmlns:xlink="http://www.w3.org/1999/xlink">
  <g>
    <ellipse style="fill: #00ff00" cx="660" cy="2" rx="31" ry="31"/>
    <ellipse style="fill: none; fill-opacity:0; stroke-width: 2; stroke: #3c3d3d" cx="660" cy="2" rx="31" ry="31"/>
    <ellipse style="fill: none; fill-opacity:0; stroke-width: 2; stroke: #3c3d3d" cx="660" cy="2" rx="31" ry="31"/>
  </g>
  <text font-size="22.5774" style="fill: #3c3d3d;text-anchor:middle;font-family:sans-serif;font-style:normal;font-weight:normal" x="660" y="9.825">
    <tspan x="660" y="9.825">89</tspan>
  </text>
  <g>
    <ellipse style="fill: #ff8215" cx="416.8" cy="99.1" rx="31" ry="31"/>
    <ellipse style="fill: none; fill-opacity:0; stroke-width: 2; stroke: #3c3d3d" cx="416.8" cy="99.1" rx="31" ry="31"/>
    <ellipse style="fill: none; fill-opacity:0; stroke-width: 2; stroke: #3c3d3d" cx="416.8" cy="99.1" rx="31" ry="31"/>
  </g>
  <text font-size="22.5774" style="fill: #3c3d3d;text-anchor:middle;font-family:sans-serif;font-style:normal;font-weight:normal" x="416.8" y="106.596">
    <tspan x="416.8" y="106.596">8</tspan>
  </text>
  <g>
    <ellipse style="fill: #00ff00" cx="803.6" cy="199.2" rx="31" ry="31"/>
    <ellipse style="fill: none; fill-opacity:0; stroke-width: 2; stroke: #3c3d3d" cx="803.6" cy="199.2" rx="31" ry="31"/>
    <ellipse style="fill: none; fill-opacity:0; stroke-width: 2; stroke: #3c3d3d" cx="803.6" cy="199.2" rx="31" ry="31"/>
  </g>
  <text font-size="22.5774" style="fill: #3c3d3d;text-anchor:middle;font-family:sans-serif;font-style:normal;font-weight:normal" x="803.6" y="207.025">
    <tspan x="803.6" y="207.025">70</tspan>
  </text>
  <g>
    <ellipse style="fill: #00ff00" cx="301.4" cy="209.3" rx="31" ry="31"/>
    <ellipse style="fill: none; fill-opacity:0; stroke-width: 2; stroke: #3c3d3d" cx="301.4" cy="209.3" rx="31" ry="31"/>
    <ellipse style="fill: none; fill-opacity:0; stroke-width: 2; stroke: #3c3d3d" cx="301.4" cy="209.3" rx="31" ry="31"/>
  </g>
  <text font-size="22.5774" style="fill: #3c3d3d;text-anchor:middle;font-family:sans-serif;font-style:normal;font-weight:normal" x="301.4" y="216.796">
    <tspan x="301.4" y="216.796">36</tspan>
  </text>
  <g>
    <ellipse style="fill: #00ff00" cx="517.2" cy="211.4" rx="31" ry="31"/>
    <ellipse style="fill: none; fill-opacity:0; stroke-width: 2; stroke: #3c3d3d" cx="517.2" cy="211.4" rx="31" ry="31"/>
    <ellipse style="fill: none; fill-opacity:0; stroke-width: 2; stroke: #3c3d3d" cx="517.2" cy="211.4" rx="31" ry="31"/>
  </g>
  <text font-size="22.5774" style="fill: #3c3d3d;text-anchor:middle;font-family:sans-serif;font-style:normal;font-weight:normal" x="517.2" y="219.225">
    <tspan x="517.2" y="219.225">75</tspan>
  </text>
  <g>
    <ellipse style="fill: #00ff00" cx="995.8" cy="199.6" rx="31" ry="31"/>
    <ellipse style="fill: none; fill-opacity:0; stroke-width: 2; stroke: #3c3d3d" cx="995.8" cy="199.6" rx="31" ry="31"/>
    <ellipse style="fill: none; fill-opacity:0; stroke-width: 2; stroke: #3c3d3d" cx="995.8" cy="199.6" rx="31" ry="31"/>
  </g>
  <text font-size="22.5774" style="fill: #3c3d3d;text-anchor:middle;font-family:sans-serif;font-style:normal;font-weight:normal" x="995.8" y="207.096">
    <tspan x="995.8" y="207.096">65</tspan>
  </text>
  <g>
    <ellipse style="fill: #00ff00" cx="213.6" cy="326.7" rx="31" ry="31"/>
    <ellipse style="fill: none; fill-opacity:0; stroke-width: 2; stroke: #3c3d3d" cx="213.6" cy="326.7" rx="31" ry="31"/>
    <ellipse style="fill: none; fill-opacity:0; stroke-width: 2; stroke: #3c3d3d" cx="213.6" cy="326.7" rx="31" ry="31"/>
  </g>
  <text font-size="22.5774" style="fill: #3c3d3d;text-anchor:middle;font-family:sans-serif;font-style:normal;font-weight:normal" x="213.6" y="334.196">
    <tspan x="213.6" y="334.196">21</tspan>
  </text>
  <g>
    <ellipse style="fill: #00ff00" cx="349.4" cy="328.8" rx="31" ry="31"/>
    <ellipse style="fill: none; fill-opacity:0; stroke-width: 2; stroke: #3c3d3d" cx="349.4" cy="328.8" rx="31" ry="31"/>
    <ellipse style="fill: none; fill-opacity:0; stroke-width: 2; stroke: #3c3d3d" cx="349.4" cy="328.8" rx="31" ry="31"/>
  </g>
  <text font-size="22.5774" style="fill: #3c3d3d;text-anchor:middle;font-family:sans-serif;font-style:normal;font-weight:normal" x="349.4" y="336.296">
    <tspan x="349.4" y="336.296">18</tspan>
  </text>
  <g>
    <ellipse style="fill: #00ff00" cx="454.2" cy="333.9" rx="31" ry="31"/>
    <ellipse style="fill: none; fill-opacity:0; stroke-width: 2; stroke: #3c3d3d" cx="454.2" cy="333.9" rx="31" ry="31"/>
    <ellipse style="fill: none; fill-opacity:0; stroke-width: 2; stroke: #3c3d3d" cx="454.2" cy="333.9" rx="31" ry="31"/>
  </g>
  <text font-size="22.5774" style="fill: #3c3d3d;text-anchor:middle;font-family:sans-serif;font-style:normal;font-weight:normal" x="454.2" y="341.396">
    <tspan x="454.2" y="341.396">15</tspan>
  </text>
  <g>
    <line style="fill: none; fill-opacity:0; stroke-width: 2; stroke: #3c3d3d" x1="630.275" y1="13.8678" x2="456.74" y2="83.1534"/>
    <polygon style="fill: #3c3d3d" points="454.886,78.5098 447.453,86.8614 458.594,87.7969 "/>
    <polygon style="fill: none; fill-opacity:0; stroke-width: 2; stroke: #3c3d3d" points="454.886,78.5098 447.453,86.8614 458.594,87.7969 "/>
  </g>
  <g>
    <line style="fill: none; fill-opacity:0; stroke-width: 2; stroke: #3c3d3d" x1="393.662" y1="121.195" x2="332.493" y2="179.608"/>
    <polygon style="fill: #3c3d3d" points="329.04,175.992 325.261,186.514 335.946,183.224 "/>
    <polygon style="fill: none; fill-opacity:0; stroke-width: 2; stroke: #3c3d3d" points="329.04,175.992 325.261,186.514 335.946,183.224 "/>
  </g>
  <g>
    <line style="fill: none; fill-opacity:0; stroke-width: 2; stroke: #3c3d3d" x1="282.231" y1="234.931" x2="239.357" y2="292.26"/>
    <polygon style="fill: #3c3d3d" points="235.353,289.265 233.368,300.268 243.361,295.254 "/>
    <polygon style="fill: none; fill-opacity:0; stroke-width: 2; stroke: #3c3d3d" points="235.353,289.265 233.368,300.268 243.361,295.254 "/>
  </g>
  <g>
    <line style="fill: none; fill-opacity:0; stroke-width: 2; stroke: #3c3d3d" x1="313.318" y1="238.971" x2="333.382" y2="288.922"/>
    <polygon style="fill: #3c3d3d" points="328.742,290.786 337.109,298.201 338.022,287.058 "/>
    <polygon style="fill: none; fill-opacity:0; stroke-width: 2; stroke: #3c3d3d" points="328.742,290.786 337.109,298.201 338.022,287.058 "/>
  </g>
  <g>
    <line style="fill: none; fill-opacity:0; stroke-width: 2; stroke: #3c3d3d" x1="438.131" y1="122.96" x2="488.537" y2="179.34"/>
    <polygon style="fill: #3c3d3d" points="484.81,182.672 495.202,186.795 492.265,176.007 "/>
    <polygon style="fill: none; fill-opacity:0; stroke-width: 2; stroke: #3c3d3d" points="484.81,182.672 495.202,186.795 492.265,176.007 "/>
  </g>
  <g>
    <line style="fill: none; fill-opacity:0; stroke-width: 2; stroke: #3c3d3d" x1="689.63" y1="14.1046" x2="848.689" y2="79.0853"/>
    <polygon style="fill: #3c3d3d" points="846.798,83.714 857.947,82.8672 850.58,74.4567 "/>
    <polygon style="fill: none; fill-opacity:0; stroke-width: 2; stroke: #3c3d3d" points="846.798,83.714 857.947,82.8672 850.58,74.4567 "/>
  </g>
  <g>
    <line style="fill: none; fill-opacity:0; stroke-width: 2; stroke: #3c3d3d" x1="911.456" y1="117.652" x2="964.957" y2="169.633"/>
    <polygon style="fill: #3c3d3d" points="961.472,173.219 972.129,176.601 968.441,166.047 "/>
    <polygon style="fill: none; fill-opacity:0; stroke-width: 2; stroke: #3c3d3d" points="961.472,173.219 972.129,176.601 968.441,166.047 "/>
  </g>
  <g>
    <line style="fill: none; fill-opacity:0; stroke-width: 2; stroke: #3c3d3d" x1="502.619" y1="239.752" x2="473.812" y2="295.766"/>
    <polygon style="fill: #3c3d3d" points="469.365,293.479 469.238,304.659 478.258,298.053 "/>
    <polygon style="fill: none; fill-opacity:0; stroke-width: 2; stroke: #3c3d3d" points="469.365,293.479 469.238,304.659 478.258,298.053 "/>
  </g>
  <text font-size="12.7998" style="fill: #3c3d3d;text-anchor:start;font-family:sans-serif;font-style:normal;font-weight:normal" x="416.8" y="99.1">
    <tspan x="416.8" y="99.1"></tspan>
  </text>
  <text font-size="12.7998" style="fill: #3c3d3d;text-anchor:start;font-family:sans-serif;font-style:normal;font-weight:normal" x="300" y="213.25">
    <tspan x="300" y="213.25"></tspan>
  </text>
  <text font-size="12.7998" style="fill: #3c3d3d;text-anchor:start;font-family:sans-serif;font-style:normal;font-weight:normal" x="207" y="326.25">
    <tspan x="207" y="326.25"></tspan>
  </text>
  <text font-size="12.7998" style="fill: #3c3d3d;text-anchor:start;font-family:sans-serif;font-style:normal;font-weight:normal" x="349.4" y="328.8">
    <tspan x="349.4" y="328.8"></tspan>
  </text>
  <text font-size="12.7998" style="fill: #3c3d3d;text-anchor:start;font-family:sans-serif;font-style:normal;font-weight:normal" x="584" y="335.25">
    <tspan x="584" y="335.25"></tspan>
  </text>
  <text font-size="12.7998" style="fill: #3c3d3d;text-anchor:start;font-family:sans-serif;font-style:normal;font-weight:normal" x="576.8" y="332.35">
    <tspan x="576.8" y="332.35"></tspan>
  </text>
  <g>
    <ellipse style="fill: #00ff00" cx="888.502" cy="95.35" rx="31" ry="31"/>
    <ellipse style="fill: none; fill-opacity:0; stroke-width: 2; stroke: #3c3d3d" cx="888.502" cy="95.35" rx="31" ry="31"/>
    <ellipse style="fill: none; fill-opacity:0; stroke-width: 2; stroke: #3c3d3d" cx="888.502" cy="95.35" rx="31" ry="31"/>
  </g>
  <text font-size="22.5774" style="fill: #3c3d3d;text-anchor:middle;font-family:sans-serif;font-style:normal;font-weight:normal" x="888.502" y="103.175">
    <tspan x="888.502" y="103.175">80</tspan>
  </text>
  <text font-size="12.7998" style="fill: #3c3d3d;text-anchor:start;font-family:sans-serif;font-style:normal;font-weight:normal" x="725.702" y="334.25">
    <tspan x="725.702" y="334.25"></tspan>
  </text>
  <text font-size="12.7998" style="fill: #3c3d3d;text-anchor:start;font-family:sans-serif;font-style:normal;font-weight:normal" x="888.502" y="95.35">
    <tspan x="888.502" y="95.35"></tspan>
  </text>
  <text font-size="12.7998" style="fill: #3c3d3d;text-anchor:start;font-family:sans-serif;font-style:normal;font-weight:normal" x="888.502" y="95.35">
    <tspan x="888.502" y="95.35"></tspan>
  </text>
  <g>
    <line style="fill: none; fill-opacity:0; stroke-width: 2; stroke: #3c3d3d" x1="868.246" y1="120.127" x2="830.819" y2="165.907"/>
    <polygon style="fill: #3c3d3d" points="826.948,162.742 824.489,173.649 834.69,169.071 "/>
    <polygon style="fill: none; fill-opacity:0; stroke-width: 2; stroke: #3c3d3d" points="826.948,162.742 824.489,173.649 834.69,169.071 "/>
  </g>
  <text font-size="12.7998" style="fill: #3c3d3d;text-anchor:start;font-family:sans-serif;font-style:normal;font-weight:normal" x="579.702" y="339.25">
    <tspan x="579.702" y="339.25"></tspan>
  </text>
  <text font-size="12.7998" style="fill: #3c3d3d;text-anchor:start;font-family:sans-serif;font-style:normal;font-weight:normal" x="657.702" y="8.25">
    <tspan x="657.702" y="8.25"></tspan>
  </text>
  <text font-size="12.7998" style="fill: #3c3d3d;text-anchor:start;font-family:sans-serif;font-style:normal;font-weight:normal" x="409.702" y="101.25">
    <tspan x="409.702" y="101.25"></tspan>
  </text>
</svg>
