<?xml version="1.0" encoding="UTF-8" standalone="no"?>
<!DOCTYPE svg PUBLIC "-//W3C//DTD SVG 1.0//EN" "http://www.w3.org/TR/2001/PR-SVG-20010719/DTD/svg10.dtd">
<svg width="50cm" height="4cm" viewBox="299 398 994 62" xmlns="http://www.w3.org/2000/svg" xmlns:xlink="http://www.w3.org/1999/xlink">
  <g>
    <rect style="fill: #ffffff" x="300.792" y="399.939" width="98.5597" height="58.3577"/>
    <rect style="fill: none; fill-opacity:0; stroke-width: 2; stroke: #3c3d3d" x="300.792" y="399.939" width="98.5597" height="58.3577"/>
  </g>
  <g>
    <rect style="fill: #ffffff" x="400.222" y="400.356" width="98.5597" height="58.3577"/>
    <rect style="fill: none; fill-opacity:0; stroke-width: 2; stroke: #3c3d3d" x="400.222" y="400.356" width="98.5597" height="58.3577"/>
  </g>
  <g>
    <rect style="fill: #ffffff" x="499.3" y="400.42" width="98.5597" height="58.3577"/>
    <rect style="fill: none; fill-opacity:0; stroke-width: 2; stroke: #3c3d3d" x="499.3" y="400.42" width="98.5597" height="58.3577"/>
  </g>
  <g>
    <rect style="fill: #ffffff" x="597.73" y="401.134" width="98.5597" height="58.3577"/>
    <rect style="fill: none; fill-opacity:0; stroke-width: 2; stroke: #3c3d3d" x="597.73" y="401.134" width="98.5597" height="58.3577"/>
  </g>
  <g>
    <rect style="fill: #ffffff" x="696.809" y="401.198" width="98.5597" height="58.3577"/>
    <rect style="fill: none; fill-opacity:0; stroke-width: 2; stroke: #3c3d3d" x="696.809" y="401.198" width="98.5597" height="58.3577"/>
  </g>
  <g>
    <rect style="fill: #ffffff" x="796.536" y="401.263" width="98.5597" height="58.3577"/>
    <rect style="fill: none; fill-opacity:0; stroke-width: 2; stroke: #3c3d3d" x="796.536" y="401.263" width="98.5597" height="58.3577"/>
  </g>
  <g>
    <rect style="fill: #ffffff" x="896.262" y="401.328" width="98.5597" height="58.3577"/>
    <rect style="fill: none; fill-opacity:0; stroke-width: 2; stroke: #3c3d3d" x="896.262" y="401.328" width="98.5597" height="58.3577"/>
  </g>
  <g>
    <rect style="fill: #ffffff" x="995.341" y="401.393" width="98.5597" height="58.3577"/>
    <rect style="fill: none; fill-opacity:0; stroke-width: 2; stroke: #3c3d3d" x="995.341" y="401.393" width="98.5597" height="58.3577"/>
  </g>
  <g>
    <rect style="fill: #ffffff" x="1094.42" y="401.458" width="98.5597" height="58.3577"/>
    <rect style="fill: none; fill-opacity:0; stroke-width: 2; stroke: #3c3d3d" x="1094.42" y="401.458" width="98.5597" height="58.3577"/>
  </g>
  <g>
    <rect style="fill: #ffffff" x="1193.5" y="400.874" width="98.5597" height="58.3577"/>
    <rect style="fill: none; fill-opacity:0; stroke-width: 2; stroke: #3c3d3d" x="1193.5" y="400.874" width="98.5597" height="58.3577"/>
  </g>
  <text font-size="22.5774" style="fill: #3c3d3d;text-anchor:middle;font-family:sans-serif;font-style:normal;font-weight:normal" x="350.072" y="436.943">
    <tspan x="350.072" y="436.943">90</tspan>
  </text>
  <text font-size="22.5774" style="fill: #3c3d3d;text-anchor:middle;font-family:sans-serif;font-style:normal;font-weight:normal" x="449.502" y="437.03">
    <tspan x="449.502" y="437.03">89</tspan>
  </text>
  <text font-size="22.5774" style="fill: #3c3d3d;text-anchor:middle;font-family:sans-serif;font-style:normal;font-weight:normal" x="548.58" y="437.095">
    <tspan x="548.58" y="437.095">70</tspan>
  </text>
  <text font-size="22.5774" style="fill: #3c3d3d;text-anchor:middle;font-family:sans-serif;font-style:normal;font-weight:normal" x="647.01" y="437.808">
    <tspan x="647.01" y="437.808">36</tspan>
  </text>
  <text font-size="22.5774" style="fill: #3c3d3d;text-anchor:middle;font-family:sans-serif;font-style:normal;font-weight:normal" x="746.089" y="437.873">
    <tspan x="746.089" y="437.873">75</tspan>
  </text>
  <text font-size="22.5774" style="fill: #3c3d3d;text-anchor:middle;font-family:sans-serif;font-style:normal;font-weight:normal" x="845.815" y="437.938">
    <tspan x="845.815" y="437.938">63</tspan>
  </text>
  <text font-size="22.5774" style="fill: #3c3d3d;text-anchor:middle;font-family:sans-serif;font-style:normal;font-weight:normal" x="945.542" y="438.003">
    <tspan x="945.542" y="438.003">65</tspan>
  </text>
  <text font-size="22.5774" style="fill: #3c3d3d;text-anchor:middle;font-family:sans-serif;font-style:normal;font-weight:normal" x="1044.62" y="438.068">
    <tspan x="1044.62" y="438.068">21</tspan>
  </text>
  <text font-size="22.5774" style="fill: #3c3d3d;text-anchor:middle;font-family:sans-serif;font-style:normal;font-weight:normal" x="1143.7" y="438.132">
    <tspan x="1143.7" y="438.132">18</tspan>
  </text>
  <text font-size="22.5774" style="fill: #3c3d3d;text-anchor:middle;font-family:sans-serif;font-style:normal;font-weight:normal" x="1242.78" y="437.549">
    <tspan x="1242.78" y="437.549">15</tspan>
  </text>
  <text font-size="12.7998" style="fill: #3c3d3d;text-anchor:start;font-family:sans-serif;font-style:normal;font-weight:normal" x="445.686" y="426.524">
    <tspan x="445.686" y="426.524"></tspan>
  </text>
</svg>
