<?xml version="1.0" encoding="UTF-8" standalone="no"?>
<!DOCTYPE svg PUBLIC "-//W3C//DTD SVG 1.0//EN" "http://www.w3.org/TR/2001/PR-SVG-20010719/DTD/svg10.dtd">
<svg width="43cm" height="20cm" viewBox="181 -31 847 396" xmlns="http://www.w3.org/2000/svg" xmlns:xlink="http://www.w3.org/1999/xlink">
  <g>
    <ellipse style="fill: #00ff00" cx="660" cy="2" rx="31" ry="31"/>
    <ellipse style="fill: none; fill-opacity:0; stroke-width: 2; stroke: #3c3d3d" cx="660" cy="2" rx="31" ry="31"/>
    <ellipse style="fill: none; fill-opacity:0; stroke-width: 2; stroke: #3c3d3d" cx="660" cy="2" rx="31" ry="31"/>
  </g>
  <text font-size="22.5774" style="fill: #3c3d3d;text-anchor:middle;font-family:sans-serif;font-style:normal;font-weight:normal" x="660" y="9.825">
    <tspan x="660" y="9.825">90</tspan>
  </text>
  <g>
    <ellipse style="fill: #00ff00" cx="416.8" cy="99.1" rx="31" ry="31"/>
    <ellipse style="fill: none; fill-opacity:0; stroke-width: 2; stroke: #3c3d3d" cx="416.8" cy="99.1" rx="31" ry="31"/>
    <ellipse style="fill: none; fill-opacity:0; stroke-width: 2; stroke: #3c3d3d" cx="416.8" cy="99.1" rx="31" ry="31"/>
  </g>
  <text font-size="22.5774" style="fill: #3c3d3d;text-anchor:middle;font-family:sans-serif;font-style:normal;font-weight:normal" x="416.8" y="106.596">
    <tspan x="416.8" y="106.596">89</tspan>
  </text>
  <g>
    <ellipse style="fill: #00ff00" cx="891.6" cy="101.2" rx="31" ry="31"/>
    <ellipse style="fill: none; fill-opacity:0; stroke-width: 2; stroke: #3c3d3d" cx="891.6" cy="101.2" rx="31" ry="31"/>
    <ellipse style="fill: none; fill-opacity:0; stroke-width: 2; stroke: #3c3d3d" cx="891.6" cy="101.2" rx="31" ry="31"/>
  </g>
  <text font-size="22.5774" style="fill: #3c3d3d;text-anchor:middle;font-family:sans-serif;font-style:normal;font-weight:normal" x="891.6" y="108.696">
    <tspan x="891.6" y="108.696">70</tspan>
  </text>
  <g>
    <ellipse style="fill: #00ff00" cx="301.4" cy="209.3" rx="31" ry="31"/>
    <ellipse style="fill: none; fill-opacity:0; stroke-width: 2; stroke: #3c3d3d" cx="301.4" cy="209.3" rx="31" ry="31"/>
    <ellipse style="fill: none; fill-opacity:0; stroke-width: 2; stroke: #3c3d3d" cx="301.4" cy="209.3" rx="31" ry="31"/>
  </g>
  <text font-size="22.5774" style="fill: #3c3d3d;text-anchor:middle;font-family:sans-serif;font-style:normal;font-weight:normal" x="301.4" y="216.796">
    <tspan x="301.4" y="216.796">36</tspan>
  </text>
  <g>
    <ellipse style="fill: #00ff00" cx="517.2" cy="211.4" rx="31" ry="31"/>
    <ellipse style="fill: none; fill-opacity:0; stroke-width: 2; stroke: #3c3d3d" cx="517.2" cy="211.4" rx="31" ry="31"/>
    <ellipse style="fill: none; fill-opacity:0; stroke-width: 2; stroke: #3c3d3d" cx="517.2" cy="211.4" rx="31" ry="31"/>
  </g>
  <text font-size="22.5774" style="fill: #3c3d3d;text-anchor:middle;font-family:sans-serif;font-style:normal;font-weight:normal" x="517.2" y="219.225">
    <tspan x="517.2" y="219.225">75</tspan>
  </text>
  <g>
    <ellipse style="fill: #00ff00" cx="787" cy="205.5" rx="31" ry="31"/>
    <ellipse style="fill: none; fill-opacity:0; stroke-width: 2; stroke: #3c3d3d" cx="787" cy="205.5" rx="31" ry="31"/>
    <ellipse style="fill: none; fill-opacity:0; stroke-width: 2; stroke: #3c3d3d" cx="787" cy="205.5" rx="31" ry="31"/>
  </g>
  <text font-size="22.5774" style="fill: #3c3d3d;text-anchor:middle;font-family:sans-serif;font-style:normal;font-weight:normal" x="787" y="212.996">
    <tspan x="787" y="212.996">63</tspan>
  </text>
  <g>
    <ellipse style="fill: #00ff00" cx="995.8" cy="199.6" rx="31" ry="31"/>
    <ellipse style="fill: none; fill-opacity:0; stroke-width: 2; stroke: #3c3d3d" cx="995.8" cy="199.6" rx="31" ry="31"/>
    <ellipse style="fill: none; fill-opacity:0; stroke-width: 2; stroke: #3c3d3d" cx="995.8" cy="199.6" rx="31" ry="31"/>
  </g>
  <text font-size="22.5774" style="fill: #3c3d3d;text-anchor:middle;font-family:sans-serif;font-style:normal;font-weight:normal" x="995.8" y="207.096">
    <tspan x="995.8" y="207.096">65</tspan>
  </text>
  <g>
    <ellipse style="fill: #00ff00" cx="213.6" cy="326.7" rx="31" ry="31"/>
    <ellipse style="fill: none; fill-opacity:0; stroke-width: 2; stroke: #3c3d3d" cx="213.6" cy="326.7" rx="31" ry="31"/>
    <ellipse style="fill: none; fill-opacity:0; stroke-width: 2; stroke: #3c3d3d" cx="213.6" cy="326.7" rx="31" ry="31"/>
  </g>
  <text font-size="22.5774" style="fill: #3c3d3d;text-anchor:middle;font-family:sans-serif;font-style:normal;font-weight:normal" x="213.6" y="334.196">
    <tspan x="213.6" y="334.196">21</tspan>
  </text>
  <g>
    <ellipse style="fill: #00ff00" cx="349.4" cy="328.8" rx="31" ry="31"/>
    <ellipse style="fill: none; fill-opacity:0; stroke-width: 2; stroke: #3c3d3d" cx="349.4" cy="328.8" rx="31" ry="31"/>
    <ellipse style="fill: none; fill-opacity:0; stroke-width: 2; stroke: #3c3d3d" cx="349.4" cy="328.8" rx="31" ry="31"/>
  </g>
  <text font-size="22.5774" style="fill: #3c3d3d;text-anchor:middle;font-family:sans-serif;font-style:normal;font-weight:normal" x="349.4" y="336.296">
    <tspan x="349.4" y="336.296">18</tspan>
  </text>
  <g>
    <ellipse style="fill: #00ff00" cx="454.2" cy="333.9" rx="31" ry="31"/>
    <ellipse style="fill: none; fill-opacity:0; stroke-width: 2; stroke: #3c3d3d" cx="454.2" cy="333.9" rx="31" ry="31"/>
    <ellipse style="fill: none; fill-opacity:0; stroke-width: 2; stroke: #3c3d3d" cx="454.2" cy="333.9" rx="31" ry="31"/>
  </g>
  <text font-size="22.5774" style="fill: #3c3d3d;text-anchor:middle;font-family:sans-serif;font-style:normal;font-weight:normal" x="454.2" y="341.396">
    <tspan x="454.2" y="341.396">15</tspan>
  </text>
  <g>
    <line style="fill: none; fill-opacity:0; stroke-width: 2; stroke: #3c3d3d" x1="630.275" y1="13.8678" x2="456.74" y2="83.1534"/>
    <polygon style="fill: #3c3d3d" points="454.886,78.5098 447.453,86.8614 458.594,87.7969 "/>
    <polygon style="fill: none; fill-opacity:0; stroke-width: 2; stroke: #3c3d3d" points="454.886,78.5098 447.453,86.8614 458.594,87.7969 "/>
  </g>
  <g>
    <line style="fill: none; fill-opacity:0; stroke-width: 2; stroke: #3c3d3d" x1="393.662" y1="121.195" x2="332.493" y2="179.608"/>
    <polygon style="fill: #3c3d3d" points="329.04,175.992 325.261,186.514 335.946,183.224 "/>
    <polygon style="fill: none; fill-opacity:0; stroke-width: 2; stroke: #3c3d3d" points="329.04,175.992 325.261,186.514 335.946,183.224 "/>
  </g>
  <g>
    <line style="fill: none; fill-opacity:0; stroke-width: 2; stroke: #3c3d3d" x1="282.231" y1="234.931" x2="239.357" y2="292.26"/>
    <polygon style="fill: #3c3d3d" points="235.353,289.265 233.368,300.268 243.361,295.254 "/>
    <polygon style="fill: none; fill-opacity:0; stroke-width: 2; stroke: #3c3d3d" points="235.353,289.265 233.368,300.268 243.361,295.254 "/>
  </g>
  <g>
    <line style="fill: none; fill-opacity:0; stroke-width: 2; stroke: #3c3d3d" x1="313.318" y1="238.971" x2="333.382" y2="288.922"/>
    <polygon style="fill: #3c3d3d" points="328.742,290.786 337.109,298.201 338.022,287.058 "/>
    <polygon style="fill: none; fill-opacity:0; stroke-width: 2; stroke: #3c3d3d" points="328.742,290.786 337.109,298.201 338.022,287.058 "/>
  </g>
  <g>
    <line style="fill: none; fill-opacity:0; stroke-width: 2; stroke: #3c3d3d" x1="438.131" y1="122.96" x2="488.537" y2="179.34"/>
    <polygon style="fill: #3c3d3d" points="484.81,182.672 495.202,186.795 492.265,176.007 "/>
    <polygon style="fill: none; fill-opacity:0; stroke-width: 2; stroke: #3c3d3d" points="484.81,182.672 495.202,186.795 492.265,176.007 "/>
  </g>
  <g>
    <line style="fill: none; fill-opacity:0; stroke-width: 2; stroke: #3c3d3d" x1="689.416" y1="14.5998" x2="852.072" y2="84.2692"/>
    <polygon style="fill: #3c3d3d" points="850.103,88.8653 861.264,88.2065 854.041,79.6731 "/>
    <polygon style="fill: none; fill-opacity:0; stroke-width: 2; stroke: #3c3d3d" points="850.103,88.8653 861.264,88.2065 854.041,79.6731 "/>
  </g>
  <g>
    <line style="fill: none; fill-opacity:0; stroke-width: 2; stroke: #3c3d3d" x1="914.864" y1="123.169" x2="964.538" y2="170.078"/>
    <polygon style="fill: #3c3d3d" points="961.105,173.713 971.809,176.944 967.971,166.443 "/>
    <polygon style="fill: none; fill-opacity:0; stroke-width: 2; stroke: #3c3d3d" points="961.105,173.713 971.809,176.944 967.971,166.443 "/>
  </g>
  <g>
    <line style="fill: none; fill-opacity:0; stroke-width: 2; stroke: #3c3d3d" x1="868.942" y1="123.793" x2="817.447" y2="175.14"/>
    <polygon style="fill: #3c3d3d" points="813.917,171.6 810.366,182.201 820.978,178.681 "/>
    <polygon style="fill: none; fill-opacity:0; stroke-width: 2; stroke: #3c3d3d" points="813.917,171.6 810.366,182.201 820.978,178.681 "/>
  </g>
  <g>
    <line style="fill: none; fill-opacity:0; stroke-width: 2; stroke: #3c3d3d" x1="502.619" y1="239.752" x2="473.812" y2="295.766"/>
    <polygon style="fill: #3c3d3d" points="469.365,293.479 469.238,304.659 478.258,298.053 "/>
    <polygon style="fill: none; fill-opacity:0; stroke-width: 2; stroke: #3c3d3d" points="469.365,293.479 469.238,304.659 478.258,298.053 "/>
  </g>
  <text font-size="12.7998" style="fill: #3c3d3d;text-anchor:start;font-family:sans-serif;font-style:normal;font-weight:normal" x="416.8" y="99.1">
    <tspan x="416.8" y="99.1"></tspan>
  </text>
  <text font-size="12.7998" style="fill: #3c3d3d;text-anchor:start;font-family:sans-serif;font-style:normal;font-weight:normal" x="300" y="213.25">
    <tspan x="300" y="213.25"></tspan>
  </text>
  <text font-size="12.7998" style="fill: #3c3d3d;text-anchor:start;font-family:sans-serif;font-style:normal;font-weight:normal" x="207" y="326.25">
    <tspan x="207" y="326.25"></tspan>
  </text>
  <text font-size="12.7998" style="fill: #3c3d3d;text-anchor:start;font-family:sans-serif;font-style:normal;font-weight:normal" x="349.4" y="328.8">
    <tspan x="349.4" y="328.8"></tspan>
  </text>
  <g>
    <ellipse style="fill: #00ff00" cx="576.8" cy="332.35" rx="31" ry="31"/>
    <ellipse style="fill: none; fill-opacity:0; stroke-width: 2; stroke: #3c3d3d" cx="576.8" cy="332.35" rx="31" ry="31"/>
    <ellipse style="fill: none; fill-opacity:0; stroke-width: 2; stroke: #3c3d3d" cx="576.8" cy="332.35" rx="31" ry="31"/>
  </g>
  <text font-size="22.5774" style="fill: #3c3d3d;text-anchor:middle;font-family:sans-serif;font-style:normal;font-weight:normal" x="576.8" y="340.175">
    <tspan x="576.8" y="340.175">8</tspan>
  </text>
  <text font-size="12.7998" style="fill: #3c3d3d;text-anchor:start;font-family:sans-serif;font-style:normal;font-weight:normal" x="584" y="335.25">
    <tspan x="584" y="335.25"></tspan>
  </text>
  <g>
    <line style="fill: none; fill-opacity:0; stroke-width: 2; stroke: #000000" x1="531.347" y1="240.109" x2="557.791" y2="293.774"/>
    <polygon style="fill: #000000" points="553.306,295.984 562.211,302.744 562.276,291.563 "/>
    <polygon style="fill: none; fill-opacity:0; stroke-width: 2; stroke: #000000" points="553.306,295.984 562.211,302.744 562.276,291.563 "/>
  </g>
  <text font-size="12.7998" style="fill: #3c3d3d;text-anchor:start;font-family:sans-serif;font-style:normal;font-weight:normal" x="576.8" y="332.35">
    <tspan x="576.8" y="332.35"></tspan>
  </text>
  <g>
    <ellipse style="fill: #ff8215" cx="718.502" cy="331.35" rx="31" ry="31"/>
    <ellipse style="fill: none; fill-opacity:0; stroke-width: 2; stroke: #3c3d3d" cx="718.502" cy="331.35" rx="31" ry="31"/>
    <ellipse style="fill: none; fill-opacity:0; stroke-width: 2; stroke: #3c3d3d" cx="718.502" cy="331.35" rx="31" ry="31"/>
  </g>
  <text font-size="22.5774" style="fill: #3c3d3d;text-anchor:middle;font-family:sans-serif;font-style:normal;font-weight:normal" x="718.502" y="338.846">
    <tspan x="718.502" y="338.846">80</tspan>
  </text>
  <text font-size="12.7998" style="fill: #3c3d3d;text-anchor:start;font-family:sans-serif;font-style:normal;font-weight:normal" x="725.702" y="334.25">
    <tspan x="725.702" y="334.25"></tspan>
  </text>
  <text font-size="12.7998" style="fill: #3c3d3d;text-anchor:start;font-family:sans-serif;font-style:normal;font-weight:normal" x="718.502" y="331.35">
    <tspan x="718.502" y="331.35"></tspan>
  </text>
  <text font-size="12.7998" style="fill: #3c3d3d;text-anchor:start;font-family:sans-serif;font-style:normal;font-weight:normal" x="718.502" y="331.35">
    <tspan x="718.502" y="331.35"></tspan>
  </text>
  <g>
    <line style="fill: none; fill-opacity:0; stroke-width: 2; stroke: #ff8215" x1="771.707" y1="233.598" x2="739.054" y2="293.59"/>
    <polygon style="fill: #ff8215" points="734.662,291.2 734.273,302.374 743.446,295.981 "/>
    <polygon style="fill: none; fill-opacity:0; stroke-width: 2; stroke: #ff8215" points="734.662,291.2 734.273,302.374 743.446,295.981 "/>
  </g>
  <g>
    <line style="fill: none; fill-opacity:0; stroke-width: 2; stroke: #ff0000" x1="752.496" y1="235.94" x2="726.908" y2="283.56"/>
    <polygon style="fill: #ff0000" points="756.9,238.306 757.229,227.131 748.091,233.573 "/>
    <polygon style="fill: none; fill-opacity:0; stroke-width: 2; stroke: #ff0000" points="756.9,238.306 757.229,227.131 748.091,233.573 "/>
    <polygon style="fill: #ff0000" points="722.504,281.194 722.175,292.369 731.313,285.927 "/>
    <polygon style="fill: none; fill-opacity:0; stroke-width: 2; stroke: #ff0000" points="722.504,281.194 722.175,292.369 731.313,285.927 "/>
  </g>
  <g>
    <line style="fill: none; fill-opacity:0; stroke-width: 2; stroke: #ff0000" x1="846.756" y1="123.856" x2="806.803" y2="162.098"/>
    <polygon style="fill: #ff0000" points="850.213,127.468 853.98,116.941 843.298,120.244 "/>
    <polygon style="fill: none; fill-opacity:0; stroke-width: 2; stroke: #ff0000" points="850.213,127.468 853.98,116.941 843.298,120.244 "/>
    <polygon style="fill: #ff0000" points="803.345,158.486 799.579,169.013 810.26,165.71 "/>
    <polygon style="fill: none; fill-opacity:0; stroke-width: 2; stroke: #ff0000" points="803.345,158.486 799.579,169.013 810.26,165.71 "/>
  </g>
  <g>
    <line style="fill: none; fill-opacity:0; stroke-width: 2; stroke: #ff0000" x1="710.917" y1="5.14375" x2="854.62" y2="67.8506"/>
    <polygon style="fill: none; fill-opacity:0; stroke-width: 2; stroke: #ff0000" points="712.917,0.561051 701.751,1.1443 708.917,9.72644 "/>
    <polygon style="fill: #ff0000" points="852.62,72.4333 863.785,71.8501 856.62,63.2679 "/>
    <polygon style="fill: none; fill-opacity:0; stroke-width: 2; stroke: #ff0000" points="852.62,72.4333 863.785,71.8501 856.62,63.2679 "/>
  </g>
</svg>
