<?xml version="1.0" encoding="UTF-8" standalone="no"?>
<!DOCTYPE svg PUBLIC "-//W3C//DTD SVG 1.0//EN" "http://www.w3.org/TR/2001/PR-SVG-20010719/DTD/svg10.dtd">
<svg width="77cm" height="9cm" viewBox="70 108 1536 174" xmlns="http://www.w3.org/2000/svg" xmlns:xlink="http://www.w3.org/1999/xlink">
  <g>
    <rect style="fill: #ff8215" x="165.6" y="185.2" width="32.6747" height="33.7639"/>
    <rect style="fill: none; fill-opacity:0; stroke-width: 2; stroke: #3c3d3d" x="165.6" y="185.2" width="32.6747" height="33.7639"/>
    <rect style="fill: none; fill-opacity:0; stroke-width: 2; stroke: #3c3d3d" x="165.6" y="185.2" width="32.6747" height="33.7639"/>
  </g>
  <text font-size="16.9331" style="fill: #3c3d3d;text-anchor:start;font-family:sans-serif;font-style:normal;font-weight:normal" x="110.6" y="205.95">
    <tspan x="110.6" y="205.95">curr</tspan>
  </text>
  <g>
    <rect style="fill: #52e5dc" x="262.542" y="114.1" width="102" height="62"/>
    <rect style="fill: none; fill-opacity:0; stroke-width: 2; stroke: #3c3d3d" x="262.542" y="114.1" width="102" height="62"/>
  </g>
  <g>
    <rect style="fill: #ff8215" x="363.342" y="114.2" width="102" height="62"/>
    <rect style="fill: none; fill-opacity:0; stroke-width: 2; stroke: #3c3d3d" x="363.342" y="114.2" width="102" height="62"/>
  </g>
  <text font-size="12.7998" style="fill: #3c3d3d;text-anchor:start;font-family:sans-serif;font-style:normal;font-weight:normal" x="318.731" y="148.097">
    <tspan x="318.731" y="148.097"></tspan>
  </text>
  <g>
    <rect style="fill: #ff8215" x="164.129" y="129.267" width="32.6747" height="33.7639"/>
    <rect style="fill: none; fill-opacity:0; stroke-width: 2; stroke: #3c3d3d" x="164.129" y="129.267" width="32.6747" height="33.7639"/>
    <rect style="fill: none; fill-opacity:0; stroke-width: 2; stroke: #3c3d3d" x="164.129" y="129.267" width="32.6747" height="33.7639"/>
  </g>
  <g>
    <line style="fill: none; fill-opacity:0; stroke-width: 2; stroke: #3c3d3d" x1="196.804" y1="146.149" x2="251.543" y2="145.276"/>
    <polygon style="fill: #3c3d3d" points="251.623,150.275 261.542,145.116 251.463,140.276 "/>
    <polygon style="fill: none; fill-opacity:0; stroke-width: 2; stroke: #3c3d3d" points="251.623,150.275 261.542,145.116 251.463,140.276 "/>
  </g>
  <text font-size="16.9331" style="fill: #3c3d3d;text-anchor:start;font-family:sans-serif;font-style:normal;font-weight:normal" x="109.8" y="146.524">
    <tspan x="109.8" y="146.524">head</tspan>
  </text>
  <text font-size="22.5774" style="fill: #3c3d3d;text-anchor:middle;font-family:sans-serif;font-style:normal;font-weight:normal" x="313.542" y="152.925">
    <tspan x="313.542" y="152.925">17</tspan>
  </text>
  <line style="fill: none; fill-opacity:0; stroke-width: 2; stroke: #3c3d3d" x1="198.275" y1="202.082" x2="581.923" y2="201.319"/>
  <g>
    <line style="fill: none; fill-opacity:0; stroke-width: 2; stroke: #3c3d3d" x1="581.44" y1="201.067" x2="581.253" y2="185.345"/>
    <polygon style="fill: #3c3d3d" points="586.253,185.286 581.135,175.346 576.254,185.404 "/>
    <polygon style="fill: none; fill-opacity:0; stroke-width: 2; stroke: #3c3d3d" points="586.253,185.286 581.135,175.346 576.254,185.404 "/>
  </g>
  <g>
    <rect style="fill: #52e5dc" x="530.123" y="112.346" width="102" height="62"/>
    <rect style="fill: none; fill-opacity:0; stroke-width: 2; stroke: #3c3d3d" x="530.123" y="112.346" width="102" height="62"/>
  </g>
  <g>
    <rect style="fill: #ff8215" x="630.923" y="112.446" width="102" height="62"/>
    <rect style="fill: none; fill-opacity:0; stroke-width: 2; stroke: #3c3d3d" x="630.923" y="112.446" width="102" height="62"/>
  </g>
  <text font-size="12.7998" style="fill: #3c3d3d;text-anchor:start;font-family:sans-serif;font-style:normal;font-weight:normal" x="586.312" y="146.342">
    <tspan x="586.312" y="146.342"></tspan>
  </text>
  <g>
    <line style="fill: none; fill-opacity:0; stroke-width: 2; stroke: #3c3d3d" x1="465.342" y1="145.2" x2="517.658" y2="145.332"/>
    <polygon style="fill: #3c3d3d" points="517.645,150.332 527.657,145.358 517.67,140.332 "/>
    <polygon style="fill: none; fill-opacity:0; stroke-width: 2; stroke: #3c3d3d" points="517.645,150.332 527.657,145.358 517.67,140.332 "/>
  </g>
  <text font-size="22.5774" style="fill: #3c3d3d;text-anchor:middle;font-family:sans-serif;font-style:normal;font-weight:normal" x="581.123" y="150.842">
    <tspan x="581.123" y="150.842">10</tspan>
  </text>
  <text font-size="12.7998" style="fill: #3c3d3d;text-anchor:start;font-family:sans-serif;font-style:normal;font-weight:normal" x="581.123" y="143.346">
    <tspan x="581.123" y="143.346"></tspan>
  </text>
  <text font-size="12.7998" style="fill: #3c3d3d;text-anchor:start;font-family:sans-serif;font-style:normal;font-weight:normal" x="1152.5" y="142.51">
    <tspan x="1152.5" y="142.51"></tspan>
  </text>
  <text font-size="12.7998" style="fill: #3c3d3d;text-anchor:start;font-family:sans-serif;font-style:normal;font-weight:normal" x="1147.1" y="141.79">
    <tspan x="1147.1" y="141.79"></tspan>
  </text>
  <g>
    <rect style="fill: #52e5dc" x="1361.18" y="110.647" width="102" height="62"/>
    <rect style="fill: none; fill-opacity:0; stroke-width: 2; stroke: #3c3d3d" x="1361.18" y="110.647" width="102" height="62"/>
  </g>
  <g>
    <rect style="fill: #ff8215" x="1460.3" y="109.907" width="102" height="62"/>
    <rect style="fill: none; fill-opacity:0; stroke-width: 2; stroke: #3c3d3d" x="1460.3" y="109.907" width="102" height="62"/>
  </g>
  <text font-size="12.7998" style="fill: #3c3d3d;text-anchor:start;font-family:sans-serif;font-style:normal;font-weight:normal" x="1415.69" y="143.803">
    <tspan x="1415.69" y="143.803"></tspan>
  </text>
  <text font-size="22.5774" style="fill: #3c3d3d;text-anchor:middle;font-family:sans-serif;font-style:normal;font-weight:normal" x="1412.18" y="149.472">
    <tspan x="1412.18" y="149.472">32</tspan>
  </text>
  <text font-size="12.7998" style="fill: #3c3d3d;text-anchor:start;font-family:sans-serif;font-style:normal;font-weight:normal" x="1412.18" y="141.647">
    <tspan x="1412.18" y="141.647"></tspan>
  </text>
  <text font-size="12.7998" style="fill: #3c3d3d;text-anchor:start;font-family:sans-serif;font-style:normal;font-weight:normal" x="1409.36" y="153.39">
    <tspan x="1409.36" y="153.39"></tspan>
  </text>
  <text font-size="12.7998" style="fill: #3c3d3d;text-anchor:start;font-family:sans-serif;font-style:normal;font-weight:normal" x="1406.84" y="144.14">
    <tspan x="1406.84" y="144.14"></tspan>
  </text>
  <line style="fill: none; fill-opacity:0; stroke-width: 2; stroke: #3c3d3d" x1="1562.3" y1="140.907" x2="1601.06" y2="139.641"/>
  <g>
    <line style="fill: none; fill-opacity:0; stroke-width: 2; stroke: #3c3d3d" x1="1600.15" y1="139.641" x2="1600.15" y2="162.57"/>
    <polygon style="fill: #3c3d3d" points="1595.15,162.57 1600.15,172.57 1605.15,162.57 "/>
    <polygon style="fill: none; fill-opacity:0; stroke-width: 2; stroke: #3c3d3d" points="1595.15,162.57 1600.15,172.57 1605.15,162.57 "/>
  </g>
  <g>
    <rect style="fill: #52e5dc" x="798.747" y="111.849" width="102" height="62"/>
    <rect style="fill: none; fill-opacity:0; stroke-width: 2; stroke: #3c3d3d" x="798.747" y="111.849" width="102" height="62"/>
  </g>
  <g>
    <rect style="fill: #ff8215" x="899.547" y="111.949" width="102" height="62"/>
    <rect style="fill: none; fill-opacity:0; stroke-width: 2; stroke: #3c3d3d" x="899.547" y="111.949" width="102" height="62"/>
  </g>
  <text font-size="12.7998" style="fill: #3c3d3d;text-anchor:start;font-family:sans-serif;font-style:normal;font-weight:normal" x="854.936" y="145.846">
    <tspan x="854.936" y="145.846"></tspan>
  </text>
  <g>
    <rect style="fill: #ff8215" x="166.387" y="247.26" width="32.6747" height="33.7639"/>
    <rect style="fill: none; fill-opacity:0; stroke-width: 2; stroke: #3c3d3d" x="166.387" y="247.26" width="32.6747" height="33.7639"/>
    <rect style="fill: none; fill-opacity:0; stroke-width: 2; stroke: #3c3d3d" x="166.387" y="247.26" width="32.6747" height="33.7639"/>
  </g>
  <text font-size="16.9331" style="fill: #3c3d3d;text-anchor:start;font-family:sans-serif;font-style:normal;font-weight:normal" x="70.8547" y="264.517">
    <tspan x="70.8547" y="264.517">newNode</tspan>
  </text>
  <text font-size="22.5774" style="fill: #3c3d3d;text-anchor:middle;font-family:sans-serif;font-style:normal;font-weight:normal" x="849.747" y="150.674">
    <tspan x="849.747" y="150.674">72</tspan>
  </text>
  <text font-size="12.7998" style="fill: #3c3d3d;text-anchor:start;font-family:sans-serif;font-style:normal;font-weight:normal" x="138.314" y="260.211">
    <tspan x="138.314" y="260.211"></tspan>
  </text>
  <text font-size="12.7998" style="fill: #3c3d3d;text-anchor:start;font-family:sans-serif;font-style:normal;font-weight:normal" x="845.482" y="143.331">
    <tspan x="845.482" y="143.331"></tspan>
  </text>
  <g>
    <rect style="fill: #52e5dc" x="1096.1" y="110.79" width="102" height="62"/>
    <rect style="fill: none; fill-opacity:0; stroke-width: 2; stroke: #3c3d3d" x="1096.1" y="110.79" width="102" height="62"/>
  </g>
  <g>
    <rect style="fill: #ff8215" x="1195.22" y="110.049" width="102" height="62"/>
    <rect style="fill: none; fill-opacity:0; stroke-width: 2; stroke: #3c3d3d" x="1195.22" y="110.049" width="102" height="62"/>
  </g>
  <text font-size="12.7998" style="fill: #3c3d3d;text-anchor:start;font-family:sans-serif;font-style:normal;font-weight:normal" x="1150.61" y="143.946">
    <tspan x="1150.61" y="143.946"></tspan>
  </text>
  <text font-size="22.5774" style="fill: #3c3d3d;text-anchor:middle;font-family:sans-serif;font-style:normal;font-weight:normal" x="1147.1" y="149.615">
    <tspan x="1147.1" y="149.615">15</tspan>
  </text>
  <text font-size="12.7998" style="fill: #3c3d3d;text-anchor:start;font-family:sans-serif;font-style:normal;font-weight:normal" x="1147.1" y="141.79">
    <tspan x="1147.1" y="141.79"></tspan>
  </text>
  <text font-size="12.7998" style="fill: #3c3d3d;text-anchor:start;font-family:sans-serif;font-style:normal;font-weight:normal" x="1147.1" y="141.79">
    <tspan x="1147.1" y="141.79"></tspan>
  </text>
  <g>
    <line style="fill: none; fill-opacity:0; stroke-width: 2; stroke: #3c3d3d" x1="1297.22" y1="141.049" x2="1350.18" y2="141.545"/>
    <polygon style="fill: #3c3d3d" points="1350.14,146.544 1360.18,141.638 1350.23,136.545 "/>
    <polygon style="fill: none; fill-opacity:0; stroke-width: 2; stroke: #3c3d3d" points="1350.14,146.544 1360.18,141.638 1350.23,136.545 "/>
  </g>
  <g>
    <polyline style="fill: none; fill-opacity:0; stroke-width: 2; stroke: #3c3d3d" points="1001.55,142.949 1028.58,142.949 1028.58,214.965 849.747,214.965 849.747,184.849 "/>
    <polygon style="fill: #3c3d3d" points="854.747,184.849 849.747,174.849 844.747,184.849 "/>
    <polygon style="fill: none; fill-opacity:0; stroke-width: 2; stroke: #3c3d3d" points="854.747,184.849 849.747,174.849 844.747,184.849 "/>
  </g>
  <g>
    <line style="fill: none; fill-opacity:0; stroke-width: 2; stroke: #3c3d3d" x1="732.923" y1="143.446" x2="787.537" y2="143.486"/>
    <polygon style="fill: #3c3d3d" points="787.533,148.486 797.537,143.493 787.54,138.486 "/>
    <polygon style="fill: none; fill-opacity:0; stroke-width: 2; stroke: #3c3d3d" points="787.533,148.486 797.537,143.493 787.54,138.486 "/>
  </g>
  <g>
    <polyline style="fill: none; fill-opacity:0; stroke-width: 2; stroke: #3c3d3d" points="173.475,270.028 173.475,268.779 831.926,268.779 831.926,185.603 "/>
    <polygon style="fill: #3c3d3d" points="836.926,185.603 831.926,175.603 826.926,185.603 "/>
    <polygon style="fill: none; fill-opacity:0; stroke-width: 2; stroke: #3c3d3d" points="836.926,185.603 831.926,175.603 826.926,185.603 "/>
  </g>
</svg>
