<?xml version="1.0" encoding="UTF-8" standalone="no"?>
<!DOCTYPE svg PUBLIC "-//W3C//DTD SVG 1.0//EN" "http://www.w3.org/TR/2001/PR-SVG-20010719/DTD/svg10.dtd">
<svg width="57cm" height="25cm" viewBox="282 -233 1128 488" xmlns="http://www.w3.org/2000/svg" xmlns:xlink="http://www.w3.org/1999/xlink">
  <g>
    <rect style="fill: #52e5dc" x="357.486" y="97.4102" width="102" height="62"/>
    <rect style="fill: none; fill-opacity:0; stroke-width: 2; stroke: #3c3d3d" x="357.486" y="97.4102" width="102" height="62"/>
  </g>
  <g>
    <rect style="fill: #ff8215" x="458.286" y="97.5102" width="102" height="62"/>
    <rect style="fill: none; fill-opacity:0; stroke-width: 2; stroke: #3c3d3d" x="458.286" y="97.5102" width="102" height="62"/>
  </g>
  <text font-size="12.8" style="fill: #3c3d3d;text-anchor:start;font-family:sans-serif;font-style:normal;font-weight:normal" x="413.676" y="131.407">
    <tspan x="413.676" y="131.407"></tspan>
  </text>
  <g>
    <rect style="fill: #ff8215" x="1079.07" y="219.576" width="32.6747" height="33.7639"/>
    <rect style="fill: none; fill-opacity:0; stroke-width: 2; stroke: #3c3d3d" x="1079.07" y="219.576" width="32.6747" height="33.7639"/>
    <rect style="fill: none; fill-opacity:0; stroke-width: 2; stroke: #3c3d3d" x="1079.07" y="219.576" width="32.6747" height="33.7639"/>
  </g>
  <text font-size="16.9333" style="fill: #3c3d3d;text-anchor:start;font-family:sans-serif;font-style:normal;font-weight:normal" x="1026.74" y="243.833">
    <tspan x="1026.74" y="243.833">head</tspan>
  </text>
  <text font-size="22.5778" style="fill: #3c3d3d;text-anchor:middle;font-family:sans-serif;font-style:normal;font-weight:normal" x="408.486" y="135.906">
    <tspan x="408.486" y="135.906">34</tspan>
  </text>
  <g>
    <rect style="fill: #52e5dc" x="625.068" y="95.6562" width="102" height="62"/>
    <rect style="fill: none; fill-opacity:0; stroke-width: 2; stroke: #3c3d3d" x="625.068" y="95.6562" width="102" height="62"/>
  </g>
  <g>
    <rect style="fill: #ff8215" x="725.868" y="95.7562" width="102" height="62"/>
    <rect style="fill: none; fill-opacity:0; stroke-width: 2; stroke: #3c3d3d" x="725.868" y="95.7562" width="102" height="62"/>
  </g>
  <text font-size="12.8" style="fill: #3c3d3d;text-anchor:start;font-family:sans-serif;font-style:normal;font-weight:normal" x="681.258" y="129.653">
    <tspan x="681.258" y="129.653"></tspan>
  </text>
  <g>
    <line style="fill: none; fill-opacity:0; stroke-width: 2; stroke: #3c3d3d" x1="561.293" y1="127.932" x2="613.061" y2="127.357"/>
    <polygon style="fill: #3c3d3d" points="613.117,132.356 623.061,127.245 613.006,122.357 "/>
    <polygon style="fill: none; fill-opacity:0; stroke-width: 2; stroke: #3c3d3d" points="613.117,132.356 623.061,127.245 613.006,122.357 "/>
  </g>
  <text font-size="22.5778" style="fill: #3c3d3d;text-anchor:middle;font-family:sans-serif;font-style:normal;font-weight:normal" x="676.068" y="134.152">
    <tspan x="676.068" y="134.152">23</tspan>
  </text>
  <text font-size="12.8" style="fill: #3c3d3d;text-anchor:start;font-family:sans-serif;font-style:normal;font-weight:normal" x="676.068" y="126.656">
    <tspan x="676.068" y="126.656"></tspan>
  </text>
  <g>
    <rect style="fill: #52e5dc" x="894.87" y="93.9262" width="102" height="62"/>
    <rect style="fill: none; fill-opacity:0; stroke-width: 2; stroke: #3c3d3d" x="894.87" y="93.9262" width="102" height="62"/>
  </g>
  <g>
    <rect style="fill: #ff8215" x="993.988" y="93.1852" width="102" height="62"/>
    <rect style="fill: none; fill-opacity:0; stroke-width: 2; stroke: #3c3d3d" x="993.988" y="93.1852" width="102" height="62"/>
  </g>
  <text font-size="12.8" style="fill: #3c3d3d;text-anchor:start;font-family:sans-serif;font-style:normal;font-weight:normal" x="949.378" y="127.082">
    <tspan x="949.378" y="127.082"></tspan>
  </text>
  <text font-size="22.5778" style="fill: #3c3d3d;text-anchor:middle;font-family:sans-serif;font-style:normal;font-weight:normal" x="945.87" y="132.422">
    <tspan x="945.87" y="132.422">56</tspan>
  </text>
  <text font-size="12.8" style="fill: #3c3d3d;text-anchor:start;font-family:sans-serif;font-style:normal;font-weight:normal" x="945.87" y="124.926">
    <tspan x="945.87" y="124.926"></tspan>
  </text>
  <text font-size="12.8" style="fill: #3c3d3d;text-anchor:start;font-family:sans-serif;font-style:normal;font-weight:normal" x="942.75" y="123.955">
    <tspan x="942.75" y="123.955"></tspan>
  </text>
  <g>
    <line style="fill: none; fill-opacity:0; stroke-width: 2; stroke: #3c3d3d" x1="1095.99" y1="124.185" x2="1149.93" y2="124.453"/>
    <polygon style="fill: #3c3d3d" points="1149.91,129.453 1159.93,124.503 1149.96,119.454 "/>
    <polygon style="fill: none; fill-opacity:0; stroke-width: 2; stroke: #3c3d3d" points="1149.91,129.453 1159.93,124.503 1149.96,119.454 "/>
  </g>
  <text font-size="12.8" style="fill: #3c3d3d;text-anchor:start;font-family:sans-serif;font-style:normal;font-weight:normal" x="233.258" y="243.52">
    <tspan x="233.258" y="243.52"></tspan>
  </text>
  <text font-size="12.8" style="fill: #3c3d3d;text-anchor:start;font-family:sans-serif;font-style:normal;font-weight:normal" x="406.48" y="246.884">
    <tspan x="406.48" y="246.884"></tspan>
  </text>
  <g>
    <rect style="fill: #52e5dc" x="1158.16" y="92.9836" width="102" height="62"/>
    <rect style="fill: none; fill-opacity:0; stroke-width: 2; stroke: #3c3d3d" x="1158.16" y="92.9836" width="102" height="62"/>
  </g>
  <g>
    <rect style="fill: #ff8215" x="1257.28" y="92.2426" width="102" height="62"/>
    <rect style="fill: none; fill-opacity:0; stroke-width: 2; stroke: #3c3d3d" x="1257.28" y="92.2426" width="102" height="62"/>
  </g>
  <text font-size="12.8" style="fill: #3c3d3d;text-anchor:start;font-family:sans-serif;font-style:normal;font-weight:normal" x="1212.67" y="126.139">
    <tspan x="1212.67" y="126.139"></tspan>
  </text>
  <text font-size="22.5778" style="fill: #3c3d3d;text-anchor:middle;font-family:sans-serif;font-style:normal;font-weight:normal" x="1209.16" y="131.479">
    <tspan x="1209.16" y="131.479">12</tspan>
  </text>
  <text font-size="12.8" style="fill: #3c3d3d;text-anchor:start;font-family:sans-serif;font-style:normal;font-weight:normal" x="1209.16" y="123.984">
    <tspan x="1209.16" y="123.984"></tspan>
  </text>
  <text font-size="12.8" style="fill: #3c3d3d;text-anchor:start;font-family:sans-serif;font-style:normal;font-weight:normal" x="1209.16" y="123.984">
    <tspan x="1209.16" y="123.984"></tspan>
  </text>
  <text font-size="12.8" style="fill: #3c3d3d;text-anchor:start;font-family:sans-serif;font-style:normal;font-weight:normal" x="945.87" y="124.926">
    <tspan x="945.87" y="124.926"></tspan>
  </text>
  <text font-size="12.7998" style="fill: #3c3d3d;text-anchor:start;font-family:sans-serif;font-style:normal;font-weight:normal" x="222" y="180.802">
    <tspan x="222" y="180.802"></tspan>
  </text>
  <text font-size="12.7998" style="fill: #3c3d3d;text-anchor:start;font-family:sans-serif;font-style:normal;font-weight:normal" x="408.486" y="128.41">
    <tspan x="408.486" y="128.41"></tspan>
  </text>
  <text font-size="12.7998" style="fill: #3c3d3d;text-anchor:start;font-family:sans-serif;font-style:normal;font-weight:normal" x="221.429" y="185.988">
    <tspan x="221.429" y="185.988"></tspan>
  </text>
  <g>
    <line style="fill: none; fill-opacity:0; stroke-width: 2; stroke: #3c3d3d" x1="828.866" y1="126.193" x2="882.872" y2="125.608"/>
    <polygon style="fill: #3c3d3d" points="882.927,130.608 892.872,125.5 882.818,120.609 "/>
    <polygon style="fill: none; fill-opacity:0; stroke-width: 2; stroke: #3c3d3d" points="882.927,130.608 892.872,125.5 882.818,120.609 "/>
  </g>
  <text font-size="12.7998" style="fill: #3c3d3d;text-anchor:start;font-family:sans-serif;font-style:normal;font-weight:normal" x="931.655" y="230.359">
    <tspan x="931.655" y="230.359"></tspan>
  </text>
  <g>
    <rect style="fill: #ff8215" x="392.765" y="-149.612" width="32.6747" height="33.7639"/>
    <rect style="fill: none; fill-opacity:0; stroke-width: 2; stroke: #3c3d3d" x="392.765" y="-149.612" width="32.6747" height="33.7639"/>
    <rect style="fill: none; fill-opacity:0; stroke-width: 2; stroke: #3c3d3d" x="392.765" y="-149.612" width="32.6747" height="33.7639"/>
  </g>
  <line style="fill: none; fill-opacity:0; stroke-width: 2; stroke: #3c3d3d" x1="429.847" y1="-131.94" x2="469.685" y2="-132.158"/>
  <g>
    <line style="fill: none; fill-opacity:0; stroke-width: 2; stroke: #3c3d3d" x1="468.767" y1="-132.158" x2="468.767" y2="-109.229"/>
    <polygon style="fill: #3c3d3d" points="463.767,-109.229 468.767,-99.2291 473.767,-109.229 "/>
    <polygon style="fill: none; fill-opacity:0; stroke-width: 2; stroke: #3c3d3d" points="463.767,-109.229 468.767,-99.2291 473.767,-109.229 "/>
  </g>
  <g>
    <rect style="fill: #52e5dc" x="794.068" y="-156.504" width="102" height="62"/>
    <rect style="fill: none; fill-opacity:0; stroke-width: 2; stroke: #3c3d3d" x="794.068" y="-156.504" width="102" height="62"/>
  </g>
  <g>
    <rect style="fill: #ff8215" x="893.186" y="-157.245" width="102" height="62"/>
    <rect style="fill: none; fill-opacity:0; stroke-width: 2; stroke: #3c3d3d" x="893.186" y="-157.245" width="102" height="62"/>
  </g>
  <text font-size="12.8" style="fill: #3c3d3d;text-anchor:start;font-family:sans-serif;font-style:normal;font-weight:normal" x="848.574" y="-123.349">
    <tspan x="848.574" y="-123.349"></tspan>
  </text>
  <text font-size="22.5778" style="fill: #3c3d3d;text-anchor:middle;font-family:sans-serif;font-style:normal;font-weight:normal" x="845.068" y="-117.679">
    <tspan x="845.068" y="-117.679">12</tspan>
  </text>
  <text font-size="12.8" style="fill: #3c3d3d;text-anchor:start;font-family:sans-serif;font-style:normal;font-weight:normal" x="845.068" y="-125.504">
    <tspan x="845.068" y="-125.504"></tspan>
  </text>
  <text font-size="12.8" style="fill: #3c3d3d;text-anchor:start;font-family:sans-serif;font-style:normal;font-weight:normal" x="845.068" y="-125.504">
    <tspan x="845.068" y="-125.504"></tspan>
  </text>
  <g>
    <rect style="fill: #ff8215" x="695.923" y="-143.069" width="32.6747" height="33.7639"/>
    <rect style="fill: none; fill-opacity:0; stroke-width: 2; stroke: #3c3d3d" x="695.923" y="-143.069" width="32.6747" height="33.7639"/>
    <rect style="fill: none; fill-opacity:0; stroke-width: 2; stroke: #3c3d3d" x="695.923" y="-143.069" width="32.6747" height="33.7639"/>
  </g>
  <g>
    <line style="fill: none; fill-opacity:0; stroke-width: 2; stroke: #3c3d3d" x1="728.598" y1="-126.187" x2="782.075" y2="-125.873"/>
    <polygon style="fill: #3c3d3d" points="782.045,-120.873 792.075,-125.815 782.104,-130.873 "/>
    <polygon style="fill: none; fill-opacity:0; stroke-width: 2; stroke: #3c3d3d" points="782.045,-120.873 792.075,-125.815 782.104,-130.873 "/>
  </g>
  <g>
    <polyline style="fill: none; fill-opacity:0; stroke-width: 2; stroke: #3c3d3d" points="995.186,-126.245 1027.82,-126.245 1027.82,-231.667 762.565,-231.667 762.565,-139.907 781.638,-139.907 "/>
    <polygon style="fill: #3c3d3d" points="781.638,-134.907 791.638,-139.907 781.638,-144.907 "/>
    <polygon style="fill: none; fill-opacity:0; stroke-width: 2; stroke: #3c3d3d" points="781.638,-134.907 791.638,-139.907 781.638,-144.907 "/>
  </g>
  <text font-size="16.9333" style="fill: #3c3d3d;text-anchor:start;font-family:sans-serif;font-style:normal;font-weight:normal" x="333.681" y="-129.67">
    <tspan x="333.681" y="-129.67">head</tspan>
  </text>
  <text font-size="16.9333" style="fill: #3c3d3d;text-anchor:start;font-family:sans-serif;font-style:normal;font-weight:normal" x="635.026" y="-123.424">
    <tspan x="635.026" y="-123.424">head</tspan>
  </text>
  <g>
    <polyline style="fill: none; fill-opacity:0; stroke-width: 2; stroke: #3c3d3d" points="1114.96,234.845 1114.96,232.845 1214.95,232.845 1214.95,167.846 "/>
    <polygon style="fill: #3c3d3d" points="1219.95,167.846 1214.95,157.846 1209.95,167.846 "/>
    <polygon style="fill: none; fill-opacity:0; stroke-width: 2; stroke: #3c3d3d" points="1219.95,167.846 1214.95,157.846 1209.95,167.846 "/>
  </g>
  <g>
    <polyline style="fill: none; fill-opacity:0; stroke-width: 2; stroke: #3c3d3d" points="1360.24,123.243 1408.95,123.243 1408.95,8.8478 314.964,8.8478 314.964,128.41 345.496,128.41 "/>
    <polygon style="fill: #3c3d3d" points="345.496,133.41 355.496,128.41 345.496,123.41 "/>
    <polygon style="fill: none; fill-opacity:0; stroke-width: 2; stroke: #3c3d3d" points="345.496,133.41 355.496,128.41 345.496,123.41 "/>
  </g>
  <text font-size="22.5774" style="fill: #3c3d3d;text-anchor:start;font-family:sans-serif;font-style:normal;font-weight:normal" x="285.964" y="-45.1516">
    <tspan x="285.964" y="-45.1516">empty circular linked list</tspan>
  </text>
  <text font-size="22.5774" style="fill: #3c3d3d;text-anchor:start;font-family:sans-serif;font-style:normal;font-weight:normal" x="696.76" y="-41.0515">
    <tspan x="696.76" y="-41.0515">circular linked list with one node</tspan>
  </text>
  <text font-size="22.5774" style="fill: #3c3d3d;text-anchor:start;font-family:sans-serif;font-style:normal;font-weight:normal" x="282.564" y="225.046">
    <tspan x="282.564" y="225.046">circular linked list with more than one node</tspan>
  </text>
</svg>
